<svg width="33" height="33" viewBox="0 0 33 33" fill="none" xmlns="http://www.w3.org/2000/svg">
<mask id="mask0" maskUnits="userSpaceOnUse" x="0" y="0" width="33" height="33">
<path d="M16.5 33C25.6127 33 33 25.6127 33 16.5C33 7.3873 25.6127 0 16.5 0C7.3873 0 0 7.3873 0 16.5C0 25.6127 7.3873 33 16.5 33Z" fill="white"/>
</mask>
<g mask="url(#mask0)">
<path d="M29.718 7.47765H12.0374C3.34662 7.47765 -3.69867 14.5229 -3.69867 23.2137V24.5283C-3.69867 33.2192 3.34662 40.2644 12.0374 40.2644H29.718C38.4088 40.2644 45.4541 33.2192 45.4541 24.5283V23.2137C45.4541 14.5229 38.4088 7.47765 29.718 7.47765Z" fill="#FFD67A" stroke="#F0F0F0" stroke-width="2.86111"/>
<path d="M38.4866 25.2981L32.9991 8.49073C30.547 0.980141 22.4706 -3.12053 14.96 -0.668377L13.7104 -0.260396C6.19979 2.19176 2.09912 10.2682 4.55127 17.7788L10.0388 34.5861C12.4909 42.0967 20.5673 46.1974 28.0779 43.7452L29.3275 43.3373C36.8381 40.8851 40.9388 32.8087 38.4866 25.2981Z" fill="#FF8A7A" fill-opacity="0.6"/>
<path d="M30.1013 9.82253L14.3582 1.77558C7.32315 -1.82031 -1.29491 0.967668 -4.8908 8.0027L-5.48907 9.17316C-9.08496 16.2082 -6.29698 24.8263 0.738053 28.4221L16.4812 36.4691C23.5162 40.065 32.1343 37.277 35.7302 30.242L36.3285 29.0715C39.9243 22.0365 37.1364 13.4184 30.1013 9.82253Z" fill="#FF8A7A" fill-opacity="0.6"/>
<path d="M20.7756 8.30654C18.3659 12.4372 17.2357 17.1852 17.527 21.9538C15.0504 18.6607 12.2445 15.6266 9.15262 12.898C8.5151 12.3382 7.57329 13.2683 8.21401 13.8329C11.8686 17.0455 15.1153 20.691 17.8819 24.6882C17.9659 24.822 18.095 24.9215 18.246 24.9691C18.397 25.0167 18.56 25.0091 18.706 24.9478C18.8519 24.8865 18.9711 24.7754 19.0423 24.6345C19.1134 24.4936 19.1319 24.332 19.0943 24.1788C18.2332 18.9371 19.2329 13.5604 21.9214 8.97355C22.0025 8.82267 22.0217 8.64636 21.975 8.48167C21.9283 8.31698 21.8194 8.17673 21.671 8.09038C21.5227 8.00403 21.3466 7.9783 21.1796 8.01861C21.0126 8.05892 20.8678 8.16213 20.7756 8.30654Z" fill="white"/>
</g>
</svg>
