<svg width="75" height="75" viewBox="0 0 75 75" fill="none" xmlns="http://www.w3.org/2000/svg">
<mask id="mask0" maskUnits="userSpaceOnUse" x="0" y="0" width="75" height="75">
<circle cx="37.5" cy="37.5001" r="29.5" transform="rotate(-71.8116 37.5 37.5001)" fill="white"/>
</mask>
<g mask="url(#mask0)">
<rect x="12.3252" y="66.0541" width="85.625" height="56.3646" rx="15.7361" transform="rotate(-71.8116 12.3252 66.0541)" fill="#FFD67A" stroke="#F0F0F0" stroke-width="2.86111"/>
<rect x="7.52747" y="4.95801" width="82.7639" height="53.5035" rx="14.3056" transform="rotate(0.106963 7.52747 4.95801)" fill="#FF8A7A" fill-opacity="0.6"/>
<rect x="-6.87341" y="50.9233" width="82.7639" height="53.5035" rx="14.3056" transform="rotate(-44.7381 -6.87341 50.9233)" fill="#FF8A7A" fill-opacity="0.6"/>
</g>
<path d="M51.4172 28.2859C51.191 28.05 50.9445 27.8344 50.6805 27.6417C50.6541 27.6065 50.6179 27.58 50.5764 27.5654C49.7209 26.967 48.7194 26.6113 47.6781 26.5361L45.4826 26.3886L40.1867 26.0328L33.7242 25.5983L28.03 25.2161C27.0345 25.1489 26.0388 25.082 25.0427 25.0154C23.8633 24.9292 22.686 25.2071 21.6697 25.8117C20.6535 26.4163 19.8475 27.3183 19.3607 28.3957C18.8036 29.6681 18.8352 31.122 18.7433 32.4844L18.329 38.6494C18.2265 40.1688 18.1244 41.688 18.0226 43.207C17.9443 44.1052 18.0701 45.0095 18.3907 45.8522C18.9259 47.2002 19.9495 48.2971 21.2574 48.9244C22.3386 49.4347 23.4689 49.4696 24.6298 49.5478L29.3365 49.864L35.7156 50.2929L41.753 50.6986L45.5811 50.9555C45.8899 50.9767 46.2 51.0026 46.5097 50.9998C47.9405 50.9752 49.31 50.4143 50.3467 49.428C51.3835 48.4418 52.012 47.1021 52.1077 45.6745C52.1337 45.3107 52.1549 44.9469 52.1808 44.5836L52.563 38.9025L52.9302 33.4359C52.9566 33.0452 52.9967 32.6512 53 32.2577C53.0048 30.7792 52.4377 29.356 51.4172 28.2859ZM26.3751 25.4942L31.0975 25.8113L37.3559 26.2322L43.3333 26.6337L47.1469 26.89L47.6781 26.9259C48.5698 26.9931 49.4302 27.2837 50.18 27.7708C46.493 30.9191 42.6011 33.8192 38.53 36.4519C37.3988 37.1837 36.2518 37.8943 35.0892 38.5839C31.5099 35.5088 28.0787 32.2728 24.7957 28.8759C23.8844 27.9334 22.9864 26.9774 22.1015 26.0078C22.4707 25.8089 22.8623 25.6548 23.2681 25.5488C24.2943 25.3653 25.3432 25.3468 26.3751 25.4942ZM18.551 41.1401L18.9596 35.0608L19.2632 30.5513C19.3014 29.6935 19.5338 28.8557 19.9428 28.1007C20.3811 27.329 21.0036 26.6777 21.7546 26.2048C24.3347 29.0239 27.0198 31.7415 29.8098 34.3577C26.6474 36.494 23.5963 38.7837 20.6564 41.2268C19.9023 41.8545 19.1576 42.4959 18.4185 43.1429C18.4185 43.109 18.4185 43.0751 18.4232 43.0407C18.4663 42.4067 18.5089 41.7733 18.551 41.1405V41.1401ZM49.7176 49.4602C48.679 50.2798 47.3733 50.6854 46.0529 50.5983C45.2705 50.5488 44.4886 50.4927 43.7062 50.4404L38.438 50.0865L32.0835 49.6595L26.4746 49.2825L23.4519 49.0794C22.6367 49.035 21.8417 48.8096 21.1245 48.4196C20.4956 48.0682 19.9438 47.594 19.502 47.0251C19.0601 46.4562 18.7372 45.8043 18.5524 45.1081C18.4362 44.6348 18.3839 44.148 18.3968 43.6608C18.4155 43.6533 18.4329 43.6432 18.4487 43.6307C21.3159 41.104 24.3084 38.7231 27.4149 36.4972C28.2897 35.8707 29.1731 35.257 30.0652 34.656C30.0769 34.6465 30.0875 34.6357 30.0968 34.6239C30.6907 35.1791 31.2827 35.7356 31.8879 36.2814C32.889 37.1871 33.9024 38.0792 34.928 38.9576C34.9493 38.9774 34.975 38.9919 35.0028 39C35.0307 39.0082 35.0601 39.0098 35.0887 39.0048C35.1243 39.0066 35.1596 38.9977 35.1901 38.9793C36.9576 37.9293 38.694 36.8297 40.3993 35.6805L40.4026 35.6843C43.5478 37.829 46.3362 40.444 49.1529 42.9921C50.0108 43.7678 50.8738 44.5375 51.742 45.3013C51.7321 45.4389 51.7245 45.5765 51.7142 45.7136C51.6553 46.4415 51.4478 47.1495 51.1044 47.7939C50.761 48.4383 50.289 49.0054 49.7176 49.4602ZM52.5965 32.5923C52.5216 33.7917 52.4353 34.9901 52.3547 36.1895L51.9376 42.3979C51.8835 43.1999 51.8295 44.0019 51.7754 44.8036C48.8795 42.2555 46.101 39.5651 43.0746 37.1692C42.3173 36.5694 41.541 35.9945 40.7457 35.4444C43.0289 33.8965 45.2525 32.2651 47.4165 30.5503C48.4619 29.7209 49.4913 28.8719 50.5047 28.0032C51.2113 28.5305 51.7734 29.2275 52.139 30.0296C52.5046 30.8318 52.662 31.7132 52.5965 32.5923Z" fill="white" stroke="white" stroke-width="2"/>
</svg>
