<svg width="59" height="59" viewBox="0 0 59 59" fill="none" xmlns="http://www.w3.org/2000/svg">
<mask id="mask0" maskUnits="userSpaceOnUse" x="0" y="0" width="59" height="59">
<circle cx="29.5" cy="29.5" r="29.5" fill="white"/>
</mask>
<g mask="url(#mask0)">
<rect x="-5.48566" y="14.4961" width="85.625" height="56.3646" rx="15.7361" fill="#FFD67A" stroke="#F0F0F0" stroke-width="2.86111"/>
<rect x="51.0602" y="-9.13263" width="82.7639" height="53.5035" rx="14.3056" transform="rotate(71.9185 51.0602 -9.13263)" fill="#FF8A7A" fill-opacity="0.6"/>
<rect x="2.89661" y="-8.46634" width="82.7639" height="53.5035" rx="14.3056" transform="rotate(27.0734 2.89661 -8.46634)" fill="#FF8A7A" fill-opacity="0.6"/>
</g>
<path d="M38.9 15.046C38.5169 14.9508 38.1112 15.0046 37.7676 15.1962C37.4239 15.3877 37.169 15.7023 37.0561 16.074L28.2832 38.8795C25.0776 35.5113 22.5827 31.5536 20.9422 27.2345C20.8277 26.8637 20.5725 26.5503 20.2293 26.3589C19.8862 26.1676 19.4813 26.113 19.0983 26.2064C18.7167 26.313 18.3931 26.5624 18.1972 26.9011C18.0013 27.2397 17.9488 27.6404 18.0511 28.0166C20.1165 33.543 23.4499 38.5286 27.7932 42.5872C27.9813 42.7634 28.2123 42.8893 28.4642 42.9529C28.716 43.0165 28.9802 43.0157 29.2316 42.9504C29.483 42.8852 29.7132 42.7578 29.9002 42.5803C30.0871 42.4029 30.2246 42.1813 30.2995 41.9369C33.5154 33.5772 36.7319 25.2176 39.949 16.858C40.0512 16.4812 39.9986 16.0801 39.8023 15.7412C39.6061 15.4022 39.282 15.1525 38.9 15.046Z" fill="white"/>
</svg>
