<svg width="566" height="464" viewBox="0 0 566 464" fill="none" xmlns="http://www.w3.org/2000/svg">
<g clip-path="url(#clip0)">
<path fill-rule="evenodd" clip-rule="evenodd" d="M149.651 309.686C147.384 310.62 145.445 312.206 144.081 314.244C142.718 316.282 141.99 318.679 141.991 321.131V357.322H105.432V320.887C105.433 317.614 106.733 314.475 109.048 312.16C111.363 309.846 114.502 308.545 117.775 308.544H149.651V309.686Z" fill="white"/>
<path fill-rule="evenodd" clip-rule="evenodd" d="M144.831 315.184C142.723 319.204 143.31 319.882 143.491 332.143C143.508 334.247 143.615 357.153 143.446 357.801C143.357 358.072 143.195 358.312 142.977 358.496C142.238 359.022 145.456 358.853 105.437 358.853C105.074 358.851 104.722 358.719 104.446 358.483C104.169 358.247 103.985 357.92 103.926 357.562C103.899 357.228 103.88 320.754 103.943 319.822C104.152 317.263 105.07 314.813 106.592 312.746C108.115 310.679 110.183 309.077 112.565 308.118C116.058 306.778 116.608 307.129 134.363 307.332C151.039 307.57 149.754 307.499 150.149 307.691C150.298 307.777 150.421 307.902 150.504 308.052C150.588 308.202 150.63 308.372 150.625 308.544C150.61 309.839 150.617 309.616 150.599 309.845C150.572 310.004 150.505 310.154 150.405 310.28C150.305 310.406 150.174 310.505 150.026 310.568L150.014 310.553C147.842 311.513 146.028 313.133 144.831 315.184ZM133.599 309.52V309.758L117.775 309.942C115.275 309.972 112.861 310.858 110.935 312.452C109.009 314.046 107.687 316.252 107.189 318.702C106.913 320.176 106.966 317.108 106.966 355.785H140.466C140.466 320.284 140.449 318.77 141.836 315.93C143.05 313.195 145.135 310.938 147.767 309.513L133.599 309.52Z" fill="white"/>
<path fill-rule="evenodd" clip-rule="evenodd" d="M344.858 124.869L345.419 125.295C345.687 126.721 345.535 125.151 344.907 130.197C344.388 133.566 344.074 139.405 344.031 139.912C343.361 151.823 345.125 164.723 355.979 169.773C358.979 171.05 359.669 170.648 360.465 171.47C360.95 172.218 360.752 171.801 360.835 176.711C360.835 183.253 361.304 194.935 361.286 195.488C361.258 195.748 361.14 195.989 360.953 196.171C360.766 196.353 360.521 196.464 360.261 196.485C358.753 196.631 357.257 196.877 355.782 197.222L355.053 197.07L354.633 196.475V196.464L354.775 195.752L355.386 195.32C356.592 195.03 357.707 194.67 358.972 194.422C358.972 194.266 357.688 183.24 357.688 173.665C351.704 172.089 346.934 168.152 343.913 161.491C342.33 157.882 341.368 154.031 341.068 150.101C340.556 145.003 340.706 139.86 341.513 134.8C342.018 131.676 342.748 128.594 343.697 125.575L344.154 124.996L344.844 124.876L344.858 124.869Z" fill="white"/>
<path fill-rule="evenodd" clip-rule="evenodd" d="M394.432 132.447C396.445 133.025 398.228 134.215 399.534 135.852C400.84 137.489 401.605 139.492 401.721 141.583C401.739 142.052 401.724 142.521 401.678 142.987C401.521 144.476 401.031 145.91 400.245 147.184C397.317 151.488 393.193 152.935 388.063 153.702C386.514 159.172 384.55 164.515 382.189 169.687C382.351 177.16 382.229 182.212 382.689 191.569C384.046 191.731 385.337 191.959 386.663 192.22C388.291 192.547 387.892 192.409 388.662 192.916L388.835 193.625C388.825 193.639 388.433 194.226 388.433 194.242C387.953 194.443 387.416 194.466 386.92 194.305C381.386 193.55 381.56 194.048 380.823 193.539C380.373 193.111 380.373 193.351 379.639 184.671C379.071 176.241 379.195 174.901 379.083 169.998C378.974 169.414 379.084 168.81 379.392 168.303C381.815 163.064 383.778 157.625 385.26 152.047C385.662 150.356 386.734 150.892 389.618 150.293C392.297 149.837 394.777 148.584 396.733 146.696C397.41 145.953 397.922 145.074 398.235 144.118C398.548 143.163 398.655 142.151 398.549 141.151C398.443 140.151 398.126 139.185 397.62 138.316C397.113 137.447 396.428 136.695 395.61 136.11C394.371 135.162 392.928 134.515 391.395 134.221C390.131 133.947 388.848 133.775 387.557 133.705L386.887 133.393L386.619 132.746V132.735L386.908 132.092L387.578 131.794C389.884 131.614 392.203 131.835 394.432 132.447ZM379.516 168.157L379.466 168.218L379.449 168.234L379.541 168.136L379.516 168.157ZM379.65 168.035C379.495 168.169 379.601 168.077 379.754 167.956L379.65 168.035Z" fill="white"/>
<path fill-rule="evenodd" clip-rule="evenodd" d="M353.911 131.237L354.399 131.663L354.572 132.407C354.572 137.537 353.183 138.181 353.485 147.916C357.762 147.88 356.846 147.688 358.041 148.091L358.404 148.686V148.696L358.195 149.366L357.54 149.78C355.809 150.262 354.052 150.64 352.276 150.911C351.871 150.975 351.457 150.879 351.122 150.643C350.917 150.483 350.752 150.278 350.641 150.042C350.056 148.256 350.239 139.265 351.4 135.034C351.4 134.924 352.054 133.319 352.054 133.308C352.109 133.199 352.67 132.022 352.738 131.909L353.274 131.361L353.904 131.248L353.911 131.237Z" fill="white"/>
<path fill-rule="evenodd" clip-rule="evenodd" d="M371.41 150.616C371.832 151.26 371.935 151.136 372.156 153.19C372.345 155.247 371.735 157.297 370.453 158.916C369.568 160.135 368.284 161.005 366.825 161.376C365.627 161.657 364.375 161.598 363.21 161.205C362.044 160.813 361.012 160.103 360.228 159.156C359.838 158.614 359.536 158.014 359.333 157.378C359.333 156.41 359.199 156.788 359.653 156.067C361.855 156.603 360.295 156.19 362.474 157.387C363.213 157.893 364.049 158.24 364.93 158.407C365.63 158.457 366.33 158.299 366.941 157.953C367.551 157.606 368.046 157.087 368.362 156.46C369.198 155.004 369.719 153.39 369.892 151.72C369.909 151.415 369.856 151.626 370.169 150.765L370.749 150.403L371.41 150.616Z" fill="white"/>
<path fill-rule="evenodd" clip-rule="evenodd" d="M370.684 123.892C371.451 124.42 372.129 125.066 372.694 125.807C373.066 126.204 373.304 126.71 373.372 127.25L373.132 127.873L373.118 127.88L372.49 128.072C372.038 127.976 371.614 127.78 371.249 127.498C370.451 127.049 369.617 126.667 368.755 126.358C368.09 126.02 367.364 125.819 366.62 125.767C365.876 125.714 365.129 125.811 364.423 126.051C364.232 126.127 364.047 126.216 363.868 126.319C363.724 126.403 363.586 126.497 363.454 126.6C363.454 126.6 362.558 127.068 362.337 127.198C361.514 127.619 362.483 127.38 360.505 127.801C360.237 126.535 360.051 126.515 360.671 125.294C361.014 124.582 361.578 124.001 362.279 123.638C362.593 123.452 362.921 123.291 363.26 123.157C364.473 122.715 365.771 122.551 367.056 122.679C368.341 122.806 369.581 123.221 370.684 123.892Z" fill="white"/>
<path d="M366.593 140.159C368.157 140.159 369.426 138.501 369.426 136.456C369.426 134.412 368.157 132.754 366.593 132.754C365.028 132.754 363.76 134.412 363.76 136.456C363.76 138.501 365.028 140.159 366.593 140.159Z" fill="white"/>
<path fill-rule="evenodd" clip-rule="evenodd" d="M393.52 133.959C395.507 122.683 396.846 107.768 385.133 101.31C380.486 98.7436 375.265 98.0709 370.259 96.5313C366.737 89.3167 359.204 78.0647 351.467 75.9743C346.959 74.8422 342.212 75.1365 337.879 76.8165C333.546 78.4966 329.841 81.4796 327.274 85.3543C320.623 95.2194 322.182 109.444 333.779 114.647C342.797 118.691 355.826 117.394 365.593 115.474C368.599 114.883 371.437 117.328 374.362 118.221C375.899 125.645 380.392 130.708 387.706 132.541C389.785 133.062 393.52 133.959 393.52 133.959Z" fill="white"/>
<path fill-rule="evenodd" clip-rule="evenodd" d="M351.763 74.4387C360.041 76.6617 367.48 87.5372 371.358 95.2328C377.405 96.9051 382.823 97.7439 387.582 100.995C397.959 108.441 396.807 121.631 394.47 134.126C394.317 134.099 392.408 133.764 394.482 134.126C394.45 134.309 394.366 134.479 394.24 134.616C394.114 134.753 393.952 134.851 393.772 134.898C393.417 134.961 393.89 135.044 389.248 133.978C386.556 133.518 383.969 132.577 381.61 131.2C376.983 128.304 374.642 124.401 373.267 119.223C371.029 118.419 368.776 116.868 366.774 116.768C365.104 116.694 342.061 123.113 329.283 113.793C318.898 105.753 320.12 90.449 327.981 81.9159C330.869 78.5964 334.619 76.141 338.817 74.8213C343.014 73.5016 347.495 73.3692 351.763 74.4387ZM341.177 77.3867C327.098 81.0489 321.637 96.4602 326.809 106.132C331.42 115.862 346.136 116.492 356.864 115.378C365.194 114.458 365.227 113.734 367.622 114.093C370.224 114.554 372.055 115.997 374.626 116.942C376.174 117.422 375.162 118.258 377.125 122.655C377.754 124.03 378.57 125.312 379.551 126.464C383.179 130.7 387.725 131.496 392.739 132.755C392.739 131.639 395.336 119.499 391.702 110.877C390.737 108.448 389.192 106.292 387.203 104.597C382.623 100.68 376.121 99.8866 370.287 98.1647C368.37 97.5845 369.635 97.8458 365.597 91.3307C362.365 86.3151 356.978 79.256 351.259 77.5381C347.97 76.6107 344.495 76.5604 341.18 77.392L341.177 77.3867Z" fill="white"/>
<mask id="mask0" maskUnits="userSpaceOnUse" x="136" y="33" width="150" height="150">
<circle cx="211" cy="108" r="75" fill="white"/>
</mask>
<g mask="url(#mask0)">
<rect x="124.26" y="72.0607" width="213.278" height="138.887" rx="15.7361" fill="#FFD67A" stroke="#F0F0F0" stroke-width="2.86111"/>
<rect x="265.814" y="9.78125" width="210.417" height="136.026" rx="14.3056" transform="rotate(71.9185 265.814 9.78125)" fill="#FF8A7A" fill-opacity="0.6"/>
<rect x="143.364" y="11.4756" width="210.417" height="136.026" rx="14.3056" transform="rotate(27.0734 143.364 11.4756)" fill="#FF8A7A" fill-opacity="0.6"/>
</g>
<path fill-rule="evenodd" clip-rule="evenodd" d="M234.77 47.6761C243.98 51.4594 252.191 57.3199 258.762 64.8001C265.333 72.2804 270.087 81.1781 272.652 90.7986C275.47 100.162 276.113 110.046 274.534 119.696C272.955 129.346 269.195 138.509 263.54 146.486C257.712 154.73 250.002 161.464 241.049 166.129C236.629 168.469 231.953 170.287 227.113 171.547C218.328 173.854 209.159 174.31 200.188 172.885C191.216 171.461 182.639 168.187 175.001 163.271C127.184 131.196 139.642 62.2928 189.56 46.048C204.334 41.1266 220.388 41.7047 234.77 47.6761ZM200.171 48.5766C190.287 50.2896 180.985 54.4375 173.105 60.6456C165.224 66.8538 159.015 74.9267 155.036 84.1357C151.056 93.3446 149.434 103.4 150.313 113.393C151.193 123.386 154.548 133.003 160.075 141.375C165.602 149.747 173.127 156.611 181.97 161.346C190.814 166.082 200.698 168.541 210.729 168.501C220.761 168.46 230.625 165.922 239.43 161.115C248.235 156.309 255.705 149.384 261.164 140.968C266.022 133.678 269.262 125.431 270.666 116.784C272.069 108.137 271.604 99.2888 269.302 90.8362L269.277 90.8442C260.056 60.8778 229.638 42.9821 200.171 48.5766ZM272.644 90.8C272.359 89.8754 272.384 89.9477 272.644 90.8V90.8Z" fill="white"/>
<path fill-rule="evenodd" clip-rule="evenodd" d="M207.902 83.5678C208.329 86.974 209.679 103.875 209.728 104.59C209.862 106.282 210.067 109.636 210.069 109.647C214.014 109.943 223.932 109.407 230.1 109.438C231.81 109.45 231.388 109.392 232.244 109.739L232.552 110.393V110.403L232.284 111.073C231.222 111.582 232.433 111.256 227.336 111.792C220.29 112.533 215.429 113.168 208.828 112.69C208.516 112.719 208.202 112.66 207.922 112.52C207.642 112.38 207.406 112.166 207.241 111.899C207.001 111.414 207.054 111.567 206.909 109.067C206.054 94.3615 204.703 88.8259 205.095 77.5592C205.123 76.8637 205.048 77.188 205.403 76.3331L206.026 76.0249H206.033C207.206 76.4818 206.877 75.7837 207.902 83.5678Z" fill="white"/>
<path fill-rule="evenodd" clip-rule="evenodd" d="M165.035 108.027C165.686 108.112 166.329 108.243 166.961 108.421C167.347 108.519 167.104 108.421 168.01 108.874L168.349 109.416C167.991 110.125 168.215 109.889 167.344 110.432C166.664 110.694 165.964 110.902 165.251 111.054C164.749 111.137 164.241 111.172 163.733 111.156C159.703 111.327 160.352 111.638 159.161 111.224C158.558 111.026 158.958 111.24 157.586 110.33C158.469 109.012 158.217 109.296 158.728 108.899C159.056 108.64 159.434 108.45 159.839 108.342C161.562 108.125 163.298 108.019 165.035 108.027Z" fill="white"/>
<path fill-rule="evenodd" clip-rule="evenodd" d="M260.525 105.097C260.988 105.076 261.451 105.13 261.896 105.258C262.002 105.284 262.531 105.443 262.593 105.466C263.497 105.787 263.043 105.495 264.327 106.617C263.209 107.799 263.545 107.584 262.63 107.91C261.302 108.438 259.708 108.071 257.36 108.195C256.973 108.235 256.585 108.134 256.267 107.911C255.76 107.669 256.155 107.925 254.817 106.959C255.733 105.675 255.528 105.908 255.946 105.589C256.282 105.272 256.725 105.092 257.187 105.084C258.389 105.026 259.243 105.056 260.525 105.097Z" fill="white"/>
<path fill-rule="evenodd" clip-rule="evenodd" d="M205.562 54.9842C205.836 55.3992 206.066 55.8415 206.248 56.3041C206.362 56.9408 206.442 57.5831 206.488 58.2283C206.811 61.3411 207.272 62.9183 206.315 65.4737L205.803 65.8757H205.786L205.199 65.6077L204.699 64.86C204.376 64.0929 204.1 63.3066 203.873 62.5056C203.739 61.9013 203.256 57.5061 203.256 57.352C203.159 56.8382 203.21 56.3074 203.404 55.8217C203.834 54.8837 203.22 55.6703 204.521 54.1226L205.562 54.9842Z" fill="white"/>
<path fill-rule="evenodd" clip-rule="evenodd" d="M211.358 161.784C210.74 160.731 210.39 159.543 210.339 158.324C209.845 155.161 209.913 155.854 210.154 154.94C210.476 154.187 210.254 154.59 211.204 153.35C211.829 153.721 212.366 154.224 212.777 154.824C213.082 155.271 213.013 155.188 213.21 156.44C213.657 159.552 213.817 159.632 213.499 161.254C213.376 161.883 213.499 161.599 212.573 162.931C211.28 161.852 211.506 162.085 211.358 161.784Z" fill="white"/>
<path fill-rule="evenodd" clip-rule="evenodd" d="M364.051 271.276C364.051 271.276 363.89 283.082 363.594 288.454C376.739 290.793 389.698 293.972 402.82 296.44C406.572 297.145 410.269 299.075 414.058 298.569C434.256 295.868 454.751 295.82 475.105 294.887C475.896 294.848 476.67 294.64 477.375 294.277C478.079 293.914 478.698 293.404 479.189 292.782C479.68 292.16 480.032 291.44 480.222 290.671C480.412 289.901 480.435 289.1 480.289 288.321C477.537 273.597 473.84 259.129 466.779 245.719C452.95 219.455 426.209 199.452 396.678 194.652C396.257 194.586 395.825 194.635 395.43 194.795C395.034 194.955 394.689 195.219 394.433 195.56C388.261 203.685 379.127 211.774 368.951 213.612C362.921 214.699 352.85 213.805 350.029 207.215C349.009 204.479 348.826 201.501 349.505 198.66C349.579 198.269 349.552 197.866 349.428 197.488C349.303 197.11 349.085 196.77 348.793 196.499C348.502 196.228 348.146 196.036 347.76 195.94C347.374 195.844 346.97 195.847 346.585 195.95C329.969 200.467 314.291 207.164 300.269 217.478C295.283 221.147 289.753 225.17 285.729 229.921C287.428 231.331 288.741 233.15 289.542 235.207C290.343 237.265 290.607 239.492 290.309 241.68C293.098 244.637 294.499 248.537 292.894 252.452C299.239 262.848 286.194 271.637 278.348 276.119C285.075 289.129 301.065 313.316 301.324 313.97C301.399 314.16 303.443 356.125 303.51 356.18C303.524 356.193 303.54 356.202 303.558 356.207C303.576 356.213 303.595 356.215 303.614 356.212C315.698 354.989 327.904 356.472 340.043 356.228C357.583 355.875 375.721 355.167 393.291 355.135C393.326 355.139 393.362 355.129 393.39 355.107C393.418 355.084 393.436 355.052 393.44 355.016C393.444 354.981 393.434 354.945 393.412 354.917C393.39 354.889 393.357 354.871 393.322 354.867C381.232 351.658 364.427 346.26 354.892 338.555C345.914 342.016 335.126 340.372 326.399 336.78C320.055 334.169 315.241 327.327 324.905 325.131C320.684 321.447 316.013 314.3 324.195 312.432C319.481 308.523 312.52 298.244 322.881 296.427C321.675 289.459 319.919 282.339 318.031 275.509C304.508 274.248 305.415 265.529 310.393 263.449C317.656 260.416 328.172 262.235 335.972 262.206C335.276 258.249 334.622 254.257 334.22 250.257C334.086 248.908 333.665 246.823 334.596 245.646C336.578 243.142 341.076 242.709 343.903 241.894C351.951 239.588 360.837 235.693 369.391 236.511C372.958 236.853 376.389 239.56 373.081 242.901C371.131 244.868 367.917 245.54 365.368 246.326C362.713 247.143 360.134 248.202 357.474 249.019C353.364 250.289 349.186 251.127 344.996 252.086C345.153 255.178 345.499 258.257 346.032 261.307C352.564 261 359.111 261.269 365.596 262.111C368.335 262.23 371.044 262.724 373.649 263.578C376.432 264.753 377.55 268.15 374.44 269.742C371.394 271.302 367.438 271.279 364.051 271.276Z" fill="#FF7979"/>
<path fill-rule="evenodd" clip-rule="evenodd" d="M363.638 290.492C367.404 290.45 371.166 290.751 374.877 291.394C389.019 293.685 411.764 299.45 416.114 300.385C416.114 299.109 416.019 299.581 416.36 298.651L417.002 298.32H417.016L417.694 298.563C418.171 299.479 417.999 298.981 418.156 300.317C418.26 301.639 418.444 302.327 417.533 302.75C417.16 302.853 417.399 302.863 414.794 302.512C399.317 300.346 388.198 296.444 371.809 294.079C370.112 293.834 365.384 292.925 362.176 292.44C361.885 292.397 362.051 292.46 361.306 292.046L361.071 291.394V291.383L361.392 290.768C362.256 290.432 361.762 290.487 363.638 290.492Z" fill="white"/>
<path fill-rule="evenodd" clip-rule="evenodd" d="M418.042 300.013C418.593 300.044 422.426 300.941 423.338 301.167C424.386 301.377 425.397 301.744 426.337 302.255C426.973 302.504 427.549 302.885 428.028 303.372L428.213 304.007V304.018L427.744 304.486L426.874 304.668C423.406 304.668 423.457 304.281 418.487 303.26C417.647 303.174 416.847 302.86 416.173 302.354C415.745 302.086 415.976 302.327 415.067 301.05C416.339 300.149 416.056 300.289 416.549 300.184C417.037 300.064 417.539 300.006 418.042 300.013Z" fill="white"/>
<path fill-rule="evenodd" clip-rule="evenodd" d="M475.654 298.304C476.115 299.202 475.978 298.486 476.198 302.056C476.375 306.036 476.135 310.024 475.481 313.954C473.841 323.868 469.154 333.025 462.07 340.152C452.033 350.567 437.672 355.86 423.344 356.559C408.377 357.229 396.224 353.239 382.503 347.3C373.582 343.425 363.887 339.241 356.614 333.143C353.147 334.384 349.544 335.203 345.882 335.582C338.053 336.329 329.711 335.172 323.961 329.954H323.954L323.634 329.297L323.843 328.614C323.861 328.602 324.477 328.295 324.497 328.285C325.282 328.524 325.143 328.449 325.392 328.658C326.132 329.24 326.916 329.764 327.737 330.224C336.133 334.699 346.793 333.372 355.7 330.167C358.939 328.954 356.09 330.784 370.129 338.169C377.476 341.896 391.249 348.054 400.997 350.809C439.197 361.278 471.438 340.302 474.061 306.659C474.463 299.005 473.724 300.093 474.302 298.413L474.956 298.079L475.654 298.304Z" fill="white"/>
<path fill-rule="evenodd" clip-rule="evenodd" d="M323.005 300.973C323.71 301.398 325.283 302.126 325.886 302.455C326.453 302.761 326.288 302.691 326.868 303.026C329.134 304.332 331.625 305.202 334.212 305.591C336.629 305.907 339.081 305.836 341.476 305.383C343.139 305.013 342.081 305.056 343.413 305.07L343.949 305.516L343.956 305.525V306.222C343.702 306.664 343.306 307.008 342.833 307.198C341.362 308.017 339.75 308.553 338.081 308.779C333.809 309.066 329.545 308.101 325.812 306.002C324.693 305.465 323.692 304.713 322.864 303.787C322.462 303.36 321.838 302.56 321.728 302.396L321.476 301.674L321.654 301.055V301.047L322.252 300.807L323.005 300.973Z" fill="white"/>
<path fill-rule="evenodd" clip-rule="evenodd" d="M324.825 316.303C330.556 317.213 331.28 318.447 338.73 317.643C340.307 317.496 341.874 317.251 343.42 316.907L344.199 316.973L344.692 317.449V317.458L344.647 318.148C344.12 318.72 344.347 318.656 342.655 319.467C340.918 320.308 339.037 320.811 337.113 320.951C335.036 321.127 332.945 321.055 330.886 320.736C328.372 320.573 325.971 319.631 324.017 318.041L323.56 317.417L323.541 316.781V316.772L324.034 316.37L324.801 316.3L324.825 316.303Z" fill="white"/>
<path fill-rule="evenodd" clip-rule="evenodd" d="M362.916 279.446H362.928L363.33 280.042C363.334 280.508 363.182 280.961 362.897 281.329C360.243 285.179 356.455 288.107 352.06 289.704C345.705 292.303 339.049 294.007 332.219 293.288C329.885 292.95 327.639 292.158 325.61 290.955C325.368 290.821 325.495 290.939 324.94 290.26V289.574L325.452 289.128C326.256 289.1 326.109 289.075 326.256 289.12C328.246 289.693 330.292 290.047 332.358 290.174C337.667 290.599 342.822 290.121 350.842 286.836C354.217 285.525 357.356 283.675 360.137 281.357C362.215 279.238 361.108 280.032 362.21 279.33L362.916 279.446Z" fill="white"/>
<path fill-rule="evenodd" clip-rule="evenodd" d="M227.317 255.773H227.329L227.805 256.309L227.793 257.04C223.031 269.718 221.332 283.342 222.835 296.801C223.406 301.635 224.672 306.362 226.594 310.835C230.919 320.721 238.69 326.474 249.477 327.964C263.6 329.913 282.938 323.542 294.733 312.629C296.127 311.336 295.537 311.7 296.503 311.297L297.189 311.565L297.473 312.235L297.205 312.932C282.575 328.267 254.932 337.31 236.824 327.061C215.528 314.934 215.384 277.213 226.055 256.226C226.064 256.219 226.602 255.746 226.61 255.738L227.317 255.773Z" fill="white"/>
<path fill-rule="evenodd" clip-rule="evenodd" d="M285.101 263.018V263.026L285.335 263.661L285.095 264.369C283.917 265.898 282.59 267.306 281.133 268.572C279.626 269.762 278.005 270.8 276.294 271.67C275.82 271.91 276.222 271.721 275.183 272.22C271.489 273.892 271.823 273.34 271.875 273.816C273.097 282.11 273.49 281.254 274.98 290.525C275.548 294.496 275.516 293.765 275.295 294.738L274.708 295.151H274.696L273.999 294.99L273.561 294.366C272.365 289.751 269.62 282.263 268.603 272.63C268.566 271.098 269.646 271.012 270.941 270.583C272.29 270.124 273.602 269.563 274.867 268.906C277.87 267.173 280.765 265.259 283.537 263.176C283.817 262.959 283.624 263.053 284.463 262.774L285.101 263.018Z" fill="white"/>
<path fill-rule="evenodd" clip-rule="evenodd" d="M278.836 239.882H278.848L279.139 240.51L278.947 241.258C277.623 243.408 275.919 245.299 273.917 246.838C271.518 248.679 268.92 250.247 266.172 251.51C264.802 252.234 263.295 252.663 261.75 252.771C261.22 252.889 260.669 252.855 260.158 252.673L259.725 252.2C259.725 252.186 259.827 251.577 259.829 251.562L260.365 251.012C260.4 250.998 262.488 249.783 262.575 249.737C265.073 248.666 267.483 247.4 269.783 245.953C271.455 244.858 275.679 241.583 277.102 240.325C277.574 239.904 277.312 240.071 278.165 239.691L278.836 239.882Z" fill="white"/>
<path fill-rule="evenodd" clip-rule="evenodd" d="M282.051 250.369V250.377L282.347 251.002L282.167 251.754C280.902 253.895 279.305 255.821 277.434 257.461C275.172 259.431 272.625 261.049 269.881 262.261C268.459 262.974 266.886 263.33 265.295 263.299C264.742 263.369 264.18 263.276 263.678 263.031C263.667 263.016 263.306 262.521 263.296 262.504L263.474 261.893L264.067 261.403C264.603 261.195 266.393 260.291 266.807 260.123C269.316 259.248 271.674 257.986 273.794 256.383C274.761 255.656 279.347 251.766 280.663 250.519L281.371 250.194L282.051 250.369Z" fill="white"/>
<path fill-rule="evenodd" clip-rule="evenodd" d="M276.318 228.459V228.467L276.547 229.152L276.239 229.841C275.426 230.317 266.7 240.757 252.399 244.336C244.56 246.309 234.513 245.697 230.155 239.023C229.701 238.308 229.331 237.544 229.051 236.745C228.997 236.588 229.024 236.745 229.051 235.926L229.52 235.415H229.532H230.218C230.823 235.937 230.731 235.817 230.816 235.966C230.969 236.01 232.546 240.18 240.314 241.808C252.24 244.194 265.45 236.005 274.942 228.408L275.664 228.175L276.318 228.459Z" fill="white"/>
<path fill-rule="evenodd" clip-rule="evenodd" d="M243.116 243.644C235.161 228.927 233.334 222.472 230.853 218.196C232.878 215.784 234.92 213.422 237.118 211.165C246.202 212.363 255.342 213.28 264.419 214.591C265.653 221.098 268.986 226.902 270.717 233.235C266.526 237.523 260.892 239.852 255.263 241.536C251.462 242.883 247.459 243.567 243.427 243.561" fill="white"/>
<path fill-rule="evenodd" clip-rule="evenodd" d="M237.32 209.62C246.919 210.871 254.484 211.63 262.926 212.806C264.936 213.085 264.974 213.037 265.494 213.464C266.055 214.091 265.846 214.164 266.326 216.026C267.876 222.014 270.466 226.638 272.029 232.212C272.257 233.016 272.355 233.219 272.116 233.87C271.606 234.578 270.99 235.202 270.288 235.72C268.573 237.158 266.692 238.385 264.684 239.375C258.966 242.075 252.843 243.815 246.56 244.525C245.489 244.604 244.413 244.599 243.344 244.508C242.612 244.572 243.039 244.618 242.272 244.098C242.112 243.813 237.24 235.62 233.562 227.789C232.258 225 231.597 222.938 229.944 219.749C229.68 219.377 229.476 218.965 229.339 218.53C229.177 217.496 229.709 217.137 230.431 216.285C232.46 213.884 233.602 212.625 234.967 211.161C235.945 210.112 236.252 209.562 237.32 209.62ZM237.63 212.877C234.884 215.795 232.94 218.148 232.736 218.371C234.061 220.657 236.231 226.788 243.665 242.587C249.446 242.628 259.119 239.216 263.587 236.719C265.551 235.653 267.367 234.334 268.987 232.795C268.987 231.879 265.018 222.989 263.421 217.251V217.238C263.287 216.702 263.249 216.55 263.119 215.998C263.118 215.844 237.701 212.802 237.63 212.877Z" fill="white"/>
<path fill-rule="evenodd" clip-rule="evenodd" d="M263.765 234.489C263.023 233.873 263.324 234.366 261.143 230.932C261.049 230.76 260.496 229.876 260.162 229.19C259.712 228.252 258.461 225.572 258.075 224.607C256.766 221.585 256.778 221.937 258.18 219.883C258.664 219.153 259.091 218.57 259.156 218.456C259.867 217.628 260.656 216.87 261.513 216.193L262.228 215.878L262.846 215.986H262.858L263.142 216.545C263.034 217.511 263.197 217.058 262.167 219.395C261.637 220.343 261.051 221.259 260.414 222.138C262.386 227.028 262.72 226.413 264.871 233.108L264.889 233.942L264.478 234.5H264.466L263.765 234.489Z" fill="white"/>
<path fill-rule="evenodd" clip-rule="evenodd" d="M370.012 238.749L370.401 239.321C370.401 240.505 369.675 240.385 363.902 242.034C363.902 242.405 360.212 242.411 340.242 248.44C340.286 249.844 340.488 254.604 340.488 261.533C340.488 267.184 340.673 265.927 340.278 267.027L339.636 267.366L338.956 267.117L338.599 266.436C338.599 265.75 337.45 258.585 337.173 249.732C337.089 246.996 337.024 247.186 337.253 246.604C337.717 245.823 337.328 246.037 344.394 243.955C362.664 238.659 363.31 239.423 363.31 239.193C363.466 239.173 368.073 238.547 369.302 238.547L370.012 238.749Z" fill="white"/>
<path fill-rule="evenodd" clip-rule="evenodd" d="M354.188 266.042C362.569 266.159 361.068 266.237 369.71 266.237L370.425 266.505L370.752 267.148V267.159L370.5 267.837L369.821 268.181C369.821 268.334 361.245 268.985 353.776 269.155C327.45 269.276 326.306 270.744 317.283 269.869C315.458 269.693 313.498 269.333 313.34 269.313L312.698 268.939L312.477 268.283V268.268L312.816 267.662C313.263 267.411 313.784 267.32 314.29 267.407C320.733 267.364 338.238 265.812 354.188 266.042Z" fill="white"/>
<path fill-rule="evenodd" clip-rule="evenodd" d="M361.226 282.101C361.392 277.183 361.896 272.285 362.151 267.372C353.27 267.473 344.396 267.814 335.522 267.886C330.949 267.811 326.375 267.984 321.821 268.406C323.358 275.764 325.11 282.977 326.875 290.267C329.85 290.744 332.695 291.9 335.75 291.829C342.224 291.679 349.383 288.978 354.98 285.961C357.279 284.96 359.457 283.702 361.473 282.209" fill="white"/>
<path fill-rule="evenodd" clip-rule="evenodd" d="M363.489 266.742C363.676 267.234 363.672 267.213 363.477 269.303C362.203 282.898 362.019 280.973 362.433 282.264C362.105 282.966 362.189 282.891 361.836 283.189C360.183 284.464 358.394 285.553 356.503 286.437C354.104 287.824 351.62 289.06 349.067 290.137C346.655 291.145 344.163 291.952 341.618 292.549C337.476 293.694 333.09 293.606 328.998 292.297C326.137 291.627 326.345 291.895 325.72 291.312C325.413 290.902 325.616 291.931 323.067 281.077C322.609 279.161 321.581 274.735 320.734 270.795C320.268 268.618 320.051 268.315 320.554 267.491C321.097 266.852 321.448 266.872 322.288 266.781C324.979 266.503 327.209 266.42 329.926 266.369C364.71 265.829 362.771 265.454 363.489 266.742ZM323.706 269.781C324.601 274.169 327.072 284.473 328.156 288.917C332.645 289.786 333.471 290.722 338.635 290.123C346.641 289.157 353.501 285.365 357.432 283.535C358.425 283.084 359.375 282.546 360.272 281.927C360.272 276.031 360.514 272.793 360.623 268.919C355.142 269.13 327.671 269.428 323.706 269.781Z" fill="white"/>
<path fill-rule="evenodd" clip-rule="evenodd" d="M209.368 215.898C209.589 215.936 209.789 216.051 209.934 216.223C210.078 216.395 210.157 216.612 210.157 216.836C210.815 280.599 210.887 277.912 210.157 278.637C209.89 278.864 209.551 278.989 209.2 278.991C205.758 279.005 144.351 279.125 143.623 278.937C143.287 278.812 143.003 278.576 142.819 278.267C142.509 277.588 142.617 281.975 142.617 216.84C142.618 216.482 142.745 216.135 142.975 215.861C143.206 215.586 143.525 215.401 143.878 215.338C149.19 214.862 209.215 215.885 209.368 215.898ZM145.679 218.372V275.969C179.447 275.969 94.9426 276.008 207.721 276.015C207.872 276.092 207.596 278.419 208.245 217.798C172.66 218.459 173.946 218.372 145.679 218.372Z" fill="white"/>
<path fill-rule="evenodd" clip-rule="evenodd" d="M228.736 317.424C230.104 317.891 229.177 317.39 230.465 318.129L230.761 318.704V318.714L230.434 319.27L229.681 319.65C225.906 320.405 229.011 320.11 222.473 320.284C221.724 320.416 220.954 320.331 220.251 320.04C219.372 319.638 219.817 319.98 218.603 318.814C219.758 317.608 219.355 317.939 220.195 317.521C220.88 317.198 221.641 317.076 222.393 317.169C227.308 317.044 226.79 316.998 228.736 317.424Z" fill="white"/>
<path fill-rule="evenodd" clip-rule="evenodd" d="M213.577 338.384C214.099 338.318 214.63 338.384 215.12 338.574C218.778 340.42 222.293 342.536 225.635 344.905C228.561 346.89 229.264 347.049 229.067 348.44C228.991 348.789 228.794 349.101 228.512 349.321C228.054 349.621 227.976 349.621 227.061 349.739C221.357 350.481 215.74 349.326 209.917 348.744C197.97 347.587 190.466 345.356 180.757 343.95C177.675 343.492 177.619 343.426 176.16 343.126L175.549 342.7L175.401 341.984C175.411 341.968 175.81 341.39 175.821 341.374L176.475 341.24L176.499 341.222C181.777 340.15 187.122 339.433 192.496 339.078C197.88 338.677 208.691 338.371 213.577 338.384ZM213.041 341.499C204.209 341.518 195.104 342.043 190.324 342.233C185.612 342.425 186.025 342.314 187.75 342.575C190.832 343.047 197.325 344.049 201.229 344.569C201.229 344.72 219.207 346.827 222.963 346.864C220.192 344.973 217.316 343.24 214.349 341.673C213.96 341.474 214.186 341.496 213.041 341.499ZM213.453 341.188L213.472 341.196L213.448 341.176L213.453 341.188Z" fill="white"/>
<path fill-rule="evenodd" clip-rule="evenodd" d="M202.668 321.198C205.993 321.158 209.318 321.337 212.62 321.734C214.446 321.913 213.928 321.793 214.823 322.203L215.12 322.846V322.855L214.823 323.499L214.107 323.82C213.464 323.82 211.159 324.194 206.128 324.319C203.111 324.398 204.316 324.104 193.285 324.512C190.453 324.798 187.591 324.529 184.862 323.718L184.237 323.293L184.028 322.664V322.653L184.38 322.092C186.448 321.312 200.577 321.19 202.668 321.198Z" fill="white"/>
<path fill-rule="evenodd" clip-rule="evenodd" d="M152.052 332.982C152.969 333.012 153.726 333.183 156.853 333.267C161.471 333.367 162.761 333.073 165.437 333.187C169.752 333.387 169.055 333.321 169.993 333.679L170.344 334.281V334.291L170.076 334.936L169.361 335.327C165.347 336.275 161.216 336.633 157.098 336.39C151.529 336.274 150.736 335.846 148.902 335.05C148.701 334.965 148.832 335.05 148.162 334.487L147.989 333.872C147.999 333.856 148.36 333.371 148.371 333.356L149.105 333.108C149.273 333.095 151.684 332.965 152.052 332.982Z" fill="white"/>
<path fill-rule="evenodd" clip-rule="evenodd" d="M482.93 353.639L483.3 354.309V354.32L482.942 355.001L482.078 355.298L473.259 355.943L434.757 356.502L414.632 356.77L395.321 357L370.808 357.229L341.902 357.497L277.299 358.103L214.228 358.695L187.24 358.949L165.398 359.154L155.433 359.208L144.644 359.241L122.965 359.254L96.2678 359.215H95.6621L94.9921 358.935L94.7 358.272V358.261L94.9773 357.591L95.6473 357.299L96.2584 357.286L122.948 356.739L144.623 356.337L155.41 356.167L165.384 356.033L187.218 355.828L214.205 355.574L277.271 354.983L341.879 354.378L370.78 354.11L395.293 353.879L414.609 353.745L434.734 353.634L473.238 353.471L482.056 353.349L482.93 353.639Z" fill="white"/>
<path fill-rule="evenodd" clip-rule="evenodd" d="M113.25 317.881C122.741 318.061 123.3 318.072 127.009 318.843C127.47 318.899 127.908 319.075 128.279 319.354L128.547 319.986V319.997L128.203 320.592C127.804 320.827 127.35 320.952 126.887 320.953C124.34 321.26 121.769 321.322 119.21 321.138C116.786 321.188 114.362 321.098 111.948 320.87C109.776 320.371 109.93 320.356 109.228 319.932L108.96 319.371V319.362L109.251 318.813L109.932 318.431C111.008 318.1 112.124 317.915 113.25 317.881Z" fill="white"/>
<path fill-rule="evenodd" clip-rule="evenodd" d="M137.266 334.142C140.348 334.37 139.544 334.178 140.616 334.613L140.955 335.237V335.248L140.665 335.896L139.937 336.253C132.377 337.302 134.081 336.992 120.006 337.404C117.781 337.565 115.544 337.439 113.351 337.029L112.665 336.699L112.361 336.117V336.107L112.617 335.502L113.276 335.12C113.812 335.039 113.871 334.946 115.763 334.615C117.134 334.371 118.525 334.262 119.917 334.29C134.079 333.884 132.375 333.91 137.266 334.142Z" fill="white"/>
<path fill-rule="evenodd" clip-rule="evenodd" d="M137.94 349.606C138.744 350.178 138.546 349.933 138.857 350.659C137.517 351.731 138.003 351.463 136.981 351.731C135.85 352.073 134.837 352.014 131.24 352.085C130.941 352.124 130.637 352.092 130.353 351.991C129.252 351.541 129.366 351.526 128.388 350.527C129.421 349.52 129.244 349.575 130.331 349.089C130.774 348.947 130.503 348.99 131.705 348.955C135.487 348.881 135.75 348.719 137.94 349.606Z" fill="white"/>
<path fill-rule="evenodd" clip-rule="evenodd" d="M403.097 261.252C404.361 262.08 404.008 261.696 405.004 266.873C406.688 275.942 407.668 279.937 408.466 285.028C409.454 291.356 409.52 290.708 408.571 291.449H408.559L407.862 291.315L407.386 290.703C407.386 290.548 407.361 290.755 406.18 286.894C404.098 279.7 404.381 279.814 401.773 266.584C401.103 262.938 401.539 264.134 400.107 262.643C399.823 262.356 399.238 261.776 399.101 261.643C398.643 261.169 398.127 260.756 397.564 260.413L397.076 259.842L397.04 259.172V259.163L397.528 258.698L398.274 258.638C400.016 259.235 401.646 260.118 403.097 261.252Z" fill="white"/>
<path fill-rule="evenodd" clip-rule="evenodd" d="M252.626 219.866C256.79 220.416 255.193 220.073 257.434 220.686C258.944 221.214 258.267 220.836 259.253 221.483L259.495 222.051V222.06L259.193 222.596L258.514 222.937C257.231 223.258 255.902 223.345 254.589 223.194C252.52 222.957 245.005 221.948 242.955 221.494C239.265 220.69 240.097 220.976 239.167 220.455L238.913 219.828V219.817L239.234 219.22C239.721 218.94 240.281 218.812 240.842 218.851C245.006 218.583 246.005 218.956 252.626 219.866Z" fill="white"/>
<path fill-rule="evenodd" clip-rule="evenodd" d="M302.825 275.511L303.417 275.793L303.749 276.455C304.449 281.908 304.257 277.619 304.374 295.495C304.412 299.319 304.237 303.141 303.848 306.944L303.534 307.673L302.898 307.979H302.892L302.257 307.675C301.92 306.898 301.932 307.428 301.615 303.133C301.317 298.958 301.25 299.414 301.25 283.123C301.244 280.88 301.453 278.641 301.873 276.437L302.219 275.781L302.818 275.513L302.825 275.511Z" fill="white"/>
<path d="M177.505 224.16C181.596 224.16 184.911 220.845 184.911 216.754C184.911 212.664 181.596 209.348 177.505 209.348C173.415 209.348 170.099 212.664 170.099 216.754C170.099 220.845 173.415 224.16 177.505 224.16Z" fill="#FF7979"/>
<path fill-rule="evenodd" clip-rule="evenodd" d="M178.368 208.359C179.856 208.405 181.306 208.844 182.569 209.631C183.832 210.418 184.865 211.526 185.561 212.842C186.258 214.157 186.594 215.634 186.535 217.121C186.476 218.609 186.024 220.054 185.225 221.31C184.451 222.622 183.356 223.714 182.043 224.485C180.73 225.256 179.242 225.68 177.72 225.716C176.198 225.753 174.691 225.401 173.343 224.694C171.994 223.988 170.848 222.949 170.012 221.676C169.238 220.51 168.762 219.172 168.624 217.78C168.486 216.387 168.692 214.982 169.222 213.686C169.752 212.391 170.591 211.245 171.666 210.349C172.741 209.453 174.019 208.833 175.388 208.544C176.371 208.372 177.371 208.31 178.368 208.359ZM177.511 210.32C175.99 210.413 174.555 211.055 173.473 212.128C172.391 213.2 171.736 214.629 171.629 216.149C171.629 223.107 179.527 224.731 182.617 219.601C182.801 219.27 182.952 218.921 183.068 218.561C183.316 217.65 183.366 216.696 183.212 215.764C183.059 214.833 182.707 213.945 182.18 213.162C181.653 212.378 180.963 211.718 180.158 211.225C179.353 210.732 178.451 210.418 177.513 210.305L177.511 210.32ZM177.584 208.386H177.615H177.584Z" fill="white"/>
<path fill-rule="evenodd" clip-rule="evenodd" d="M199.54 267.038C205.896 267.264 208.603 266.851 214.264 267.28C217.601 267.54 216.932 267.445 217.733 267.816L218.016 268.433V268.443L217.748 269.062C216.893 269.483 217.562 269.33 214.31 269.687C209.727 270.139 205.119 270.288 200.517 270.13C198.573 280.62 196.559 288.086 190.643 297.292C190.321 297.792 190.509 297.607 189.778 298.131L189.076 298.052L188.647 297.48C188.744 296.586 188.675 296.838 188.937 296.319C190.253 293.673 191.421 290.955 192.436 288.179C198.555 271.517 196.784 268.58 198.323 267.304C198.681 267.066 199.116 266.97 199.54 267.038Z" fill="white"/>
<path fill-rule="evenodd" clip-rule="evenodd" d="M202.632 307.218C205.378 307.237 208.057 308.067 210.334 309.603C212.241 310.881 213.796 312.618 214.856 314.655C216.895 318.794 216.455 320.093 216.455 332.908C216.428 341.11 216.499 340.373 216.239 340.948C216.071 341.249 215.805 341.483 215.485 341.611C215.165 341.739 214.81 341.753 214.481 341.65C213.884 341.407 214.152 341.443 213.776 341.437C208.17 341.389 197.085 341.641 186.395 342.383C192.8 343.557 197.313 344.403 202.656 345.223C214.582 347.01 215.758 346.223 215.882 347.758H215.863C215.997 358.563 216.032 357.495 215.937 357.89C215.856 358.132 215.692 358.338 215.474 358.471C215.321 358.547 217.886 359.054 141.991 359.054C141.631 359.055 141.281 358.928 141.005 358.697C140.728 358.465 140.542 358.143 140.48 357.788C140.461 357.52 140.423 321.146 140.504 320.008C140.765 316.82 142.116 313.818 144.328 311.508C146.541 309.198 149.481 307.719 152.655 307.32C154.078 307.162 202.479 307.216 202.632 307.218ZM194.103 310.282C152.99 310.282 153.282 309.88 150.285 311.086C148.853 311.671 147.562 312.555 146.499 313.679C145.436 314.802 144.625 316.14 144.121 317.601C143.288 319.723 143.528 319.372 143.528 355.998C182.185 355.998 175.896 355.923 213.821 356.42L213.839 356.443V348.601C205.426 347.635 207.098 348.265 187.333 344.995C182.509 344.205 177.525 343.849 175.897 343.37C175.625 343.263 175.397 343.066 175.252 342.812C175.107 342.558 175.054 342.261 175.101 341.973C175.148 341.684 175.293 341.42 175.511 341.225C175.729 341.029 176.007 340.915 176.299 340.9C176.455 340.892 189.904 338.547 213.315 338.447C213.48 338.447 213.382 339.752 213.382 320.933C213.33 318.553 212.5 316.256 211.019 314.393C209.538 312.53 207.488 311.203 205.182 310.615C203.433 310.154 202.405 310.282 194.103 310.282ZM213.494 341.143L213.506 341.151L213.487 341.133L213.494 341.143Z" fill="white"/>
<path fill-rule="evenodd" clip-rule="evenodd" d="M345.377 80.813C346.321 80.8528 347.254 81.0395 348.141 81.3664C348.729 81.5808 348.505 81.4656 349.178 82.0056L349.351 82.614V82.6233L348.98 83.1298C347.829 83.5426 348.5 83.2853 346.98 83.5319C344.66 83.678 342.402 84.3405 340.37 85.4708C339.126 86.1871 337.99 87.0758 336.995 88.1106C335.38 89.6991 333.954 91.4679 332.743 93.3822L332.163 93.8753L331.485 93.8874H331.471L331.021 93.3742C330.926 92.7798 331.03 92.1705 331.317 91.6415C332.045 89.5136 333.238 87.5748 334.811 85.9666C336.006 84.7422 337.362 83.6848 338.84 82.823C340.821 81.6271 343.066 80.9369 345.377 80.813Z" fill="white"/>
<path fill-rule="evenodd" clip-rule="evenodd" d="M329.386 103.661C329.293 103.511 329.21 103.354 329.14 103.192C328.849 102.118 328.703 101.01 328.707 99.8969C328.774 99.7344 328.861 99.5809 328.965 99.4399H328.972C329.066 99.3141 329.169 99.195 329.28 99.0835C331.569 99.2095 331.022 99.0835 331.44 99.5016C331.491 99.5768 331.546 99.6484 331.607 99.716C331.637 99.7682 331.66 99.8004 331.694 99.85C331.772 100.724 331.91 101.591 332.106 102.446C332.133 103.434 331.855 104.407 331.31 105.233C330.004 104.454 330.11 104.618 329.386 103.661Z" fill="white"/>
<path fill-rule="evenodd" clip-rule="evenodd" d="M333.842 208.638L334.348 209.124C334.348 209.14 334.324 209.821 334.323 209.836L333.804 210.378C332.029 211.241 329.192 212.719 327.676 213.539C322.789 216.3 322.036 216.24 315.044 220.576C309.198 224.194 307.438 226 302.046 229.116L301.324 229.276C301.304 229.267 300.738 228.986 300.72 228.974L300.553 228.329L300.862 227.659C300.862 227.504 303.831 224.72 304.441 224.191C311.221 218.983 318.578 214.574 326.369 211.051C332.399 208.607 333.089 208.754 333.089 208.602L333.842 208.638Z" fill="white"/>
<path d="M452.08 7.23779C451.704 7.2605 451.35 7.42602 451.092 7.70057C450.833 7.97512 450.689 8.33797 450.689 8.71506C450.689 9.09214 450.833 9.45502 451.092 9.72957C451.35 10.0041 451.704 10.1696 452.08 10.1923C452.457 10.1696 452.81 10.0041 453.069 9.72957C453.327 9.45502 453.471 9.09214 453.471 8.71506C453.471 8.33797 453.327 7.97512 453.069 7.70057C452.81 7.42602 452.457 7.2605 452.08 7.23779Z" fill="white"/>
<path d="M395.534 49.8667C395.157 49.8894 394.804 50.0549 394.545 50.3295C394.287 50.604 394.143 50.9669 394.143 51.344C394.143 51.7211 394.287 52.0839 394.545 52.3585C394.804 52.633 395.157 52.7986 395.534 52.8213C395.91 52.7986 396.263 52.633 396.522 52.3585C396.78 52.0839 396.924 51.7211 396.924 51.344C396.924 50.9669 396.78 50.604 396.522 50.3295C396.263 50.0549 395.91 49.8894 395.534 49.8667Z" fill="white"/>
<path d="M298.097 10.7188C297.721 10.7415 297.367 10.907 297.109 11.1815C296.85 11.4561 296.707 11.819 296.707 12.196C296.707 12.5731 296.85 12.936 297.109 13.2105C297.367 13.4851 297.721 13.6506 298.097 13.6733C298.474 13.6506 298.827 13.4851 299.086 13.2105C299.344 12.936 299.488 12.5731 299.488 12.196C299.488 11.819 299.344 11.4561 299.086 11.1815C298.827 10.907 298.474 10.7415 298.097 10.7188Z" fill="white"/>
<path d="M358.996 16.8081C358.62 16.8308 358.266 16.9964 358.008 17.2709C357.749 17.5455 357.605 17.9083 357.605 18.2854C357.605 18.6625 357.749 19.0253 358.008 19.2999C358.266 19.5744 358.62 19.7399 358.996 19.7627C359.373 19.7399 359.726 19.5744 359.985 19.2999C360.243 19.0253 360.387 18.6625 360.387 18.2854C360.387 17.9083 360.243 17.5455 359.985 17.2709C359.726 16.9964 359.373 16.8308 358.996 16.8081Z" fill="white"/>
<path d="M272 62.0454C271.624 62.0681 271.271 62.2336 271.012 62.5082C270.754 62.7827 270.61 63.1456 270.61 63.5227C270.61 63.8998 270.754 64.2626 271.012 64.5372C271.271 64.8117 271.624 64.9773 272 65C272.377 64.9773 272.73 64.8117 272.989 64.5372C273.247 64.2626 273.391 63.8998 273.391 63.5227C273.391 63.1456 273.247 62.7827 272.989 62.5082C272.73 62.2336 272.377 62.0681 272 62.0454Z" fill="white"/>
<mask id="mask1" maskUnits="userSpaceOnUse" x="279" y="195" width="203" height="162">
<path fill-rule="evenodd" clip-rule="evenodd" d="M364.702 271.653C364.702 271.653 364.542 283.458 364.245 288.83C377.391 291.17 390.35 294.348 403.471 296.817C407.223 297.522 410.92 299.451 414.71 298.946C434.908 296.245 455.403 296.196 475.756 295.264C476.548 295.225 477.322 295.016 478.026 294.653C478.731 294.29 479.349 293.781 479.84 293.159C480.331 292.537 480.684 291.817 480.874 291.047C481.063 290.278 481.086 289.477 480.941 288.698C478.188 273.974 474.491 259.506 467.431 246.095C453.602 219.831 426.861 199.829 397.33 195.029C396.909 194.962 396.477 195.011 396.081 195.171C395.686 195.331 395.341 195.595 395.084 195.936C388.912 204.062 379.779 212.15 369.603 213.989C363.573 215.075 353.501 214.182 350.681 207.591C349.66 204.855 349.478 201.877 350.157 199.037C350.23 198.646 350.204 198.243 350.079 197.865C349.955 197.487 349.736 197.146 349.445 196.876C349.153 196.605 348.798 196.413 348.412 196.316C348.026 196.22 347.621 196.224 347.237 196.326C330.621 200.843 314.943 207.541 300.921 217.855C295.935 221.523 290.405 225.546 286.381 230.298C288.08 231.707 289.392 233.527 290.193 235.584C290.995 237.641 291.259 239.869 290.961 242.056C293.749 245.014 295.151 248.913 293.546 252.829C299.891 263.224 286.846 272.013 279 276.496C285.727 289.506 301.717 313.693 301.976 314.347C302.051 314.537 304.094 356.502 304.161 356.557C304.175 356.569 304.192 356.578 304.21 356.584C304.228 356.589 304.247 356.591 304.266 356.589C316.35 355.365 328.556 356.849 340.695 356.605C358.234 356.251 376.372 355.544 393.943 355.511C393.978 355.515 394.014 355.505 394.042 355.483C394.07 355.461 394.088 355.428 394.092 355.393C394.096 355.357 394.086 355.322 394.064 355.294C394.041 355.266 394.009 355.247 393.973 355.243C381.884 352.034 365.079 346.637 355.543 338.932C346.565 342.393 335.777 340.749 327.051 337.156C320.706 334.546 315.893 327.704 325.557 325.507C321.336 321.824 316.665 314.676 324.847 312.808C320.133 308.899 313.171 298.62 323.532 296.803C322.326 289.835 320.571 282.716 318.683 275.886C305.159 274.625 306.067 265.906 311.045 263.826C318.308 260.792 328.824 262.612 336.624 262.582C335.927 258.625 335.273 254.633 334.871 250.634C334.737 249.284 334.317 247.199 335.248 246.023C337.23 243.518 341.728 243.085 344.554 242.271C352.602 239.965 361.489 236.069 370.042 236.888C373.609 237.23 377.041 239.936 373.733 243.277C371.783 245.244 368.568 245.917 366.02 246.702C363.365 247.519 360.786 248.578 358.126 249.395C354.016 250.666 349.838 251.503 345.648 252.463C345.805 255.554 346.151 258.634 346.683 261.683C353.216 261.377 359.762 261.646 366.247 262.487C368.986 262.606 371.696 263.1 374.301 263.955C377.084 265.13 378.202 268.527 375.091 270.119C372.046 271.678 368.09 271.656 364.702 271.653Z" fill="#FF7979"/>
</mask>
<g mask="url(#mask1)">
<rect x="293.26" y="234.061" width="213.278" height="138.887" rx="15.7361" fill="#FFD67A" stroke="#F0F0F0" stroke-width="2.86111"/>
<rect x="434.814" y="171.781" width="210.417" height="136.026" rx="14.3056" transform="rotate(71.9185 434.814 171.781)" fill="#FF8A7A" fill-opacity="0.6"/>
<rect x="312.364" y="173.476" width="210.417" height="136.026" rx="14.3056" transform="rotate(27.0734 312.364 173.476)" fill="#FF8A7A" fill-opacity="0.6"/>
</g>
</g>
<path d="M57.7763 377.285C57.759 376.909 57.5986 376.553 57.3279 376.29C57.0571 376.028 56.6963 375.879 56.3193 375.873C55.9422 375.868 55.5773 376.006 55.2991 376.261C55.0208 376.515 54.8502 376.867 54.8221 377.243C54.8393 377.619 54.9997 377.975 55.2705 378.238C55.5413 378.5 55.9021 378.649 56.2791 378.655C56.6562 378.66 57.0211 378.521 57.2993 378.267C57.5776 378.012 57.7482 377.661 57.7763 377.285Z" fill="white"/>
<path d="M15.9678 320.129C15.9506 319.753 15.7901 319.397 15.5194 319.134C15.2486 318.872 14.8878 318.723 14.5108 318.717C14.1337 318.712 13.7688 318.851 13.4906 319.105C13.2123 319.36 13.0417 319.711 13.0136 320.087C13.0309 320.464 13.1913 320.819 13.4621 321.082C13.7328 321.344 14.0936 321.493 14.4706 321.499C14.8477 321.504 15.2126 321.366 15.4908 321.111C15.7691 320.857 15.9397 320.506 15.9678 320.129Z" fill="white"/>
<path d="M56.5185 223.269C56.5012 222.892 56.3408 222.536 56.07 222.274C55.7992 222.011 55.4385 221.862 55.0614 221.857C54.6844 221.851 54.3195 221.99 54.0413 222.244C53.763 222.499 53.5924 222.85 53.5643 223.226C53.5815 223.603 53.7419 223.959 54.0127 224.221C54.2835 224.483 54.6443 224.633 55.0213 224.638C55.3983 224.643 55.7633 224.505 56.0415 224.25C56.3198 223.996 56.4904 223.645 56.5185 223.269Z" fill="white"/>
<path d="M49.5508 284.073C49.5336 283.697 49.3732 283.341 49.1024 283.078C48.8316 282.816 48.4708 282.667 48.0938 282.661C47.7167 282.656 47.3519 282.795 47.0736 283.049C46.7954 283.304 46.6247 283.655 46.5966 284.031C46.6139 284.407 46.7743 284.763 47.0451 285.026C47.3159 285.288 47.6766 285.437 48.0536 285.443C48.4307 285.448 48.7956 285.309 49.0738 285.055C49.3521 284.8 49.5227 284.449 49.5508 284.073Z" fill="white"/>
<path d="M124.564 331.268C124.547 330.891 124.387 330.536 124.116 330.273C123.845 330.011 123.484 329.862 123.107 329.856C122.73 329.851 122.365 329.989 122.087 330.244C121.809 330.498 121.638 330.849 121.61 331.225C121.627 331.602 121.788 331.958 122.059 332.22C122.329 332.483 122.69 332.632 123.067 332.638C123.444 332.643 123.809 332.504 124.087 332.25C124.366 331.995 124.536 331.644 124.564 331.268Z" fill="white"/>
<path d="M5.57355 196.433C5.55628 196.056 5.39588 195.701 5.12509 195.438C4.8543 195.176 4.49354 195.027 4.1165 195.021C3.73945 195.016 3.37456 195.154 3.09631 195.409C2.81806 195.663 2.64745 196.014 2.61931 196.391C2.63658 196.767 2.79698 197.123 3.06777 197.386C3.33856 197.648 3.6993 197.797 4.07635 197.803C4.45339 197.808 4.81831 197.669 5.09656 197.415C5.37481 197.16 5.54541 196.809 5.57355 196.433Z" fill="white"/>
<path d="M494.036 253.697C494.087 254.071 494.278 254.411 494.571 254.648C494.865 254.885 495.237 255.002 495.613 254.974C495.989 254.946 496.34 254.775 496.595 254.497C496.849 254.219 496.988 253.854 496.983 253.477C496.932 253.103 496.74 252.763 496.447 252.525C496.154 252.288 495.782 252.172 495.406 252.2C495.03 252.228 494.678 252.399 494.424 252.677C494.169 252.955 494.031 253.32 494.036 253.697Z" fill="white"/>
<path d="M540.766 306.906C540.816 307.279 541.008 307.619 541.301 307.857C541.594 308.094 541.967 308.21 542.343 308.182C542.719 308.154 543.07 307.984 543.324 307.705C543.579 307.427 543.717 307.062 543.712 306.685C543.661 306.311 543.47 305.971 543.177 305.734C542.884 305.497 542.511 305.38 542.135 305.408C541.759 305.436 541.408 305.607 541.153 305.885C540.899 306.164 540.76 306.528 540.766 306.906Z" fill="white"/>
<path d="M508.996 406.991C509.047 407.365 509.238 407.705 509.532 407.942C509.825 408.179 510.197 408.296 510.573 408.268C510.949 408.24 511.3 408.069 511.555 407.791C511.809 407.512 511.948 407.148 511.943 406.771C511.892 406.397 511.7 406.057 511.407 405.819C511.114 405.582 510.742 405.466 510.366 405.494C509.99 405.522 509.639 405.693 509.384 405.971C509.13 406.249 508.991 406.614 508.996 406.991Z" fill="white"/>
<path d="M510.525 345.807C510.575 346.181 510.767 346.521 511.06 346.759C511.353 346.996 511.726 347.112 512.102 347.084C512.478 347.056 512.829 346.885 513.083 346.607C513.338 346.329 513.477 345.964 513.471 345.587C513.42 345.213 513.229 344.873 512.936 344.636C512.643 344.399 512.27 344.282 511.894 344.31C511.518 344.338 511.167 344.509 510.913 344.787C510.658 345.065 510.519 345.43 510.525 345.807Z" fill="white"/>
<path d="M431.609 305.476C431.66 305.849 431.851 306.19 432.144 306.427C432.437 306.664 432.81 306.781 433.186 306.753C433.562 306.724 433.913 306.554 434.167 306.276C434.422 305.997 434.561 305.632 434.555 305.255C434.504 304.882 434.313 304.542 434.02 304.304C433.727 304.067 433.354 303.951 432.978 303.979C432.602 304.007 432.251 304.177 431.997 304.456C431.742 304.734 431.603 305.099 431.609 305.476Z" fill="white"/>
<path d="M562.127 429.185C562.178 429.559 562.369 429.899 562.663 430.136C562.956 430.374 563.328 430.49 563.704 430.462C564.08 430.434 564.431 430.263 564.686 429.985C564.94 429.707 565.079 429.342 565.074 428.965C565.023 428.591 564.831 428.251 564.538 428.014C564.245 427.776 563.873 427.66 563.497 427.688C563.121 427.716 562.77 427.887 562.515 428.165C562.261 428.443 562.122 428.808 562.127 429.185Z" fill="white"/>
<path d="M106.2 394.091H107.905C107.827 391.896 105.802 390.256 102.99 390.256C100.206 390.256 98.0184 391.875 98.0184 394.318C98.0184 396.278 99.4388 397.443 101.712 398.097L103.501 398.608C105.035 399.034 106.399 399.574 106.399 401.023C106.399 402.614 104.865 403.665 102.848 403.665C101.115 403.665 99.5809 402.898 99.4388 401.25H97.6207C97.7911 403.636 99.7229 405.256 102.848 405.256C106.2 405.256 108.104 403.409 108.104 401.051C108.104 398.324 105.518 397.443 104.013 397.045L102.535 396.648C101.456 396.364 99.7229 395.795 99.7229 394.233C99.7229 392.841 101.001 391.818 102.933 391.818C104.695 391.818 106.03 392.656 106.2 394.091ZM112.888 398.438C112.888 396.534 114.103 395.455 115.758 395.455C117.334 395.455 118.286 396.449 118.286 398.182V405H119.962V398.068C119.962 395.263 118.471 393.949 116.241 393.949C114.522 393.949 113.542 394.666 113.03 395.795H112.888V390.455H111.212V405H112.888V398.438ZM128.043 405.227C130.258 405.227 131.878 404.119 132.389 402.472L130.77 402.017C130.344 403.153 129.356 403.722 128.043 403.722C126.075 403.722 124.719 402.45 124.641 400.114H132.56V399.403C132.56 395.341 130.145 393.949 127.872 393.949C124.918 393.949 122.957 396.278 122.957 399.631C122.957 402.983 124.889 405.227 128.043 405.227ZM124.641 398.665C124.754 396.967 125.954 395.455 127.872 395.455C129.69 395.455 130.855 396.818 130.855 398.665H124.641ZM139.669 405.227C141.771 405.227 142.481 403.92 142.85 403.324H143.049V405H144.669V390.455H142.993V395.824H142.85C142.481 395.256 141.828 393.949 139.697 393.949C136.941 393.949 135.038 396.136 135.038 399.574C135.038 403.04 136.941 405.227 139.669 405.227ZM139.896 403.722C137.794 403.722 136.714 401.875 136.714 399.545C136.714 397.244 137.765 395.455 139.896 395.455C141.941 395.455 143.021 397.102 143.021 399.545C143.021 402.017 141.913 403.722 139.896 403.722ZM155.286 400.54C155.286 402.585 153.724 403.523 152.474 403.523C151.082 403.523 150.087 402.5 150.087 400.909V394.091H148.411V401.023C148.411 403.807 149.888 405.142 151.934 405.142C153.582 405.142 154.661 404.261 155.173 403.153H155.286V405H156.962V394.091H155.286V400.54ZM162.148 390.455H160.472V405H162.148V390.455ZM165.658 405H167.335V394.091H165.658V405ZM166.511 392.273C167.164 392.273 167.704 391.761 167.704 391.136C167.704 390.511 167.164 390 166.511 390C165.857 390 165.317 390.511 165.317 391.136C165.317 391.761 165.857 392.273 166.511 392.273ZM174.055 405.256C175.958 405.256 176.952 404.233 177.293 403.523H177.379V405H179.055V397.812C179.055 394.347 176.413 393.949 175.021 393.949C173.373 393.949 171.498 394.517 170.646 396.506L172.237 397.074C172.606 396.278 173.479 395.426 175.077 395.426C176.619 395.426 177.379 396.243 177.379 397.642V397.699C177.379 398.509 176.555 398.438 174.566 398.693C172.542 398.956 170.333 399.403 170.333 401.903C170.333 404.034 171.981 405.256 174.055 405.256ZM174.31 403.75C172.975 403.75 172.009 403.153 172.009 401.989C172.009 400.71 173.174 400.312 174.481 400.142C175.191 400.057 177.094 399.858 177.379 399.517V401.051C177.379 402.415 176.299 403.75 174.31 403.75ZM190.295 398.438C190.295 396.534 191.51 395.455 193.164 395.455C194.741 395.455 195.693 396.449 195.693 398.182V405H197.369V398.068C197.369 395.263 195.878 393.949 193.647 393.949C191.929 393.949 190.949 394.666 190.437 395.795H190.295V390.455H188.619V405H190.295V398.438ZM205.449 405.227C207.665 405.227 209.285 404.119 209.796 402.472L208.177 402.017C207.75 403.153 206.763 403.722 205.449 403.722C203.482 403.722 202.125 402.45 202.047 400.114H209.966V399.403C209.966 395.341 207.552 393.949 205.279 393.949C202.324 393.949 200.364 396.278 200.364 399.631C200.364 402.983 202.296 405.227 205.449 405.227ZM202.047 398.665C202.161 396.967 203.361 395.455 205.279 395.455C207.097 395.455 208.262 396.818 208.262 398.665H202.047ZM214.632 390.455H212.956V405H214.632V390.455ZM218.142 409.091H219.818V403.324H219.96C220.33 403.92 221.04 405.227 223.142 405.227C225.869 405.227 227.773 403.04 227.773 399.574C227.773 396.136 225.869 393.949 223.114 393.949C220.983 393.949 220.33 395.256 219.96 395.824H219.761V394.091H218.142V409.091ZM219.79 399.545C219.79 397.102 220.869 395.455 222.915 395.455C225.046 395.455 226.097 397.244 226.097 399.545C226.097 401.875 225.017 403.722 222.915 403.722C220.898 403.722 219.79 402.017 219.79 399.545ZM238.497 396.534C237.971 394.986 236.792 393.949 234.633 393.949C232.332 393.949 230.628 395.256 230.628 397.102C230.628 398.608 231.522 399.616 233.525 400.085L235.344 400.511C236.444 400.767 236.963 401.293 236.963 402.045C236.963 402.983 235.969 403.75 234.406 403.75C233.035 403.75 232.176 403.161 231.878 401.989L230.287 402.386C230.677 404.24 232.204 405.227 234.434 405.227C236.97 405.227 238.696 403.842 238.696 401.96C238.696 400.44 237.744 399.482 235.798 399.006L234.179 398.608C232.886 398.288 232.304 397.855 232.304 397.017C232.304 396.08 233.298 395.398 234.633 395.398C236.096 395.398 236.7 396.207 236.991 396.96L238.497 396.534ZM248.803 409.062C250.316 409.062 251.389 408.26 252.014 406.591L256.659 394.119L254.826 394.091L251.815 402.784H251.701L248.69 394.091H246.872L250.906 405.057L250.593 405.909C249.997 407.543 249.23 407.699 248.008 407.386L247.582 408.864C247.752 408.949 248.235 409.062 248.803 409.062ZM263.357 405.227C266.312 405.227 268.301 402.983 268.301 399.602C268.301 396.193 266.312 393.949 263.357 393.949C260.403 393.949 258.414 396.193 258.414 399.602C258.414 402.983 260.403 405.227 263.357 405.227ZM263.357 403.722C261.113 403.722 260.09 401.79 260.09 399.602C260.09 397.415 261.113 395.455 263.357 395.455C265.602 395.455 266.624 397.415 266.624 399.602C266.624 401.79 265.602 403.722 263.357 403.722ZM278.174 400.54C278.174 402.585 276.612 403.523 275.362 403.523C273.97 403.523 272.975 402.5 272.975 400.909V394.091H271.299V401.023C271.299 403.807 272.776 405.142 274.822 405.142C276.47 405.142 277.549 404.261 278.061 403.153H278.174V405H279.85V394.091H278.174V400.54ZM297.153 396.534C296.627 394.986 295.448 393.949 293.289 393.949C290.988 393.949 289.283 395.256 289.283 397.102C289.283 398.608 290.178 399.616 292.181 400.085L293.999 400.511C295.1 400.767 295.618 401.293 295.618 402.045C295.618 402.983 294.624 403.75 293.062 403.75C291.691 403.75 290.832 403.161 290.533 401.989L288.942 402.386C289.333 404.24 290.86 405.227 293.09 405.227C295.626 405.227 297.351 403.842 297.351 401.96C297.351 400.44 296.4 399.482 294.454 399.006L292.834 398.608C291.542 398.288 290.959 397.855 290.959 397.017C290.959 396.08 291.954 395.398 293.289 395.398C294.752 395.398 295.356 396.207 295.647 396.96L297.153 396.534ZM304.746 405.227C307.161 405.227 308.752 403.75 309.036 401.818H307.36C307.047 403.011 306.053 403.722 304.746 403.722C302.758 403.722 301.479 402.074 301.479 399.545C301.479 397.074 302.786 395.455 304.746 395.455C306.224 395.455 307.104 396.364 307.36 397.358H309.036C308.752 395.312 307.019 393.949 304.718 393.949C301.763 393.949 299.803 396.278 299.803 399.602C299.803 402.869 301.678 405.227 304.746 405.227ZM313.603 398.438C313.603 396.534 314.817 395.455 316.472 395.455C318.049 395.455 319 396.449 319 398.182V405H320.676V398.068C320.676 395.263 319.185 393.949 316.955 393.949C315.236 393.949 314.256 394.666 313.745 395.795H313.603V390.455H311.926V405H313.603V398.438ZM328.757 405.227C330.973 405.227 332.592 404.119 333.103 402.472L331.484 402.017C331.058 403.153 330.071 403.722 328.757 403.722C326.789 403.722 325.433 402.45 325.355 400.114H333.274V399.403C333.274 395.341 330.859 393.949 328.586 393.949C325.632 393.949 323.671 396.278 323.671 399.631C323.671 402.983 325.603 405.227 328.757 405.227ZM325.355 398.665C325.468 396.967 326.669 395.455 328.586 395.455C330.404 395.455 331.569 396.818 331.569 398.665H325.355ZM340.383 405.227C342.485 405.227 343.195 403.92 343.565 403.324H343.763V405H345.383V390.455H343.707V395.824H343.565C343.195 395.256 342.542 393.949 340.411 393.949C337.655 393.949 335.752 396.136 335.752 399.574C335.752 403.04 337.655 405.227 340.383 405.227ZM340.61 403.722C338.508 403.722 337.428 401.875 337.428 399.545C337.428 397.244 338.479 395.455 340.61 395.455C342.655 395.455 343.735 397.102 343.735 399.545C343.735 402.017 342.627 403.722 340.61 403.722ZM356 400.54C356 402.585 354.438 403.523 353.188 403.523C351.796 403.523 350.801 402.5 350.801 400.909V394.091H349.125V401.023C349.125 403.807 350.603 405.142 352.648 405.142C354.296 405.142 355.375 404.261 355.887 403.153H356V405H357.676V394.091H356V400.54ZM362.863 390.455H361.186V405H362.863V390.455ZM370.946 405.227C373.162 405.227 374.782 404.119 375.293 402.472L373.674 402.017C373.247 403.153 372.26 403.722 370.946 403.722C368.979 403.722 367.622 402.45 367.544 400.114H375.463V399.403C375.463 395.341 373.049 393.949 370.776 393.949C367.821 393.949 365.861 396.278 365.861 399.631C365.861 402.983 367.793 405.227 370.946 405.227ZM367.544 398.665C367.658 396.967 368.858 395.455 370.776 395.455C372.594 395.455 373.759 396.818 373.759 398.665H367.544ZM384.518 405H386.194V398.182C386.194 396.584 387.359 395.455 388.666 395.455C389.937 395.455 390.825 396.286 390.825 397.528V405H392.529V397.898C392.529 396.491 393.41 395.455 394.944 395.455C396.137 395.455 397.16 396.087 397.16 397.699V405H398.836V397.699C398.836 395.135 397.458 393.949 395.512 393.949C393.95 393.949 392.806 394.666 392.245 395.795H392.132C391.592 394.631 390.64 393.949 389.206 393.949C387.785 393.949 386.734 394.631 386.279 395.795H386.137V394.091H384.518V405ZM406.915 405.227C409.131 405.227 410.75 404.119 411.261 402.472L409.642 402.017C409.216 403.153 408.229 403.722 406.915 403.722C404.947 403.722 403.591 402.45 403.513 400.114H411.432V399.403C411.432 395.341 409.017 393.949 406.744 393.949C403.79 393.949 401.83 396.278 401.83 399.631C401.83 402.983 403.761 405.227 406.915 405.227ZM403.513 398.665C403.626 396.967 404.827 395.455 406.744 395.455C408.563 395.455 409.727 396.818 409.727 398.665H403.513ZM418.995 405.227C421.211 405.227 422.831 404.119 423.342 402.472L421.723 402.017C421.297 403.153 420.309 403.722 418.995 403.722C417.028 403.722 415.672 402.45 415.593 400.114H423.512V399.403C423.512 395.341 421.098 393.949 418.825 393.949C415.87 393.949 413.91 396.278 413.91 399.631C413.91 402.983 415.842 405.227 418.995 405.227ZM415.593 398.665C415.707 396.967 416.907 395.455 418.825 395.455C420.643 395.455 421.808 396.818 421.808 398.665H415.593ZM431.246 394.091H428.917V391.477H427.241V394.091H425.593V395.511H427.241V402.33C427.241 404.233 428.775 405.142 430.195 405.142C430.82 405.142 431.218 405.028 431.445 404.943L431.104 403.438C430.962 403.466 430.735 403.523 430.366 403.523C429.627 403.523 428.917 403.295 428.917 401.875V395.511H431.246V394.091ZM434.208 405H435.884V394.091H434.208V405ZM435.06 392.273C435.713 392.273 436.253 391.761 436.253 391.136C436.253 390.511 435.713 390 435.06 390C434.407 390 433.867 390.511 433.867 391.136C433.867 391.761 434.407 392.273 435.06 392.273ZM441.07 398.438C441.07 396.534 442.249 395.455 443.854 395.455C445.409 395.455 446.354 396.47 446.354 398.182V405H448.03V398.068C448.03 395.284 446.546 393.949 444.337 393.949C442.689 393.949 441.667 394.688 441.155 395.795H441.013V394.091H439.394V405H441.07V398.438ZM455.936 409.318C458.55 409.318 460.652 408.125 460.652 405.312V394.091H459.033V395.824H458.863C458.493 395.256 457.811 393.949 455.681 393.949C452.925 393.949 451.022 396.136 451.022 399.489C451.022 402.898 453.01 404.83 455.652 404.83C457.783 404.83 458.465 403.58 458.834 402.983H458.976V405.199C458.976 407.017 457.698 407.841 455.936 407.841C453.955 407.841 453.259 406.797 452.811 406.193L451.476 407.131C452.158 408.274 453.5 409.318 455.936 409.318ZM455.88 403.324C453.777 403.324 452.698 401.733 452.698 399.46C452.698 397.244 453.749 395.455 455.88 395.455C457.925 395.455 459.005 397.102 459.005 399.46C459.005 401.875 457.897 403.324 455.88 403.324ZM471.888 396.534C471.362 394.986 470.183 393.949 468.024 393.949C465.723 393.949 464.019 395.256 464.019 397.102C464.019 398.608 464.913 399.616 466.916 400.085L468.734 400.511C469.835 400.767 470.354 401.293 470.354 402.045C470.354 402.983 469.359 403.75 467.797 403.75C466.426 403.75 465.567 403.161 465.269 401.989L463.678 402.386C464.068 404.24 465.595 405.227 467.825 405.227C470.361 405.227 472.087 403.842 472.087 401.96C472.087 400.44 471.135 399.482 469.189 399.006L467.57 398.608C466.277 398.288 465.695 397.855 465.695 397.017C465.695 396.08 466.689 395.398 468.024 395.398C469.487 395.398 470.091 396.207 470.382 396.96L471.888 396.534ZM119.993 437H121.641L124.027 428.619H124.198L126.584 437H128.232L131.556 426.091H129.794L127.436 434.415H127.323L125.021 426.091H123.232L120.902 434.443H120.788L118.431 426.091H116.669L119.993 437ZM134.211 437H135.888V426.091H134.211V437ZM135.064 424.273C135.717 424.273 136.257 423.761 136.257 423.136C136.257 422.511 135.717 422 135.064 422C134.41 422 133.871 422.511 133.871 423.136C133.871 423.761 134.41 424.273 135.064 424.273ZM144.142 426.091H141.812V423.477H140.136V426.091H138.488V427.511H140.136V434.33C140.136 436.233 141.67 437.142 143.091 437.142C143.716 437.142 144.113 437.028 144.341 436.943L144 435.438C143.858 435.466 143.63 435.523 143.261 435.523C142.523 435.523 141.812 435.295 141.812 433.875V427.511H144.142V426.091ZM149.014 430.438C149.014 428.534 150.228 427.455 151.883 427.455C153.46 427.455 154.411 428.449 154.411 430.182V437H156.088V430.068C156.088 427.263 154.596 425.949 152.366 425.949C150.647 425.949 149.667 426.666 149.156 427.795H149.014V422.455H147.338V437H149.014V430.438ZM164.026 437.227C166.98 437.227 168.969 434.983 168.969 431.602C168.969 428.193 166.98 425.949 164.026 425.949C161.071 425.949 159.083 428.193 159.083 431.602C159.083 434.983 161.071 437.227 164.026 437.227ZM164.026 435.722C161.781 435.722 160.759 433.79 160.759 431.602C160.759 429.415 161.781 427.455 164.026 427.455C166.27 427.455 167.293 429.415 167.293 431.602C167.293 433.79 166.27 435.722 164.026 435.722ZM178.843 432.54C178.843 434.585 177.28 435.523 176.03 435.523C174.638 435.523 173.644 434.5 173.644 432.909V426.091H171.968V433.023C171.968 435.807 173.445 437.142 175.49 437.142C177.138 437.142 178.218 436.261 178.729 435.153H178.843V437H180.519V426.091H178.843V432.54ZM188.773 426.091H186.443V423.477H184.767V426.091H183.12V427.511H184.767V434.33C184.767 436.233 186.301 437.142 187.722 437.142C188.347 437.142 188.745 437.028 188.972 436.943L188.631 435.438C188.489 435.466 188.262 435.523 187.892 435.523C187.154 435.523 186.443 435.295 186.443 433.875V427.511H188.773V426.091ZM202.544 426.091H200.214V423.477H198.538V426.091H196.89V427.511H198.538V434.33C198.538 436.233 200.072 437.142 201.492 437.142C202.117 437.142 202.515 437.028 202.742 436.943L202.402 435.438C202.259 435.466 202.032 435.523 201.663 435.523C200.924 435.523 200.214 435.295 200.214 433.875V427.511H202.544V426.091ZM207.415 430.438C207.415 428.534 208.63 427.455 210.285 427.455C211.861 427.455 212.813 428.449 212.813 430.182V437H214.489V430.068C214.489 427.263 212.998 425.949 210.768 425.949C209.049 425.949 208.069 426.666 207.557 427.795H207.415V422.455H205.739V437H207.415V430.438ZM222.57 437.227C224.785 437.227 226.405 436.119 226.916 434.472L225.297 434.017C224.871 435.153 223.883 435.722 222.57 435.722C220.602 435.722 219.246 434.45 219.168 432.114H227.087V431.403C227.087 427.341 224.672 425.949 222.399 425.949C219.445 425.949 217.484 428.278 217.484 431.631C217.484 434.983 219.416 437.227 222.57 437.227ZM219.168 430.665C219.281 428.967 220.481 427.455 222.399 427.455C224.217 427.455 225.382 428.818 225.382 430.665H219.168ZM236.369 437H237.988V435.324H238.187C238.556 435.92 239.266 437.227 241.369 437.227C244.096 437.227 245.999 435.04 245.999 431.574C245.999 428.136 244.096 425.949 241.34 425.949C239.209 425.949 238.556 427.256 238.187 427.824H238.045V422.455H236.369V437ZM238.016 431.545C238.016 429.102 239.096 427.455 241.141 427.455C243.272 427.455 244.323 429.244 244.323 431.545C244.323 433.875 243.244 435.722 241.141 435.722C239.124 435.722 238.016 434.017 238.016 431.545ZM252.213 437.256C254.117 437.256 255.111 436.233 255.452 435.523H255.537V437H257.213V429.812C257.213 426.347 254.571 425.949 253.179 425.949C251.532 425.949 249.657 426.517 248.804 428.506L250.395 429.074C250.765 428.278 251.638 427.426 253.236 427.426C254.777 427.426 255.537 428.243 255.537 429.642V429.699C255.537 430.509 254.713 430.438 252.725 430.693C250.701 430.956 248.492 431.403 248.492 433.903C248.492 436.034 250.14 437.256 252.213 437.256ZM252.469 435.75C251.134 435.75 250.168 435.153 250.168 433.989C250.168 432.71 251.333 432.312 252.64 432.142C253.35 432.057 255.253 431.858 255.537 431.517V433.051C255.537 434.415 254.458 435.75 252.469 435.75ZM265.145 437.227C267.559 437.227 269.15 435.75 269.434 433.818H267.758C267.446 435.011 266.451 435.722 265.145 435.722C263.156 435.722 261.877 434.074 261.877 431.545C261.877 429.074 263.184 427.455 265.145 427.455C266.622 427.455 267.502 428.364 267.758 429.358H269.434C269.15 427.312 267.417 425.949 265.116 425.949C262.162 425.949 260.201 428.278 260.201 431.602C260.201 434.869 262.076 437.227 265.145 437.227ZM272.325 437H274.001V432.916L275.173 431.83L279.256 437H281.387L276.437 430.75L281.046 426.091H278.972L274.2 430.949H274.001V422.455H272.325V437ZM288.975 429.983H282.612V431.545H288.975V429.983ZM295.575 437.256C297.478 437.256 298.473 436.233 298.814 435.523H298.899V437H300.575V429.812C300.575 426.347 297.933 425.949 296.541 425.949C294.893 425.949 293.018 426.517 292.166 428.506L293.757 429.074C294.126 428.278 295 427.426 296.598 427.426C298.139 427.426 298.899 428.243 298.899 429.642V429.699C298.899 430.509 298.075 430.438 296.086 430.693C294.062 430.956 291.853 431.403 291.853 433.903C291.853 436.034 293.501 437.256 295.575 437.256ZM295.831 435.75C294.495 435.75 293.529 435.153 293.529 433.989C293.529 432.71 294.694 432.312 296.001 432.142C296.711 432.057 298.615 431.858 298.899 431.517V433.051C298.899 434.415 297.819 435.75 295.831 435.75ZM305.75 430.438C305.75 428.534 306.929 427.455 308.534 427.455C310.09 427.455 311.034 428.47 311.034 430.182V437H312.711V430.068C312.711 427.284 311.226 425.949 309.017 425.949C307.37 425.949 306.347 426.688 305.836 427.795H305.694V426.091H304.074V437H305.75V430.438ZM320.333 437.227C322.435 437.227 323.145 435.92 323.515 435.324H323.713V437H325.333V422.455H323.657V427.824H323.515C323.145 427.256 322.492 425.949 320.361 425.949C317.606 425.949 315.702 428.136 315.702 431.574C315.702 435.04 317.606 437.227 320.333 437.227ZM320.56 435.722C318.458 435.722 317.378 433.875 317.378 431.545C317.378 429.244 318.429 427.455 320.56 427.455C322.606 427.455 323.685 429.102 323.685 431.545C323.685 434.017 322.577 435.722 320.56 435.722ZM335.325 429.983H328.962V431.545H335.325V429.983ZM343.573 426.091H341.129V424.983C341.129 423.903 341.584 423.335 342.692 423.335C343.175 423.335 343.459 423.449 343.629 423.506L344.112 422.057C343.857 421.943 343.345 421.773 342.521 421.773C340.959 421.773 339.453 422.71 339.453 424.585V426.091H337.692V427.511H339.453V437H341.129V427.511H343.573V426.091ZM350.344 437.227C353.299 437.227 355.287 434.983 355.287 431.602C355.287 428.193 353.299 425.949 350.344 425.949C347.39 425.949 345.401 428.193 345.401 431.602C345.401 434.983 347.39 437.227 350.344 437.227ZM350.344 435.722C348.1 435.722 347.077 433.79 347.077 431.602C347.077 429.415 348.1 427.455 350.344 427.455C352.589 427.455 353.611 429.415 353.611 431.602C353.611 433.79 352.589 435.722 350.344 435.722ZM358.286 437H359.962V430.097C359.962 428.619 361.127 427.54 362.718 427.54C363.165 427.54 363.627 427.625 363.741 427.653V425.949C363.549 425.935 363.108 425.92 362.86 425.92C361.553 425.92 360.417 426.659 360.019 427.739H359.905V426.091H358.286V437ZM371.595 426.091H369.266V423.477H367.59V426.091H365.942V427.511H367.59V434.33C367.59 436.233 369.124 437.142 370.544 437.142C371.169 437.142 371.567 437.028 371.794 436.943L371.453 435.438C371.311 435.466 371.084 435.523 370.715 435.523C369.976 435.523 369.266 435.295 369.266 433.875V427.511H371.595V426.091ZM376.467 430.438C376.467 428.534 377.682 427.455 379.336 427.455C380.913 427.455 381.865 428.449 381.865 430.182V437H383.541V430.068C383.541 427.263 382.05 425.949 379.819 425.949C378.101 425.949 377.121 426.666 376.609 427.795H376.467V422.455H374.791V437H376.467V430.438ZM397.686 437.227C399.902 437.227 401.521 436.119 402.033 434.472L400.414 434.017C399.987 435.153 399 435.722 397.686 435.722C395.719 435.722 394.362 434.45 394.284 432.114H402.203V431.403C402.203 427.341 399.789 425.949 397.516 425.949C394.561 425.949 392.601 428.278 392.601 431.631C392.601 434.983 394.533 437.227 397.686 437.227ZM394.284 430.665C394.398 428.967 395.598 427.455 397.516 427.455C399.334 427.455 400.499 428.818 400.499 430.665H394.284ZM405.193 437H406.869V430.182C406.869 428.584 408.034 427.455 409.341 427.455C410.612 427.455 411.5 428.286 411.5 429.528V437H413.204V429.898C413.204 428.491 414.085 427.455 415.619 427.455C416.812 427.455 417.835 428.087 417.835 429.699V437H419.511V429.699C419.511 427.135 418.133 425.949 416.187 425.949C414.625 425.949 413.481 426.666 412.92 427.795H412.807C412.267 426.631 411.315 425.949 409.881 425.949C408.46 425.949 407.409 426.631 406.954 427.795H406.812V426.091H405.193V437ZM426.226 437.256C428.129 437.256 429.124 436.233 429.465 435.523H429.55V437H431.226V429.812C431.226 426.347 428.584 425.949 427.192 425.949C425.544 425.949 423.669 426.517 422.817 428.506L424.408 429.074C424.777 428.278 425.651 427.426 427.249 427.426C428.79 427.426 429.55 428.243 429.55 429.642V429.699C429.55 430.509 428.726 430.438 426.737 430.693C424.713 430.956 422.504 431.403 422.504 433.903C422.504 436.034 424.152 437.256 426.226 437.256ZM426.482 435.75C425.147 435.75 424.181 435.153 424.181 433.989C424.181 432.71 425.345 432.312 426.652 432.142C427.362 432.057 429.266 431.858 429.55 431.517V433.051C429.55 434.415 428.47 435.75 426.482 435.75ZM434.725 437H436.402V426.091H434.725V437ZM435.578 424.273C436.231 424.273 436.771 423.761 436.771 423.136C436.771 422.511 436.231 422 435.578 422C434.924 422 434.384 422.511 434.384 423.136C434.384 423.761 434.924 424.273 435.578 424.273ZM441.588 422.455H439.911V437H441.588V422.455ZM452.825 428.534C452.299 426.986 451.12 425.949 448.961 425.949C446.66 425.949 444.955 427.256 444.955 429.102C444.955 430.608 445.85 431.616 447.853 432.085L449.671 432.511C450.772 432.767 451.291 433.293 451.291 434.045C451.291 434.983 450.296 435.75 448.734 435.75C447.363 435.75 446.504 435.161 446.205 433.989L444.615 434.386C445.005 436.24 446.532 437.227 448.762 437.227C451.298 437.227 453.024 435.842 453.024 433.96C453.024 432.44 452.072 431.482 450.126 431.006L448.507 430.608C447.214 430.288 446.632 429.855 446.632 429.017C446.632 428.08 447.626 427.398 448.961 427.398C450.424 427.398 451.028 428.207 451.319 428.96L452.825 428.534Z" fill="white"/>
<defs>
<clipPath id="clip0">
<rect width="402" height="402" fill="white" transform="translate(88)"/>
</clipPath>
</defs>
</svg>
