<svg width="24" height="24" viewBox="0 0 24 24" fill="none" xmlns="http://www.w3.org/2000/svg">
<path d="M7.44444 11.8889C6.95352 11.8889 6.55556 11.4909 6.55556 11C6.55556 10.5091 6.95352 10.1111 7.44444 10.1111C7.93536 10.1111 8.33333 10.5091 8.33333 11C8.33333 11.4909 7.93536 11.8889 7.44444 11.8889Z" fill="#281AC8"/>
<path d="M7.44444 15.4444C6.95352 15.4444 6.55556 15.0465 6.55556 14.5556C6.55556 14.0646 6.95352 13.6667 7.44444 13.6667C7.93536 13.6667 8.33333 14.0646 8.33333 14.5556C8.33333 15.0465 7.93536 15.4444 7.44444 15.4444Z" fill="#281AC8"/>
<path d="M10.1111 14.5556C10.1111 15.0465 10.5091 15.4444 11 15.4444C11.4909 15.4444 11.8889 15.0465 11.8889 14.5556C11.8889 14.0646 11.4909 13.6667 11 13.6667C10.5091 13.6667 10.1111 14.0646 10.1111 14.5556Z" fill="#281AC8"/>
<path d="M14.5556 15.4444C14.0646 15.4444 13.6667 15.0465 13.6667 14.5556C13.6667 14.0646 14.0646 13.6667 14.5556 13.6667C15.0465 13.6667 15.4444 14.0646 15.4444 14.5556C15.4444 15.0465 15.0465 15.4444 14.5556 15.4444Z" fill="#281AC8"/>
<path d="M10.1111 11C10.1111 11.4909 10.5091 11.8889 11 11.8889C11.4909 11.8889 11.8889 11.4909 11.8889 11C11.8889 10.5091 11.4909 10.1111 11 10.1111C10.5091 10.1111 10.1111 10.5091 10.1111 11Z" fill="#281AC8"/>
<path d="M14.5556 11.8889C14.0646 11.8889 13.6667 11.4909 13.6667 11C13.6667 10.5091 14.0646 10.1111 14.5556 10.1111C15.0465 10.1111 15.4444 10.5091 15.4444 11C15.4444 11.4909 15.0465 11.8889 14.5556 11.8889Z" fill="#281AC8"/>
<path d="M7.44444 6.55556C6.95352 6.55556 6.55556 6.95352 6.55556 7.44444C6.55556 7.93536 6.95352 8.33333 7.44444 8.33333H14.5556C15.0465 8.33333 15.4444 7.93536 15.4444 7.44444C15.4444 6.95352 15.0465 6.55556 14.5556 6.55556H7.44444Z" fill="#281AC8"/>
<path fill-rule="evenodd" clip-rule="evenodd" d="M5.66667 3C4.19391 3 3 4.19391 3 5.66667V16.3333C3 17.8061 4.19391 19 5.66667 19H16.3333C17.8061 19 19 17.8061 19 16.3333V5.66667C19 4.19391 17.8061 3 16.3333 3H5.66667ZM16.3333 4.77778H5.66667C5.17575 4.77778 4.77778 5.17575 4.77778 5.66667V16.3333C4.77778 16.8243 5.17575 17.2222 5.66667 17.2222H16.3333C16.8243 17.2222 17.2222 16.8243 17.2222 16.3333V5.66667C17.2222 5.17575 16.8243 4.77778 16.3333 4.77778Z" fill="#281AC8"/>
</svg>
