<svg width="36" height="36" viewBox="0 0 49 49" fill="none" xmlns="http://www.w3.org/2000/svg">
<rect x="1.06445" y="0.652344" width="47" height="47" rx="23.5" fill="white" stroke="#281AC8"/>
<path fill-rule="evenodd" clip-rule="evenodd" d="M17.3608 16.2822C16.67 17.0268 16.0834 17.8503 15.6667 18.7923C16.1437 19.1692 16.6207 19.5473 17.0973 19.925C17.6832 20.3894 18.2685 20.8533 18.8521 21.3137C18.9014 21.3532 18.9562 21.387 19.011 21.4208C19.3729 20.3999 19.9266 19.5087 20.7051 18.7641C22.9694 16.5981 26.4507 16.5756 28.5834 18.5836C28.7191 18.7132 28.7819 18.6446 28.8552 18.5646L28.8553 18.5646L28.8553 18.5646C28.8649 18.554 28.8748 18.5433 28.8849 18.5329C29.2036 18.2071 29.5208 17.8805 29.8378 17.5541C30.3662 17.01 30.8943 16.4662 31.4288 15.9269C31.5988 15.7577 31.5604 15.6787 31.4069 15.5433C28.9836 13.3999 26.1821 12.6384 23.0516 13.1517C20.8148 13.5183 18.9233 14.6013 17.3608 16.2822ZM20.2389 27.7272C19.6742 27.0842 19.296 26.334 18.9889 25.533C18.4325 25.9758 17.8774 26.42 17.3223 26.8642L17.3211 26.8652C16.7664 27.309 16.2117 27.7529 15.6556 28.1954C16.2971 29.5661 17.2017 30.7224 18.3585 31.6587C21.149 33.9263 24.296 34.4903 27.7006 33.5991C29.1479 33.2212 30.4308 32.5161 31.5218 31.45C30.535 30.6603 29.5482 29.8706 28.5613 29.0753C28.5117 29.0345 28.4641 28.9895 28.416 28.9442C28.3845 28.9144 28.3527 28.8844 28.3201 28.8553C27.4758 29.3856 26.5767 29.7296 25.5843 29.8368C23.4517 30.0624 21.6753 29.3574 20.2389 27.7272ZM31.5274 31.4498C31.034 31.055 30.5405 30.6587 30.0471 30.2624C29.5537 29.8662 29.0603 29.4699 28.5669 29.0751C28.4971 29.0213 28.4343 28.9603 28.3729 28.9007L28.3727 28.9005C28.3569 28.8852 28.3413 28.8701 28.3256 28.8551C28.9945 28.3305 29.5537 27.7101 29.921 26.9204C30.069 26.6045 30.1677 26.2774 30.2664 25.9446C30.3322 25.7133 30.3103 25.623 30.0362 25.6287C28.8613 25.6408 27.6865 25.6385 26.5116 25.6362C26.0417 25.6352 25.5718 25.6343 25.1019 25.6343C24.7511 25.6343 24.7511 25.6343 24.7511 25.262C24.7511 24.9759 24.7514 24.6895 24.7517 24.4028V24.4023C24.7528 23.542 24.7538 22.68 24.7456 21.8213C24.7456 21.6013 24.784 21.5167 25.0252 21.5167C27.2986 21.5251 29.572 21.5241 31.8454 21.523H31.8467C32.6047 21.5227 33.3626 21.5223 34.1206 21.5223C34.2851 21.5223 34.3892 21.5336 34.4166 21.7367C34.7949 24.4667 34.4934 27.0727 33.1008 29.4812C32.6787 30.2201 32.1688 30.8914 31.5274 31.4498ZM17.3223 26.8641C17.8774 26.4199 18.4325 25.9757 18.989 25.5328C18.5888 24.1622 18.5669 22.7915 19.011 21.4265L19.0109 21.4265C18.9561 21.3926 18.9013 21.3588 18.852 21.3193C18.3202 20.8991 17.7883 20.4774 17.2565 20.0558C16.7247 19.6341 16.193 19.2125 15.6612 18.7923C15.6435 18.8267 15.6243 18.8612 15.6051 18.8958C15.5707 18.9578 15.5358 19.0205 15.5077 19.0856C14.6798 20.9301 14.4002 22.8648 14.6524 24.8785C14.8004 26.0405 15.1129 27.1573 15.6557 28.1952C16.2121 27.7524 16.7672 27.3083 17.3223 26.8641Z" fill="#281AC8"/>
</svg>
