<svg width="36" height="36" viewBox="0 0 49 49" fill="none" xmlns="http://www.w3.org/2000/svg">
<path d="M48.0644 24.1523C48.0644 11.1737 37.5431 0.652344 24.5644 0.652344C11.5858 0.652344 1.06445 11.1737 1.06445 24.1523C1.06445 37.131 11.5858 47.6523 24.5644 47.6523C37.5431 47.6523 48.0644 37.131 48.0644 24.1523Z" fill="white" stroke="#281AC8"/>
<path d="M12 15C12 13.3555 13.3555 12 15 12C16.6445 12 18 13.3555 18 15C18 16.6445 16.6445 18 15 18C13.3555 18 12 16.6445 12 15Z" fill="#281AC8"/>
<path d="M12 20C12 19.4492 12.4492 19 13 19H17C17.5508 19 18 19.4492 18 20V35C18 35.5508 17.5508 36 17 36H13C12.4492 36 12 35.5508 12 35V20Z" fill="#281AC8"/>
<path d="M20 20C20 19.4492 20.4492 19 21 19H25C25.5469 19 25.9961 19.4414 26 19.9883C27.0586 19.418 28.2148 19 29.5 19C33.6289 19 37 22.3711 37 26.5V35C37 35.5508 36.5508 36 36 36H32C31.4492 36 31 35.5508 31 35V27.5C31 26.1211 29.8789 25 28.5 25C27.1211 25 26 26.1211 26 27.5V35C26 35.5508 25.5508 36 25 36H21C20.4492 36 20 35.5508 20 35V20Z" fill="#281AC8"/>
</svg>
