<svg width="968" height="570" viewBox="0 0 968 570" fill="none" xmlns="http://www.w3.org/2000/svg">
	<path d="M979 0H20V556H979V0Z" fill="#281AC8"/>
	<path fill-rule="evenodd" clip-rule="evenodd" d="M369.651 358.686C367.384 359.62 365.445 361.206 364.081 363.244C362.718 365.282 361.99 367.679 361.991 370.131V406.322H325.432V369.887C325.433 366.614 326.733 363.475 329.048 361.16C331.363 358.846 334.502 357.545 337.775 357.544H369.651V358.686Z" fill="white"/>
	<path fill-rule="evenodd" clip-rule="evenodd" d="M364.831 364.184C362.723 368.204 363.31 368.882 363.491 381.143C363.508 383.247 363.615 406.153 363.446 406.801C363.357 407.072 363.195 407.312 362.977 407.496C362.238 408.022 365.456 407.853 325.437 407.853C325.074 407.851 324.722 407.719 324.446 407.483C324.169 407.247 323.985 406.92 323.926 406.562C323.899 406.228 323.88 369.754 323.943 368.822C324.152 366.263 325.07 363.813 326.592 361.746C328.115 359.679 330.183 358.077 332.565 357.118C336.058 355.778 336.608 356.129 354.363 356.332C371.039 356.57 369.754 356.499 370.149 356.691C370.298 356.777 370.421 356.902 370.504 357.052C370.588 357.202 370.63 357.372 370.625 357.544C370.61 358.839 370.617 358.616 370.599 358.845C370.572 359.004 370.505 359.154 370.405 359.28C370.305 359.406 370.174 359.505 370.026 359.568L370.014 359.553C367.842 360.513 366.028 362.133 364.831 364.184ZM353.599 358.52V358.758L337.775 358.942C335.275 358.972 332.861 359.858 330.935 361.452C329.009 363.046 327.687 365.252 327.189 367.702C326.913 369.176 326.966 366.108 326.966 404.785H360.466C360.466 369.284 360.449 367.77 361.836 364.93C363.05 362.195 365.135 359.938 367.767 358.513L353.599 358.52Z" fill="white"/>
	<path fill-rule="evenodd" clip-rule="evenodd" d="M564.858 173.869L565.419 174.295C565.687 175.721 565.535 174.151 564.907 179.197C564.388 182.566 564.074 188.405 564.031 188.912C563.361 200.823 565.125 213.723 575.979 218.773C578.979 220.05 579.669 219.648 580.465 220.47C580.95 221.218 580.752 220.801 580.835 225.711C580.835 232.253 581.304 243.935 581.286 244.488C581.258 244.748 581.14 244.989 580.953 245.171C580.766 245.353 580.521 245.464 580.261 245.485C578.753 245.631 577.257 245.877 575.782 246.222L575.053 246.07L574.633 245.475V245.464L574.775 244.752L575.386 244.32C576.592 244.03 577.707 243.67 578.972 243.422C578.972 243.266 577.688 232.24 577.688 222.665C571.704 221.089 566.934 217.152 563.913 210.491C562.33 206.882 561.368 203.031 561.068 199.101C560.556 194.003 560.706 188.86 561.513 183.8C562.018 180.676 562.748 177.594 563.697 174.575L564.154 173.996L564.844 173.876L564.858 173.869Z" fill="white"/>
	<path fill-rule="evenodd" clip-rule="evenodd" d="M614.432 181.447C616.445 182.025 618.228 183.215 619.534 184.852C620.84 186.489 621.605 188.492 621.721 190.583C621.739 191.052 621.724 191.521 621.678 191.987C621.521 193.476 621.031 194.91 620.245 196.184C617.317 200.488 613.193 201.935 608.063 202.702C606.514 208.172 604.55 213.515 602.189 218.687C602.351 226.16 602.229 231.212 602.689 240.569C604.046 240.731 605.337 240.959 606.663 241.22C608.291 241.547 607.892 241.409 608.662 241.916L608.835 242.625C608.825 242.639 608.433 243.226 608.433 243.242C607.953 243.443 607.416 243.466 606.92 243.305C601.386 242.55 601.56 243.048 600.823 242.539C600.373 242.111 600.373 242.351 599.639 233.671C599.071 225.241 599.195 223.901 599.083 218.998C598.974 218.414 599.084 217.81 599.392 217.303C601.815 212.064 603.778 206.625 605.26 201.047C605.662 199.356 606.734 199.892 609.618 199.293C612.297 198.837 614.777 197.584 616.733 195.696C617.41 194.953 617.922 194.074 618.235 193.118C618.548 192.163 618.655 191.151 618.549 190.151C618.443 189.151 618.126 188.185 617.62 187.316C617.113 186.447 616.428 185.695 615.61 185.11C614.371 184.162 612.928 183.515 611.395 183.221C610.131 182.947 608.848 182.775 607.557 182.705L606.887 182.393L606.619 181.746V181.735L606.908 181.092L607.578 180.794C609.884 180.614 612.203 180.835 614.432 181.447ZM599.516 217.157L599.466 217.218L599.449 217.234L599.541 217.136L599.516 217.157ZM599.65 217.035C599.495 217.169 599.601 217.077 599.754 216.956L599.65 217.035Z" fill="white"/>
	<path fill-rule="evenodd" clip-rule="evenodd" d="M573.911 180.237L574.399 180.663L574.572 181.407C574.572 186.537 573.183 187.181 573.485 196.916C577.762 196.88 576.846 196.688 578.041 197.091L578.404 197.686V197.696L578.195 198.366L577.54 198.78C575.809 199.262 574.052 199.64 572.276 199.911C571.871 199.975 571.457 199.879 571.122 199.643C570.917 199.483 570.752 199.278 570.641 199.042C570.056 197.256 570.239 188.265 571.4 184.034C571.4 183.924 572.054 182.319 572.054 182.308C572.109 182.199 572.67 181.022 572.738 180.909L573.274 180.361L573.904 180.248L573.911 180.237Z" fill="white"/>
	<path fill-rule="evenodd" clip-rule="evenodd" d="M591.41 199.616C591.832 200.26 591.935 200.136 592.156 202.19C592.345 204.247 591.735 206.297 590.453 207.916C589.568 209.135 588.284 210.005 586.825 210.376C585.627 210.657 584.375 210.598 583.21 210.205C582.044 209.813 581.012 209.103 580.228 208.156C579.838 207.614 579.536 207.014 579.333 206.378C579.333 205.41 579.199 205.788 579.653 205.067C581.855 205.603 580.295 205.19 582.474 206.387C583.213 206.893 584.049 207.24 584.93 207.407C585.63 207.457 586.33 207.299 586.941 206.953C587.551 206.606 588.046 206.087 588.362 205.46C589.198 204.004 589.719 202.39 589.892 200.72C589.909 200.415 589.856 200.626 590.169 199.765L590.749 199.403L591.41 199.616Z" fill="white"/>
	<path fill-rule="evenodd" clip-rule="evenodd" d="M590.684 172.892C591.451 173.42 592.129 174.066 592.694 174.807C593.066 175.204 593.304 175.71 593.372 176.25L593.132 176.873L593.118 176.88L592.49 177.072C592.038 176.976 591.614 176.78 591.249 176.498C590.451 176.049 589.617 175.667 588.755 175.358C588.09 175.02 587.364 174.819 586.62 174.767C585.876 174.714 585.129 174.811 584.423 175.051C584.232 175.127 584.047 175.216 583.868 175.319C583.724 175.403 583.586 175.497 583.454 175.6C583.454 175.6 582.558 176.068 582.337 176.198C581.514 176.619 582.483 176.38 580.505 176.801C580.237 175.535 580.051 175.515 580.671 174.294C581.014 173.582 581.578 173.001 582.279 172.638C582.593 172.452 582.921 172.291 583.26 172.157C584.473 171.715 585.771 171.551 587.056 171.679C588.341 171.806 589.581 172.221 590.684 172.892Z" fill="white"/>
	<path d="M586.593 189.159C588.157 189.159 589.426 187.501 589.426 185.456C589.426 183.412 588.157 181.754 586.593 181.754C585.028 181.754 583.76 183.412 583.76 185.456C583.76 187.501 585.028 189.159 586.593 189.159Z" fill="white"/>
	<path fill-rule="evenodd" clip-rule="evenodd" d="M613.52 182.959C615.507 171.683 616.846 156.768 605.133 150.31C600.486 147.744 595.265 147.071 590.259 145.531C586.737 138.317 579.204 127.065 571.467 124.974C566.959 123.842 562.212 124.136 557.879 125.817C553.546 127.497 549.841 130.48 547.274 134.354C540.623 144.219 542.182 158.444 553.779 163.647C562.797 167.691 575.826 166.394 585.593 164.474C588.599 163.883 591.437 166.328 594.362 167.221C595.899 174.645 600.392 179.708 607.706 181.541C609.785 182.062 613.52 182.959 613.52 182.959Z" fill="white"/>
	<path fill-rule="evenodd" clip-rule="evenodd" d="M571.763 123.439C580.041 125.662 587.48 136.537 591.358 144.233C597.405 145.905 602.823 146.744 607.582 149.995C617.959 157.441 616.807 170.631 614.47 183.126C614.317 183.099 612.408 182.764 614.482 183.126C614.45 183.309 614.366 183.479 614.24 183.616C614.114 183.753 613.952 183.851 613.772 183.898C613.417 183.961 613.89 184.044 609.248 182.978C606.556 182.518 603.969 181.577 601.61 180.2C596.983 177.304 594.642 173.401 593.267 168.223C591.029 167.419 588.776 165.868 586.774 165.768C585.104 165.694 562.061 172.113 549.283 162.793C538.898 154.753 540.12 139.449 547.981 130.916C550.869 127.596 554.619 125.141 558.817 123.821C563.014 122.502 567.495 122.369 571.763 123.439ZM561.177 126.387C547.098 130.049 541.637 145.46 546.809 155.132C551.42 164.862 566.136 165.492 576.864 164.378C585.194 163.458 585.227 162.734 587.622 163.093C590.224 163.554 592.055 164.997 594.626 165.942C596.174 166.422 595.162 167.258 597.125 171.655C597.754 173.03 598.57 174.312 599.551 175.464C603.179 179.7 607.725 180.496 612.739 181.755C612.739 180.639 615.336 168.499 611.702 159.877C610.737 157.448 609.192 155.292 607.203 153.597C602.623 149.68 596.121 148.887 590.287 147.165C588.37 146.584 589.635 146.846 585.597 140.331C582.365 135.315 576.978 128.256 571.259 126.538C567.97 125.611 564.495 125.56 561.18 126.392L561.177 126.387Z" fill="white"/>
	<path fill-rule="evenodd" clip-rule="evenodd" d="M584.051 320.276C584.051 320.276 583.89 332.082 583.594 337.454C596.739 339.793 609.698 342.972 622.82 345.44C626.572 346.145 630.269 348.075 634.058 347.569C654.256 344.868 674.751 344.82 695.105 343.887C695.896 343.848 696.67 343.64 697.375 343.277C698.079 342.914 698.698 342.404 699.189 341.782C699.68 341.16 700.032 340.44 700.222 339.671C700.412 338.901 700.435 338.1 700.289 337.321C697.537 322.597 693.84 308.129 686.779 294.719C672.95 268.455 646.209 248.452 616.678 243.652C616.257 243.586 615.825 243.635 615.43 243.795C615.034 243.955 614.689 244.219 614.433 244.56C608.261 252.685 599.127 260.774 588.951 262.612C582.921 263.699 572.85 262.805 570.029 256.215C569.009 253.479 568.826 250.501 569.505 247.66C569.579 247.269 569.552 246.866 569.428 246.488C569.303 246.11 569.085 245.77 568.793 245.499C568.502 245.228 568.146 245.036 567.76 244.94C567.374 244.844 566.97 244.847 566.585 244.95C549.969 249.467 534.291 256.164 520.269 266.478C515.283 270.147 509.753 274.17 505.729 278.921C507.428 280.331 508.741 282.15 509.542 284.207C510.343 286.265 510.607 288.492 510.309 290.68C513.098 293.637 514.499 297.537 512.894 301.452C519.239 311.848 506.194 320.637 498.348 325.119C505.075 338.129 521.065 362.316 521.324 362.97C521.399 363.16 523.443 405.125 523.51 405.18C523.524 405.193 523.54 405.202 523.558 405.207C523.576 405.213 523.595 405.215 523.614 405.212C535.698 403.989 547.904 405.472 560.043 405.228C577.583 404.875 595.721 404.167 613.291 404.135C613.326 404.139 613.362 404.129 613.39 404.107C613.418 404.084 613.436 404.052 613.44 404.016C613.444 403.981 613.434 403.945 613.412 403.917C613.39 403.889 613.357 403.871 613.322 403.867C601.232 400.658 584.427 395.26 574.892 387.555C565.914 391.016 555.126 389.372 546.399 385.78C540.055 383.169 535.241 376.327 544.905 374.131C540.684 370.447 536.013 363.3 544.195 361.432C539.481 357.523 532.52 347.244 542.881 345.427C541.675 338.459 539.919 331.339 538.031 324.509C524.508 323.248 525.415 314.529 530.393 312.449C537.656 309.416 548.172 311.235 555.972 311.206C555.276 307.249 554.622 303.257 554.22 299.257C554.086 297.908 553.665 295.823 554.596 294.646C556.578 292.142 561.076 291.709 563.903 290.894C571.951 288.588 580.837 284.693 589.391 285.511C592.958 285.853 596.389 288.56 593.081 291.901C591.131 293.868 587.917 294.54 585.368 295.326C582.713 296.143 580.134 297.202 577.474 298.019C573.364 299.289 569.186 300.127 564.996 301.086C565.153 304.178 565.499 307.257 566.032 310.307C572.564 310 579.111 310.269 585.596 311.111C588.335 311.23 591.044 311.724 593.649 312.578C596.432 313.753 597.55 317.15 594.44 318.742C591.394 320.302 587.438 320.279 584.051 320.276Z" fill="#FF7979"/>
	<path fill-rule="evenodd" clip-rule="evenodd" d="M583.638 339.492C587.404 339.45 591.166 339.751 594.877 340.394C609.019 342.685 631.764 348.45 636.114 349.385C636.114 348.109 636.019 348.581 636.36 347.651L637.002 347.32H637.016L637.694 347.563C638.171 348.479 637.999 347.981 638.156 349.317C638.26 350.639 638.444 351.327 637.533 351.75C637.16 351.853 637.399 351.863 634.794 351.512C619.317 349.346 608.198 345.444 591.809 343.079C590.112 342.834 585.384 341.925 582.176 341.44C581.885 341.397 582.051 341.46 581.306 341.046L581.071 340.394V340.383L581.392 339.768C582.256 339.432 581.762 339.487 583.638 339.492Z" fill="white"/>
	<path fill-rule="evenodd" clip-rule="evenodd" d="M638.042 349.013C638.593 349.044 642.426 349.941 643.338 350.167C644.386 350.377 645.397 350.744 646.337 351.255C646.973 351.504 647.549 351.885 648.028 352.372L648.213 353.007V353.018L647.744 353.486L646.874 353.668C643.406 353.668 643.457 353.281 638.487 352.26C637.647 352.174 636.847 351.86 636.173 351.354C635.745 351.086 635.976 351.327 635.067 350.05C636.339 349.149 636.056 349.289 636.549 349.184C637.037 349.064 637.539 349.006 638.042 349.013Z" fill="white"/>
	<path fill-rule="evenodd" clip-rule="evenodd" d="M695.654 347.304C696.115 348.202 695.978 347.486 696.198 351.056C696.375 355.036 696.135 359.024 695.481 362.954C693.841 372.868 689.154 382.025 682.07 389.152C672.032 399.567 657.672 404.86 643.344 405.559C628.377 406.229 616.224 402.239 602.502 396.3C593.582 392.425 583.887 388.241 576.614 382.143C573.147 383.384 569.544 384.203 565.882 384.582C558.053 385.329 549.71 384.172 543.961 378.954H543.954L543.634 378.297L543.843 377.614C543.861 377.602 544.476 377.295 544.497 377.285C545.282 377.524 545.142 377.449 545.392 377.658C546.131 378.24 546.916 378.764 547.737 379.224C556.133 383.699 566.793 382.372 575.7 379.167C578.939 377.954 576.09 379.784 590.129 387.169C597.476 390.896 611.249 397.054 620.997 399.809C659.197 410.278 691.438 389.302 694.061 355.659C694.463 348.005 693.724 349.093 694.302 347.413L694.956 347.079L695.654 347.304Z" fill="white"/>
	<path fill-rule="evenodd" clip-rule="evenodd" d="M543.005 349.973C543.71 350.398 545.283 351.126 545.886 351.455C546.453 351.761 546.288 351.691 546.868 352.026C549.135 353.332 551.625 354.202 554.212 354.591C556.629 354.907 559.081 354.836 561.476 354.383C563.139 354.013 562.082 354.056 563.413 354.07L563.949 354.516L563.956 354.525V355.222C563.702 355.664 563.307 356.008 562.833 356.198C561.362 357.017 559.75 357.553 558.082 357.779C553.809 358.066 549.545 357.101 545.813 355.002C544.694 354.465 543.692 353.713 542.865 352.787C542.463 352.36 541.838 351.56 541.728 351.396L541.476 350.674L541.655 350.055V350.047L542.252 349.807L543.005 349.973Z" fill="white"/>
	<path fill-rule="evenodd" clip-rule="evenodd" d="M544.825 365.303C550.556 366.213 551.28 367.447 558.73 366.643C560.307 366.496 561.874 366.251 563.42 365.907L564.199 365.973L564.692 366.449V366.458L564.648 367.148C564.12 367.72 564.347 367.656 562.655 368.467C560.918 369.308 559.037 369.811 557.113 369.951C555.036 370.127 552.946 370.055 550.886 369.736C548.372 369.573 545.971 368.631 544.017 367.041L543.56 366.417L543.541 365.781V365.772L544.034 365.37L544.801 365.3L544.825 365.303Z" fill="white"/>
	<path fill-rule="evenodd" clip-rule="evenodd" d="M582.916 328.446H582.928L583.33 329.042C583.334 329.508 583.182 329.961 582.897 330.329C580.243 334.179 576.455 337.107 572.06 338.704C565.705 341.303 559.049 343.007 552.219 342.288C549.885 341.95 547.639 341.158 545.61 339.955C545.368 339.821 545.495 339.939 544.94 339.26V338.574L545.452 338.128C546.256 338.1 546.109 338.075 546.256 338.12C548.246 338.693 550.292 339.047 552.358 339.174C557.667 339.599 562.822 339.121 570.842 335.836C574.217 334.525 577.356 332.675 580.137 330.357C582.215 328.238 581.108 329.032 582.21 328.33L582.916 328.446Z" fill="white"/>
	<path fill-rule="evenodd" clip-rule="evenodd" d="M447.317 304.773H447.329L447.805 305.309L447.793 306.04C443.031 318.718 441.332 332.342 442.835 345.801C443.406 350.635 444.672 355.362 446.593 359.835C450.919 369.721 458.69 375.474 469.477 376.964C483.6 378.913 502.938 372.542 514.732 361.629C516.127 360.336 515.536 360.7 516.503 360.297L517.189 360.565L517.473 361.235L517.205 361.932C502.575 377.267 474.932 386.31 456.824 376.061C435.528 363.934 435.384 326.213 446.055 305.226C446.064 305.219 446.601 304.746 446.61 304.738L447.317 304.773Z" fill="white"/>
	<path fill-rule="evenodd" clip-rule="evenodd" d="M505.101 312.018V312.026L505.335 312.661L505.095 313.369C503.917 314.898 502.59 316.306 501.133 317.572C499.626 318.762 498.005 319.8 496.294 320.67C495.82 320.91 496.222 320.721 495.183 321.22C491.489 322.892 491.822 322.34 491.875 322.816C493.097 331.11 493.489 330.254 494.98 339.525C495.548 343.496 495.516 342.765 495.294 343.738L494.707 344.151H494.695L493.999 343.99L493.56 343.366C492.365 338.751 489.62 331.263 488.602 321.63C488.566 320.098 489.646 320.012 490.941 319.583C492.29 319.124 493.602 318.563 494.867 317.906C497.87 316.173 500.765 314.259 503.537 312.176C503.817 311.959 503.624 312.053 504.463 311.774L505.101 312.018Z" fill="white"/>
	<path fill-rule="evenodd" clip-rule="evenodd" d="M498.836 288.882H498.848L499.139 289.51L498.947 290.258C497.623 292.408 495.919 294.299 493.917 295.838C491.518 297.679 488.92 299.247 486.172 300.51C484.802 301.234 483.296 301.663 481.75 301.771C481.221 301.889 480.669 301.855 480.158 301.673L479.725 301.2C479.725 301.186 479.827 300.577 479.83 300.562L480.366 300.012C480.4 299.998 482.488 298.783 482.575 298.737C485.073 297.666 487.483 296.4 489.783 294.953C491.455 293.858 495.679 290.583 497.102 289.325C497.574 288.904 497.313 289.071 498.165 288.691L498.836 288.882Z" fill="white"/>
	<path fill-rule="evenodd" clip-rule="evenodd" d="M502.051 299.369V299.377L502.347 300.002L502.167 300.754C500.902 302.895 499.305 304.821 497.434 306.461C495.172 308.431 492.625 310.049 489.881 311.261C488.459 311.974 486.886 312.33 485.295 312.299C484.742 312.369 484.18 312.276 483.678 312.031C483.667 312.016 483.306 311.521 483.296 311.504L483.474 310.893L484.067 310.403C484.603 310.195 486.393 309.291 486.807 309.123C489.316 308.248 491.674 306.986 493.794 305.383C494.761 304.656 499.347 300.766 500.663 299.519L501.371 299.194L502.051 299.369Z" fill="white"/>
	<path fill-rule="evenodd" clip-rule="evenodd" d="M496.318 277.459V277.467L496.547 278.152L496.239 278.841C495.426 279.317 486.7 289.757 472.399 293.336C464.56 295.309 454.513 294.697 450.155 288.023C449.701 287.308 449.331 286.544 449.051 285.745C448.997 285.588 449.024 285.745 449.051 284.926L449.52 284.415H449.532H450.218C450.822 284.937 450.731 284.817 450.816 284.966C450.969 285.01 452.546 289.18 460.314 290.808C472.24 293.194 485.449 285.005 494.942 277.408L495.664 277.175L496.318 277.459Z" fill="white"/>
	<path fill-rule="evenodd" clip-rule="evenodd" d="M463.116 292.644C455.162 277.927 453.334 271.472 450.854 267.196C452.878 264.784 454.92 262.422 457.118 260.165C466.202 261.363 475.342 262.28 484.419 263.591C485.653 270.098 488.986 275.902 490.717 282.235C486.526 286.523 480.892 288.852 475.263 290.536C471.462 291.883 467.459 292.567 463.427 292.561" fill="white"/>
	<path fill-rule="evenodd" clip-rule="evenodd" d="M457.32 258.62C466.919 259.871 474.484 260.63 482.926 261.806C484.936 262.085 484.974 262.037 485.494 262.464C486.055 263.091 485.846 263.164 486.326 265.026C487.876 271.014 490.466 275.638 492.029 281.212C492.257 282.016 492.354 282.219 492.116 282.87C491.606 283.578 490.99 284.202 490.288 284.72C488.573 286.158 486.691 287.385 484.684 288.375C478.966 291.075 472.843 292.815 466.559 293.525C465.489 293.604 464.413 293.599 463.343 293.508C462.612 293.572 463.039 293.618 462.271 293.098C462.112 292.813 457.24 284.62 453.561 276.789C452.258 274 451.597 271.938 449.943 268.749C449.679 268.377 449.476 267.965 449.339 267.53C449.177 266.496 449.709 266.137 450.431 265.285C452.46 262.884 453.602 261.625 454.967 260.161C455.945 259.112 456.252 258.562 457.32 258.62ZM457.63 261.877C454.884 264.795 452.94 267.148 452.736 267.371C454.061 269.657 456.231 275.788 463.665 291.587C469.446 291.628 479.119 288.216 483.587 285.719C485.551 284.653 487.367 283.334 488.987 281.795C488.987 280.879 485.018 271.989 483.421 266.251V266.238C483.287 265.702 483.249 265.55 483.119 264.998C483.118 264.844 457.701 261.802 457.63 261.877Z" fill="white"/>
	<path fill-rule="evenodd" clip-rule="evenodd" d="M483.765 283.489C483.023 282.873 483.324 283.366 481.143 279.932C481.049 279.76 480.495 278.876 480.162 278.19C479.712 277.252 478.461 274.572 478.075 273.607C476.766 270.585 476.778 270.937 478.18 268.883C478.664 268.153 479.091 267.57 479.155 267.456C479.867 266.628 480.656 265.87 481.512 265.193L482.228 264.878L482.846 264.986H482.858L483.142 265.545C483.033 266.511 483.197 266.058 482.166 268.395C481.637 269.343 481.051 270.259 480.414 271.138C482.386 276.028 482.72 275.413 484.871 282.108L484.889 282.942L484.478 283.5H484.466L483.765 283.489Z" fill="white"/>
	<path fill-rule="evenodd" clip-rule="evenodd" d="M590.012 287.749L590.401 288.321C590.401 289.505 589.675 289.385 583.902 291.034C583.902 291.405 580.212 291.411 560.242 297.44C560.286 298.844 560.488 303.604 560.488 310.533C560.488 316.184 560.673 314.927 560.278 316.027L559.636 316.366L558.956 316.117L558.599 315.436C558.599 314.75 557.45 307.585 557.173 298.732C557.089 295.996 557.024 296.186 557.253 295.604C557.717 294.823 557.328 295.037 564.394 292.955C582.664 287.659 583.31 288.423 583.31 288.193C583.466 288.173 588.073 287.547 589.302 287.547L590.012 287.749Z" fill="white"/>
	<path fill-rule="evenodd" clip-rule="evenodd" d="M574.188 315.042C582.569 315.159 581.068 315.237 589.71 315.237L590.425 315.505L590.752 316.148V316.159L590.5 316.837L589.821 317.181C589.821 317.334 581.245 317.985 573.776 318.155C547.45 318.276 546.306 319.744 537.283 318.869C535.458 318.693 533.498 318.333 533.34 318.313L532.698 317.939L532.477 317.283V317.268L532.816 316.662C533.263 316.411 533.784 316.32 534.29 316.407C540.733 316.364 558.238 314.812 574.188 315.042Z" fill="white"/>
	<path fill-rule="evenodd" clip-rule="evenodd" d="M581.226 331.101C581.392 326.183 581.896 321.285 582.151 316.372C573.27 316.473 564.396 316.814 555.522 316.886C550.949 316.811 546.375 316.984 541.821 317.406C543.358 324.764 545.11 331.977 546.875 339.267C549.85 339.744 552.695 340.9 555.75 340.829C562.223 340.679 569.383 337.978 574.98 334.961C577.279 333.96 579.457 332.702 581.473 331.209" fill="white"/>
	<path fill-rule="evenodd" clip-rule="evenodd" d="M583.489 315.742C583.676 316.234 583.672 316.213 583.477 318.303C582.203 331.898 582.019 329.973 582.433 331.264C582.105 331.966 582.189 331.891 581.836 332.189C580.183 333.464 578.394 334.553 576.503 335.437C574.104 336.824 571.62 338.06 569.067 339.137C566.655 340.145 564.163 340.952 561.618 341.549C557.476 342.694 553.09 342.606 548.998 341.297C546.137 340.627 546.345 340.895 545.72 340.312C545.413 339.902 545.616 340.931 543.067 330.077C542.609 328.161 541.581 323.735 540.734 319.795C540.268 317.618 540.051 317.315 540.554 316.491C541.097 315.852 541.448 315.872 542.288 315.781C544.979 315.503 547.209 315.42 549.926 315.369C584.71 314.829 582.771 314.454 583.489 315.742ZM543.706 318.781C544.601 323.169 547.072 333.473 548.156 337.917C552.645 338.786 553.471 339.722 558.635 339.123C566.641 338.157 573.501 334.365 577.432 332.535C578.425 332.084 579.375 331.546 580.272 330.927C580.272 325.031 580.514 321.793 580.623 317.919C575.142 318.13 547.671 318.428 543.706 318.781Z" fill="white"/>
	<path fill-rule="evenodd" clip-rule="evenodd" d="M429.368 264.898C429.589 264.936 429.789 265.051 429.934 265.223C430.078 265.395 430.157 265.612 430.157 265.836C430.815 329.599 430.887 326.912 430.157 327.637C429.89 327.864 429.551 327.989 429.2 327.991C425.758 328.005 364.351 328.125 363.623 327.937C363.287 327.812 363.003 327.576 362.819 327.267C362.508 326.588 362.617 330.975 362.617 265.84C362.618 265.482 362.745 265.135 362.975 264.861C363.206 264.586 363.525 264.401 363.878 264.338C369.19 263.862 429.215 264.885 429.368 264.898ZM365.679 267.372V324.969C399.447 324.969 314.942 325.008 427.721 325.015C427.872 325.092 427.596 327.419 428.245 266.798C392.66 267.459 393.946 267.372 365.679 267.372Z" fill="white"/>
	<path fill-rule="evenodd" clip-rule="evenodd" d="M448.736 366.424C450.104 366.891 449.177 366.39 450.465 367.129L450.761 367.704V367.714L450.434 368.27L449.681 368.65C445.906 369.405 449.011 369.11 442.473 369.284C441.724 369.416 440.954 369.331 440.251 369.04C439.372 368.638 439.817 368.98 438.603 367.814C439.758 366.608 439.355 366.939 440.195 366.521C440.88 366.198 441.641 366.076 442.393 366.169C447.308 366.044 446.79 365.998 448.736 366.424Z" fill="white"/>
	<path fill-rule="evenodd" clip-rule="evenodd" d="M433.577 387.384C434.099 387.318 434.629 387.384 435.12 387.574C438.778 389.42 442.293 391.536 445.635 393.905C448.561 395.89 449.264 396.049 449.067 397.44C448.99 397.789 448.794 398.101 448.512 398.321C448.054 398.621 447.976 398.621 447.061 398.739C441.357 399.481 435.739 398.326 429.917 397.744C417.97 396.587 410.466 394.356 400.757 392.95C397.675 392.492 397.619 392.426 396.16 392.126L395.549 391.7L395.401 390.984C395.411 390.968 395.81 390.39 395.821 390.374L396.475 390.24L396.499 390.222C401.777 389.15 407.121 388.433 412.496 388.078C417.88 387.677 428.691 387.371 433.577 387.384ZM433.041 390.499C424.209 390.518 415.103 391.043 410.324 391.233C405.612 391.425 406.025 391.314 407.749 391.575C410.831 392.047 417.325 393.049 421.229 393.569C421.229 393.72 439.207 395.827 442.963 395.864C440.192 393.973 437.316 392.24 434.348 390.673C433.96 390.474 434.186 390.496 433.041 390.499ZM433.453 390.188L433.472 390.196L433.448 390.176L433.453 390.188Z" fill="white"/>
	<path fill-rule="evenodd" clip-rule="evenodd" d="M422.668 370.198C425.993 370.158 429.318 370.337 432.62 370.734C434.446 370.913 433.928 370.793 434.823 371.203L435.12 371.846V371.855L434.823 372.499L434.107 372.82C433.464 372.82 431.159 373.194 426.128 373.319C423.111 373.398 424.316 373.104 413.285 373.512C410.452 373.798 407.591 373.529 404.862 372.718L404.237 372.293L404.028 371.664V371.653L404.379 371.092C406.448 370.312 420.577 370.19 422.668 370.198Z" fill="white"/>
	<path fill-rule="evenodd" clip-rule="evenodd" d="M372.052 381.982C372.968 382.012 373.726 382.183 376.853 382.267C381.471 382.367 382.761 382.073 385.437 382.187C389.752 382.387 389.055 382.321 389.993 382.679L390.344 383.281V383.291L390.076 383.936L389.361 384.327C385.346 385.275 381.216 385.633 377.098 385.39C371.529 385.274 370.736 384.846 368.902 384.05C368.701 383.965 368.832 384.05 368.162 383.487L367.989 382.872C367.998 382.856 368.36 382.371 368.371 382.356L369.105 382.108C369.273 382.095 371.683 381.965 372.052 381.982Z" fill="white"/>
	<path fill-rule="evenodd" clip-rule="evenodd" d="M702.93 402.639L703.3 403.309V403.32L702.942 404.001L702.078 404.298L693.259 404.943L654.757 405.502L634.632 405.77L615.321 406L590.808 406.229L561.902 406.497L497.299 407.103L434.228 407.695L407.24 407.949L385.398 408.154L375.433 408.208L364.644 408.241L342.965 408.254L316.268 408.215H315.662L314.992 407.935L314.7 407.272V407.261L314.977 406.591L315.647 406.299L316.258 406.286L342.948 405.739L364.623 405.337L375.41 405.167L385.384 405.033L407.218 404.828L434.205 404.574L497.271 403.983L561.879 403.378L590.78 403.11L615.293 402.879L634.609 402.745L654.734 402.634L693.238 402.471L702.056 402.349L702.93 402.639Z" fill="white"/>
	<path fill-rule="evenodd" clip-rule="evenodd" d="M333.25 366.881C342.741 367.061 343.3 367.072 347.009 367.843C347.47 367.899 347.908 368.075 348.279 368.354L348.547 368.986V368.997L348.203 369.592C347.804 369.827 347.35 369.952 346.887 369.953C344.34 370.26 341.769 370.322 339.21 370.138C336.786 370.188 334.362 370.098 331.948 369.87C329.776 369.371 329.93 369.356 329.228 368.932L328.96 368.371V368.362L329.251 367.813L329.932 367.431C331.008 367.1 332.124 366.915 333.25 366.881Z" fill="white"/>
	<path fill-rule="evenodd" clip-rule="evenodd" d="M357.267 383.142C360.349 383.37 359.545 383.178 360.617 383.613L360.956 384.237V384.248L360.665 384.896L359.937 385.253C352.377 386.302 354.081 385.992 340.006 386.404C337.781 386.565 335.544 386.439 333.352 386.029L332.666 385.699L332.361 385.117V385.107L332.617 384.502L333.277 384.12C333.813 384.039 333.872 383.946 335.764 383.615C337.134 383.371 338.526 383.262 339.918 383.29C354.079 382.884 352.376 382.91 357.267 383.142Z" fill="white"/>
	<path fill-rule="evenodd" clip-rule="evenodd" d="M357.941 398.606C358.745 399.178 358.546 398.933 358.857 399.659C357.517 400.731 358.004 400.463 356.981 400.731C355.85 401.073 354.837 401.014 351.241 401.085C350.942 401.124 350.638 401.092 350.353 400.991C349.252 400.541 349.366 400.526 348.388 399.527C349.421 398.52 349.244 398.575 350.331 398.089C350.774 397.947 350.504 397.99 351.706 397.955C355.487 397.881 355.75 397.719 357.941 398.606Z" fill="white"/>
	<path fill-rule="evenodd" clip-rule="evenodd" d="M623.097 310.252C624.36 311.08 624.008 310.696 625.004 315.873C626.688 324.942 627.668 328.937 628.466 334.028C629.454 340.356 629.519 339.708 628.571 340.449H628.559L627.862 340.315L627.386 339.703C627.386 339.548 627.361 339.755 626.18 335.894C624.098 328.7 624.381 328.814 621.773 315.584C621.103 311.938 621.538 313.134 620.107 311.643C619.823 311.356 619.238 310.776 619.101 310.643C618.643 310.169 618.127 309.756 617.564 309.413L617.076 308.842L617.04 308.172V308.163L617.528 307.698L618.274 307.638C620.016 308.235 621.646 309.118 623.097 310.252Z" fill="white"/>
	<path fill-rule="evenodd" clip-rule="evenodd" d="M472.626 268.866C476.791 269.416 475.193 269.073 477.434 269.686C478.944 270.214 478.267 269.836 479.253 270.483L479.495 271.051V271.06L479.193 271.596L478.514 271.937C477.232 272.258 475.902 272.345 474.589 272.194C472.52 271.957 465.005 270.948 462.955 270.494C459.265 269.69 460.097 269.976 459.167 269.455L458.914 268.828V268.817L459.234 268.22C459.721 267.94 460.281 267.812 460.842 267.851C465.007 267.583 466.005 267.956 472.626 268.866Z" fill="white"/>
	<path fill-rule="evenodd" clip-rule="evenodd" d="M522.825 324.511L523.417 324.793L523.749 325.455C524.449 330.908 524.257 326.619 524.374 344.495C524.412 348.319 524.237 352.141 523.848 355.944L523.533 356.673L522.898 356.979H522.892L522.256 356.675C521.92 355.898 521.932 356.428 521.615 352.133C521.317 347.958 521.25 348.414 521.25 332.123C521.244 329.88 521.453 327.641 521.873 325.437L522.219 324.781L522.818 324.513L522.825 324.511Z" fill="white"/>
	<path d="M397.505 273.16C401.596 273.16 404.911 269.845 404.911 265.754C404.911 261.664 401.596 258.348 397.505 258.348C393.415 258.348 390.099 261.664 390.099 265.754C390.099 269.845 393.415 273.16 397.505 273.16Z" fill="#FF7979"/>
	<path fill-rule="evenodd" clip-rule="evenodd" d="M398.368 257.359C399.856 257.405 401.306 257.844 402.569 258.631C403.832 259.418 404.865 260.526 405.561 261.842C406.258 263.157 406.594 264.634 406.535 266.121C406.476 267.609 406.024 269.054 405.225 270.31C404.451 271.622 403.356 272.714 402.043 273.485C400.73 274.256 399.242 274.68 397.72 274.716C396.198 274.753 394.691 274.401 393.343 273.694C391.994 272.988 390.848 271.949 390.012 270.676C389.238 269.51 388.762 268.172 388.624 266.78C388.486 265.387 388.692 263.982 389.222 262.686C389.752 261.391 390.591 260.245 391.666 259.349C392.741 258.453 394.019 257.833 395.388 257.544C396.371 257.372 397.371 257.31 398.368 257.359ZM397.511 259.32C395.99 259.413 394.555 260.055 393.473 261.128C392.391 262.2 391.736 263.629 391.629 265.149C391.629 272.107 399.527 273.731 402.617 268.601C402.801 268.27 402.952 267.921 403.068 267.561C403.316 266.65 403.366 265.696 403.212 264.764C403.059 263.833 402.707 262.945 402.18 262.162C401.653 261.378 400.963 260.718 400.158 260.225C399.353 259.732 398.451 259.418 397.513 259.305L397.511 259.32ZM397.584 257.386H397.615H397.584Z" fill="white"/>
	<path fill-rule="evenodd" clip-rule="evenodd" d="M419.54 316.038C425.896 316.264 428.603 315.851 434.264 316.28C437.601 316.54 436.932 316.445 437.734 316.816L438.016 317.433V317.443L437.748 318.062C436.893 318.483 437.562 318.33 434.31 318.687C429.727 319.139 425.119 319.288 420.517 319.13C418.573 329.62 416.559 337.086 410.643 346.292C410.321 346.792 410.509 346.607 409.778 347.131L409.076 347.052L408.647 346.48C408.744 345.586 408.676 345.838 408.937 345.319C410.253 342.673 411.421 339.955 412.436 337.179C418.555 320.517 416.784 317.58 418.324 316.304C418.681 316.066 419.116 315.97 419.54 316.038Z" fill="white"/>
	<path fill-rule="evenodd" clip-rule="evenodd" d="M422.632 356.218C425.378 356.237 428.058 357.067 430.334 358.603C432.241 359.881 433.797 361.618 434.857 363.655C436.895 367.794 436.455 369.093 436.455 381.908C436.428 390.11 436.499 389.373 436.239 389.948C436.071 390.249 435.805 390.483 435.485 390.611C435.165 390.739 434.811 390.753 434.481 390.65C433.884 390.407 434.152 390.443 433.777 390.437C428.17 390.389 417.086 390.641 406.395 391.383C412.8 392.557 417.313 393.403 422.656 394.223C434.582 396.01 435.758 395.223 435.882 396.758H435.863C435.997 407.563 436.032 406.495 435.937 406.89C435.856 407.132 435.692 407.338 435.474 407.471C435.322 407.547 437.886 408.054 361.991 408.054C361.631 408.055 361.281 407.928 361.005 407.697C360.729 407.465 360.543 407.143 360.48 406.788C360.461 406.52 360.424 370.146 360.504 369.008C360.765 365.82 362.116 362.818 364.328 360.508C366.541 358.198 369.481 356.719 372.655 356.32C374.078 356.162 422.479 356.216 422.632 356.218ZM414.103 359.282C372.99 359.282 373.282 358.88 370.285 360.086C368.853 360.671 367.562 361.555 366.499 362.679C365.436 363.802 364.625 365.14 364.121 366.601C363.289 368.723 363.528 368.372 363.528 404.998C402.185 404.998 395.896 404.923 433.821 405.42L433.84 405.443V397.601C425.426 396.635 427.098 397.265 407.333 393.995C402.509 393.205 397.526 392.849 395.897 392.37C395.625 392.263 395.397 392.066 395.252 391.812C395.107 391.558 395.054 391.261 395.101 390.973C395.148 390.684 395.293 390.42 395.511 390.225C395.729 390.029 396.007 389.915 396.299 389.9C396.455 389.892 409.904 387.547 433.316 387.447C433.48 387.447 433.383 388.752 433.383 369.933C433.33 367.553 432.5 365.256 431.02 363.393C429.539 361.53 427.488 360.203 425.182 359.615C423.433 359.154 422.405 359.282 414.103 359.282ZM433.494 390.143L433.506 390.151L433.487 390.133L433.494 390.143Z" fill="white"/>
	<path fill-rule="evenodd" clip-rule="evenodd" d="M565.377 129.813C566.321 129.853 567.254 130.04 568.141 130.366C568.729 130.581 568.505 130.466 569.178 131.006L569.351 131.614V131.623L568.98 132.13C567.829 132.543 568.5 132.285 566.98 132.532C564.66 132.678 562.402 133.34 560.37 134.471C559.126 135.187 557.99 136.076 556.995 137.111C555.38 138.699 553.954 140.468 552.743 142.382L552.163 142.875L551.485 142.887H551.471L551.021 142.374C550.926 141.78 551.03 141.17 551.317 140.642C552.045 138.514 553.238 136.575 554.811 134.967C556.006 133.742 557.362 132.685 558.84 131.823C560.821 130.627 563.066 129.937 565.377 129.813Z" fill="white"/>
	<path fill-rule="evenodd" clip-rule="evenodd" d="M549.386 152.661C549.293 152.511 549.21 152.354 549.14 152.192C548.849 151.118 548.703 150.01 548.707 148.897C548.774 148.734 548.861 148.581 548.965 148.44H548.972C549.066 148.314 549.169 148.195 549.28 148.083C551.569 148.209 551.022 148.083 551.44 148.502C551.491 148.577 551.546 148.648 551.607 148.716C551.637 148.768 551.66 148.8 551.694 148.85C551.772 149.724 551.91 150.591 552.106 151.446C552.133 152.434 551.855 153.407 551.31 154.233C550.004 153.454 550.11 153.618 549.386 152.661Z" fill="white"/>
	<path fill-rule="evenodd" clip-rule="evenodd" d="M553.842 257.638L554.348 258.124C554.348 258.14 554.324 258.821 554.323 258.836L553.804 259.378C552.029 260.241 549.192 261.719 547.676 262.539C542.789 265.3 542.036 265.24 535.044 269.576C529.198 273.194 527.438 275 522.046 278.116L521.324 278.276C521.304 278.267 520.738 277.986 520.72 277.974L520.553 277.329L520.862 276.659C520.862 276.504 523.831 273.72 524.441 273.191C531.221 267.983 538.578 263.574 546.369 260.051C552.399 257.607 553.089 257.754 553.089 257.602L553.842 257.638Z" fill="white"/>
	<path d="M672.08 56.238C671.704 56.261 671.35 56.426 671.092 56.701C670.833 56.975 670.689 57.338 670.689 57.715C670.689 58.092 670.833 58.455 671.092 58.73C671.35 59.004 671.704 59.17 672.08 59.192C672.457 59.17 672.81 59.004 673.069 58.73C673.327 58.455 673.471 58.092 673.471 57.715C673.471 57.338 673.327 56.975 673.069 56.701C672.81 56.426 672.457 56.261 672.08 56.238Z" fill="white"/>
	<path d="M615.533 98.867C615.157 98.889 614.803 99.055 614.545 99.329C614.287 99.604 614.143 99.967 614.143 100.344C614.143 100.721 614.287 101.084 614.545 101.358C614.803 101.633 615.157 101.799 615.533 101.821C615.91 101.799 616.263 101.633 616.522 101.358C616.78 101.084 616.924 100.721 616.924 100.344C616.924 99.967 616.78 99.604 616.522 99.329C616.263 99.055 615.91 98.889 615.533 98.867Z" fill="white"/>
	<path d="M518.097 59.719C517.721 59.741 517.367 59.907 517.109 60.182C516.85 60.456 516.707 60.819 516.707 61.196C516.707 61.573 516.85 61.936 517.109 62.211C517.367 62.485 517.721 62.651 518.097 62.673C518.474 62.651 518.827 62.485 519.086 62.211C519.344 61.936 519.488 61.573 519.488 61.196C519.488 60.819 519.344 60.456 519.086 60.182C518.827 59.907 518.474 59.741 518.097 59.719Z" fill="white"/>
	<path d="M578.996 65.808C578.62 65.831 578.266 65.996 578.008 66.271C577.749 66.545 577.605 66.908 577.605 67.285C577.605 67.662 577.749 68.025 578.008 68.3C578.266 68.574 578.62 68.74 578.996 68.763C579.373 68.74 579.726 68.574 579.985 68.3C580.243 68.025 580.387 67.662 580.387 67.285C580.387 66.908 580.243 66.545 579.985 66.271C579.726 65.996 579.373 65.831 578.996 65.808Z" fill="white"/>
	<path d="M492 111.045C491.624 111.068 491.271 111.234 491.012 111.508C490.754 111.783 490.61 112.146 490.61 112.523C490.61 112.9 490.754 113.263 491.012 113.537C491.271 113.812 491.624 113.977 492 114C492.377 113.977 492.73 113.812 492.989 113.537C493.247 113.263 493.391 112.9 493.391 112.523C493.391 112.146 493.247 111.783 492.989 111.508C492.73 111.234 492.377 111.068 492 111.045Z" fill="white"/>
	<mask id="mask0" mask-type="alpha" maskUnits="userSpaceOnUse" x="499" y="243" width="203" height="163">
	<path fill-rule="evenodd" clip-rule="evenodd" d="M584.702 320.653C584.702 320.653 584.542 332.458 584.245 337.83C597.391 340.17 610.35 343.348 623.471 345.817C627.223 346.522 630.92 348.451 634.71 347.946C654.908 345.245 675.403 345.196 695.756 344.264C696.548 344.225 697.322 344.016 698.026 343.653C698.731 343.29 699.349 342.781 699.84 342.159C700.331 341.537 700.684 340.817 700.874 340.047C701.063 339.278 701.086 338.477 700.941 337.698C698.188 322.974 694.491 308.506 687.431 295.095C673.602 268.831 646.861 248.829 617.33 244.029C616.909 243.962 616.477 244.011 616.081 244.171C615.686 244.331 615.341 244.595 615.084 244.936C608.912 253.062 599.779 261.15 589.603 262.989C583.573 264.075 573.501 263.182 570.681 256.591C569.66 253.855 569.478 250.877 570.157 248.037C570.23 247.646 570.204 247.243 570.079 246.865C569.955 246.487 569.736 246.146 569.445 245.876C569.153 245.605 568.798 245.413 568.412 245.316C568.026 245.22 567.621 245.224 567.237 245.326C550.621 249.843 534.943 256.541 520.921 266.855C515.935 270.523 510.405 274.546 506.381 279.298C508.08 280.707 509.392 282.527 510.193 284.584C510.995 286.641 511.259 288.869 510.961 291.056C513.749 294.014 515.151 297.913 513.546 301.829C519.891 312.224 506.846 321.013 499 325.496C505.727 338.506 521.717 362.693 521.976 363.347C522.051 363.537 524.094 405.502 524.161 405.557C524.175 405.569 524.192 405.578 524.21 405.584C524.228 405.589 524.247 405.591 524.266 405.589C536.35 404.365 548.556 405.849 560.695 405.605C578.234 405.251 596.372 404.544 613.943 404.511C613.978 404.515 614.014 404.505 614.042 404.483C614.07 404.461 614.088 404.428 614.092 404.393C614.096 404.357 614.086 404.322 614.064 404.294C614.041 404.266 614.009 404.247 613.973 404.243C601.884 401.034 585.079 395.637 575.543 387.932C566.565 391.393 555.777 389.749 547.051 386.156C540.706 383.546 535.893 376.704 545.557 374.507C541.336 370.824 536.665 363.676 544.847 361.808C540.133 357.899 533.171 347.62 543.532 345.803C542.326 338.835 540.571 331.716 538.683 324.886C525.159 323.625 526.067 314.906 531.045 312.826C538.308 309.792 548.824 311.612 556.624 311.582C555.927 307.625 555.273 303.633 554.871 299.634C554.737 298.284 554.317 296.199 555.248 295.023C557.23 292.518 561.728 292.085 564.554 291.271C572.602 288.965 581.489 285.069 590.042 285.888C593.609 286.23 597.041 288.936 593.733 292.277C591.783 294.244 588.568 294.917 586.02 295.702C583.365 296.519 580.786 297.578 578.126 298.395C574.016 299.666 569.838 300.503 565.648 301.463C565.805 304.554 566.151 307.634 566.683 310.683C573.216 310.377 579.762 310.646 586.247 311.487C588.986 311.606 591.696 312.1 594.301 312.955C597.084 314.13 598.202 317.527 595.091 319.119C592.046 320.678 588.09 320.656 584.702 320.653Z" fill="#FF7979"/>
	</mask>
	<g mask="url(#mask0)">
	<path d="M710.802 283.061H528.996C520.305 283.061 513.26 290.106 513.26 298.797V406.212C513.26 414.903 520.305 421.948 528.996 421.948H710.802C719.493 421.948 726.538 414.903 726.538 406.212V298.797C726.538 290.106 719.493 283.061 710.802 283.061Z" fill="#FFD67A" stroke="#F0F0F0" stroke-width="2.86111"/>
	<path d="M715.681 407.208L659.254 234.38C656.802 226.87 648.725 222.769 641.215 225.221L539.105 258.559C531.594 261.011 527.493 269.088 529.946 276.598L586.373 449.426C588.825 456.937 596.901 461.037 604.412 458.585L706.522 425.247C714.032 422.795 718.133 414.718 715.681 407.208Z" fill="#FF8A7A" fill-opacity="0.6"/>
	<path d="M706.986 311.732L545.102 228.987C538.067 225.391 529.449 228.179 525.853 235.214L476.965 330.859C473.369 337.894 476.157 346.512 483.192 350.108L645.077 432.853C652.112 436.449 660.73 433.661 664.326 426.626L713.213 330.981C716.809 323.946 714.021 315.328 706.986 311.732Z" fill="#FF8A7A" fill-opacity="0.6"/>
	</g>
	<mask id="mask1" mask-type="alpha" maskUnits="userSpaceOnUse" x="356" y="82" width="150" height="150">
	<path d="M431 232C472.421 232 506 198.421 506 157C506 115.579 472.421 82 431 82C389.579 82 356 115.579 356 157C356 198.421 389.579 232 431 232Z" fill="white"/>
	</mask>
	<g mask="url(#mask1)">
	<path d="M541.802 121.061H359.996C351.305 121.061 344.26 128.106 344.26 136.797V244.212C344.26 252.903 351.305 259.948 359.996 259.948H541.802C550.493 259.948 557.538 252.903 557.538 244.212V136.797C557.538 128.106 550.493 121.061 541.802 121.061Z" fill="#FFD67A" stroke="#F0F0F0" stroke-width="2.86111"/>
	<path d="M546.681 245.208L490.254 72.3801C487.802 64.8695 479.725 60.7689 472.215 63.221L370.105 96.5593C362.594 99.0115 358.493 107.088 360.946 114.598L417.373 287.426C419.825 294.937 427.901 299.037 435.412 296.585L537.522 263.247C545.033 260.795 549.133 252.718 546.681 245.208Z" fill="#FF8A7A" fill-opacity="0.6"/>
	<path d="M537.986 149.732L376.102 66.9869C369.067 63.391 360.449 66.179 356.853 73.214L307.965 168.859C304.369 175.894 307.157 184.512 314.192 188.108L476.077 270.853C483.112 274.449 491.73 271.661 495.326 264.626L544.213 168.981C547.809 161.946 545.021 153.328 537.986 149.732Z" fill="#FF8A7A" fill-opacity="0.6"/>
	<path fill-rule="evenodd" clip-rule="evenodd" d="M454.77 96.676C463.98 100.459 472.191 106.32 478.762 113.8C485.333 121.28 490.087 130.178 492.652 139.799C495.47 149.162 496.113 159.046 494.534 168.696C492.955 178.346 489.195 187.509 483.54 195.486C477.712 203.73 470.002 210.464 461.049 215.129C456.629 217.469 451.953 219.287 447.113 220.547C438.328 222.854 429.159 223.31 420.188 221.885C411.216 220.461 402.639 217.187 395.001 212.271C347.184 180.196 359.642 111.293 409.56 95.048C424.334 90.127 440.388 90.705 454.77 96.676ZM420.171 97.577C410.287 99.29 400.985 103.437 393.105 109.646C385.224 115.854 379.015 123.927 375.036 133.136C371.056 142.345 369.434 152.4 370.313 162.393C371.193 172.386 374.548 182.003 380.075 190.375C385.602 198.747 393.127 205.611 401.97 210.346C410.814 215.082 420.698 217.541 430.729 217.501C440.761 217.46 450.625 214.922 459.43 210.115C468.235 205.309 475.705 198.384 481.164 189.968C486.022 182.678 489.262 174.431 490.666 165.784C492.069 157.137 491.604 148.289 489.302 139.836L489.277 139.844C480.056 109.878 449.638 91.982 420.171 97.577ZM492.644 139.8C492.359 138.875 492.384 138.948 492.644 139.8V139.8Z" fill="white"/>
	<path fill-rule="evenodd" clip-rule="evenodd" d="M427.902 132.568C428.329 135.974 429.679 152.875 429.728 153.59C429.862 155.282 430.067 158.636 430.069 158.647C434.014 158.943 443.932 158.407 450.1 158.438C451.81 158.45 451.388 158.392 452.244 158.739L452.553 159.393V159.403L452.285 160.073C451.222 160.582 452.433 160.256 447.336 160.792C440.29 161.533 435.429 162.168 428.828 161.69C428.516 161.719 428.203 161.66 427.922 161.52C427.642 161.38 427.406 161.166 427.241 160.899C427.001 160.414 427.054 160.567 426.909 158.067C426.054 143.361 424.703 137.826 425.095 126.559C425.123 125.864 425.048 126.188 425.403 125.333L426.026 125.025H426.033C427.206 125.482 426.877 124.784 427.902 132.568Z" fill="white"/>
	<path fill-rule="evenodd" clip-rule="evenodd" d="M385.035 157.027C385.686 157.112 386.329 157.243 386.961 157.421C387.347 157.519 387.104 157.421 388.01 157.874L388.349 158.416C387.991 159.125 388.215 158.889 387.344 159.432C386.664 159.694 385.964 159.902 385.251 160.054C384.749 160.137 384.241 160.172 383.733 160.156C379.703 160.327 380.352 160.638 379.161 160.224C378.558 160.026 378.958 160.24 377.586 159.33C378.469 158.012 378.217 158.296 378.728 157.899C379.056 157.64 379.434 157.45 379.839 157.342C381.562 157.125 383.298 157.019 385.035 157.027Z" fill="white"/>
	<path fill-rule="evenodd" clip-rule="evenodd" d="M480.525 154.097C480.988 154.076 481.451 154.13 481.896 154.258C482.002 154.284 482.531 154.443 482.593 154.466C483.497 154.787 483.043 154.495 484.327 155.617C483.209 156.799 483.545 156.584 482.63 156.91C481.302 157.438 479.708 157.071 477.36 157.195C476.973 157.235 476.585 157.134 476.267 156.911C475.76 156.669 476.155 156.925 474.817 155.959C475.733 154.675 475.528 154.908 475.946 154.589C476.282 154.272 476.725 154.092 477.187 154.084C478.389 154.026 479.243 154.056 480.525 154.097Z" fill="white"/>
	<path fill-rule="evenodd" clip-rule="evenodd" d="M425.562 103.984C425.836 104.399 426.066 104.842 426.248 105.304C426.362 105.941 426.442 106.583 426.488 107.228C426.811 110.341 427.272 111.918 426.315 114.474L425.803 114.876H425.786L425.199 114.608L424.699 113.86C424.376 113.093 424.099 112.307 423.872 111.506C423.738 110.901 423.256 106.506 423.256 106.352C423.159 105.838 423.21 105.307 423.403 104.822C423.834 103.884 423.22 104.67 424.521 103.123L425.562 103.984Z" fill="white"/>
	<path fill-rule="evenodd" clip-rule="evenodd" d="M431.358 210.784C430.74 209.731 430.39 208.543 430.339 207.324C429.845 204.161 429.913 204.854 430.154 203.94C430.476 203.187 430.254 203.59 431.204 202.35C431.829 202.721 432.366 203.224 432.777 203.824C433.082 204.271 433.013 204.188 433.21 205.44C433.657 208.552 433.817 208.632 433.499 210.254C433.376 210.883 433.499 210.599 432.573 211.931C431.28 210.852 431.506 211.085 431.358 210.784Z" fill="white"/>
	</g>
	<path d="M277.776 426.285C277.759 425.909 277.598 425.553 277.328 425.29C277.057 425.028 276.696 424.879 276.319 424.873C275.942 424.868 275.577 425.006 275.299 425.261C275.021 425.515 274.85 425.867 274.822 426.243C274.839 426.619 274.999 426.975 275.27 427.238C275.541 427.5 275.902 427.649 276.279 427.655C276.656 427.66 277.021 427.521 277.299 427.267C277.577 427.012 277.748 426.661 277.776 426.285Z" fill="white"/>
	<path d="M235.968 369.129C235.95 368.753 235.79 368.397 235.519 368.134C235.248 367.872 234.888 367.723 234.511 367.717C234.134 367.712 233.769 367.851 233.49 368.105C233.212 368.36 233.042 368.711 233.013 369.087C233.031 369.464 233.191 369.819 233.462 370.082C233.733 370.344 234.093 370.493 234.471 370.499C234.848 370.504 235.212 370.366 235.491 370.111C235.769 369.857 235.94 369.506 235.968 369.129Z" fill="white"/>
	<path d="M276.518 272.269C276.501 271.892 276.341 271.536 276.07 271.274C275.799 271.011 275.438 270.862 275.061 270.857C274.684 270.851 274.319 270.99 274.041 271.244C273.763 271.499 273.592 271.85 273.564 272.226C273.581 272.603 273.742 272.959 274.012 273.221C274.283 273.483 274.644 273.633 275.021 273.638C275.398 273.643 275.763 273.505 276.041 273.25C276.32 272.996 276.49 272.645 276.518 272.269Z" fill="white"/>
	<path d="M269.551 333.073C269.533 332.697 269.373 332.341 269.102 332.078C268.831 331.816 268.471 331.667 268.094 331.661C267.717 331.656 267.352 331.795 267.073 332.049C266.795 332.304 266.625 332.655 266.596 333.031C266.614 333.407 266.774 333.763 267.045 334.026C267.316 334.288 267.676 334.437 268.054 334.443C268.431 334.448 268.795 334.309 269.074 334.055C269.352 333.8 269.523 333.449 269.551 333.073Z" fill="white"/>
	<path d="M344.564 380.268C344.547 379.891 344.386 379.536 344.116 379.273C343.845 379.011 343.484 378.862 343.107 378.856C342.73 378.851 342.365 378.989 342.087 379.244C341.809 379.498 341.638 379.849 341.61 380.225C341.627 380.602 341.788 380.958 342.058 381.22C342.329 381.483 342.69 381.632 343.067 381.638C343.444 381.643 343.809 381.504 344.087 381.25C344.365 380.995 344.536 380.644 344.564 380.268Z" fill="white"/>
	<path d="M225.573 245.433C225.556 245.056 225.396 244.701 225.125 244.438C224.854 244.176 224.493 244.027 224.116 244.021C223.739 244.016 223.374 244.154 223.096 244.409C222.818 244.663 222.647 245.014 222.619 245.391C222.636 245.767 222.797 246.123 223.068 246.386C223.338 246.648 223.699 246.797 224.076 246.803C224.453 246.808 224.818 246.669 225.096 246.415C225.375 246.16 225.545 245.809 225.573 245.433Z" fill="white"/>
	<path d="M714.036 302.697C714.087 303.071 714.278 303.411 714.571 303.648C714.864 303.885 715.237 304.002 715.613 303.974C715.989 303.946 716.34 303.775 716.595 303.497C716.849 303.219 716.988 302.854 716.982 302.477C716.932 302.103 716.74 301.763 716.447 301.525C716.154 301.288 715.782 301.172 715.405 301.2C715.029 301.228 714.678 301.399 714.424 301.677C714.169 301.955 714.031 302.32 714.036 302.697Z" fill="white"/>
	<path d="M760.765 355.906C760.816 356.279 761.008 356.619 761.301 356.857C761.594 357.094 761.966 357.21 762.342 357.182C762.718 357.154 763.069 356.984 763.324 356.705C763.578 356.427 763.717 356.062 763.712 355.685C763.661 355.311 763.47 354.971 763.176 354.734C762.883 354.497 762.511 354.38 762.135 354.408C761.759 354.436 761.408 354.607 761.153 354.885C760.899 355.164 760.76 355.528 760.765 355.906Z" fill="white"/>
	<path d="M728.996 455.991C729.047 456.365 729.238 456.705 729.531 456.942C729.824 457.179 730.197 457.296 730.573 457.268C730.949 457.24 731.3 457.069 731.555 456.791C731.809 456.512 731.948 456.148 731.942 455.771C731.892 455.397 731.7 455.057 731.407 454.819C731.114 454.582 730.742 454.466 730.365 454.494C729.989 454.522 729.638 454.693 729.384 454.971C729.129 455.249 728.991 455.614 728.996 455.991Z" fill="white"/>
	<path d="M730.525 394.807C730.575 395.181 730.767 395.521 731.06 395.759C731.353 395.996 731.726 396.112 732.102 396.084C732.478 396.056 732.829 395.885 733.083 395.607C733.338 395.329 733.476 394.964 733.471 394.587C733.42 394.213 733.229 393.873 732.936 393.636C732.643 393.399 732.27 393.282 731.894 393.31C731.518 393.338 731.167 393.509 730.912 393.787C730.658 394.065 730.519 394.43 730.525 394.807Z" fill="white"/>
	<path d="M651.609 354.476C651.659 354.849 651.851 355.19 652.144 355.427C652.437 355.664 652.81 355.781 653.186 355.753C653.562 355.724 653.913 355.554 654.167 355.276C654.422 354.997 654.56 354.632 654.555 354.255C654.504 353.882 654.313 353.542 654.02 353.304C653.727 353.067 653.354 352.951 652.978 352.979C652.602 353.007 652.251 353.177 651.996 353.456C651.742 353.734 651.603 354.099 651.609 354.476Z" fill="white"/>
	<path d="M782.127 478.185C782.178 478.559 782.369 478.899 782.662 479.136C782.955 479.374 783.328 479.49 783.704 479.462C784.08 479.434 784.431 479.263 784.686 478.985C784.94 478.707 785.079 478.342 785.073 477.965C785.023 477.591 784.831 477.251 784.538 477.014C784.245 476.776 783.873 476.66 783.497 476.688C783.121 476.716 782.769 476.887 782.515 477.165C782.26 477.443 782.122 477.808 782.127 478.185Z" fill="white"/>
	<path d="M326.2 443.091H327.905C327.827 440.896 325.802 439.256 322.99 439.256C320.206 439.256 318.018 440.875 318.018 443.318C318.018 445.278 319.439 446.443 321.712 447.097L323.501 447.608C325.035 448.034 326.399 448.574 326.399 450.023C326.399 451.614 324.865 452.665 322.848 452.665C321.115 452.665 319.581 451.898 319.439 450.25H317.621C317.791 452.636 319.723 454.256 322.848 454.256C326.2 454.256 328.104 452.409 328.104 450.051C328.104 447.324 325.518 446.443 324.013 446.045L322.535 445.648C321.456 445.364 319.723 444.795 319.723 443.233C319.723 441.841 321.001 440.818 322.933 440.818C324.695 440.818 326.03 441.656 326.2 443.091ZM332.888 447.438C332.888 445.534 334.103 444.455 335.758 444.455C337.334 444.455 338.286 445.449 338.286 447.182V454H339.962V447.068C339.962 444.263 338.471 442.949 336.241 442.949C334.522 442.949 333.542 443.666 333.03 444.795H332.888V439.455H331.212V454H332.888V447.438ZM348.043 454.227C350.258 454.227 351.878 453.119 352.389 451.472L350.77 451.017C350.344 452.153 349.356 452.722 348.043 452.722C346.075 452.722 344.719 451.45 344.641 449.114H352.56V448.403C352.56 444.341 350.145 442.949 347.872 442.949C344.918 442.949 342.957 445.278 342.957 448.631C342.957 451.983 344.889 454.227 348.043 454.227ZM344.641 447.665C344.754 445.967 345.954 444.455 347.872 444.455C349.69 444.455 350.855 445.818 350.855 447.665H344.641ZM359.669 454.227C361.771 454.227 362.481 452.92 362.85 452.324H363.049V454H364.669V439.455H362.993V444.824H362.85C362.481 444.256 361.828 442.949 359.697 442.949C356.941 442.949 355.038 445.136 355.038 448.574C355.038 452.04 356.941 454.227 359.669 454.227ZM359.896 452.722C357.794 452.722 356.714 450.875 356.714 448.545C356.714 446.244 357.765 444.455 359.896 444.455C361.941 444.455 363.021 446.102 363.021 448.545C363.021 451.017 361.913 452.722 359.896 452.722ZM375.286 449.54C375.286 451.585 373.724 452.523 372.474 452.523C371.082 452.523 370.087 451.5 370.087 449.909V443.091H368.411V450.023C368.411 452.807 369.888 454.142 371.934 454.142C373.582 454.142 374.661 453.261 375.173 452.153H375.286V454H376.962V443.091H375.286V449.54ZM382.148 439.455H380.472V454H382.148V439.455ZM385.658 454H387.335V443.091H385.658V454ZM386.511 441.273C387.164 441.273 387.704 440.761 387.704 440.136C387.704 439.511 387.164 439 386.511 439C385.857 439 385.317 439.511 385.317 440.136C385.317 440.761 385.857 441.273 386.511 441.273ZM394.055 454.256C395.958 454.256 396.952 453.233 397.293 452.523H397.379V454H399.055V446.812C399.055 443.347 396.413 442.949 395.021 442.949C393.373 442.949 391.498 443.517 390.646 445.506L392.237 446.074C392.606 445.278 393.479 444.426 395.077 444.426C396.619 444.426 397.379 445.243 397.379 446.642V446.699C397.379 447.509 396.555 447.438 394.566 447.693C392.542 447.956 390.333 448.403 390.333 450.903C390.333 453.034 391.981 454.256 394.055 454.256ZM394.31 452.75C392.975 452.75 392.009 452.153 392.009 450.989C392.009 449.71 393.174 449.312 394.481 449.142C395.191 449.057 397.094 448.858 397.379 448.517V450.051C397.379 451.415 396.299 452.75 394.31 452.75ZM410.295 447.438C410.295 445.534 411.51 444.455 413.164 444.455C414.741 444.455 415.693 445.449 415.693 447.182V454H417.369V447.068C417.369 444.263 415.878 442.949 413.647 442.949C411.929 442.949 410.949 443.666 410.437 444.795H410.295V439.455H408.619V454H410.295V447.438ZM425.449 454.227C427.665 454.227 429.285 453.119 429.796 451.472L428.177 451.017C427.75 452.153 426.763 452.722 425.449 452.722C423.482 452.722 422.125 451.45 422.047 449.114H429.966V448.403C429.966 444.341 427.552 442.949 425.279 442.949C422.324 442.949 420.364 445.278 420.364 448.631C420.364 451.983 422.296 454.227 425.449 454.227ZM422.047 447.665C422.161 445.967 423.361 444.455 425.279 444.455C427.097 444.455 428.262 445.818 428.262 447.665H422.047ZM434.632 439.455H432.956V454H434.632V439.455ZM438.142 458.091H439.818V452.324H439.96C440.33 452.92 441.04 454.227 443.142 454.227C445.869 454.227 447.773 452.04 447.773 448.574C447.773 445.136 445.869 442.949 443.114 442.949C440.983 442.949 440.33 444.256 439.96 444.824H439.761V443.091H438.142V458.091ZM439.79 448.545C439.79 446.102 440.869 444.455 442.915 444.455C445.046 444.455 446.097 446.244 446.097 448.545C446.097 450.875 445.017 452.722 442.915 452.722C440.898 452.722 439.79 451.017 439.79 448.545ZM458.497 445.534C457.971 443.986 456.792 442.949 454.633 442.949C452.332 442.949 450.628 444.256 450.628 446.102C450.628 447.608 451.522 448.616 453.525 449.085L455.344 449.511C456.444 449.767 456.963 450.293 456.963 451.045C456.963 451.983 455.969 452.75 454.406 452.75C453.035 452.75 452.176 452.161 451.878 450.989L450.287 451.386C450.677 453.24 452.204 454.227 454.434 454.227C456.97 454.227 458.696 452.842 458.696 450.96C458.696 449.44 457.744 448.482 455.798 448.006L454.179 447.608C452.886 447.288 452.304 446.855 452.304 446.017C452.304 445.08 453.298 444.398 454.633 444.398C456.096 444.398 456.7 445.207 456.991 445.96L458.497 445.534ZM468.803 458.062C470.316 458.062 471.389 457.26 472.014 455.591L476.659 443.119L474.826 443.091L471.815 451.784H471.701L468.69 443.091H466.872L470.906 454.057L470.593 454.909C469.997 456.543 469.23 456.699 468.008 456.386L467.582 457.864C467.752 457.949 468.235 458.062 468.803 458.062ZM483.357 454.227C486.312 454.227 488.301 451.983 488.301 448.602C488.301 445.193 486.312 442.949 483.357 442.949C480.403 442.949 478.414 445.193 478.414 448.602C478.414 451.983 480.403 454.227 483.357 454.227ZM483.357 452.722C481.113 452.722 480.09 450.79 480.09 448.602C480.09 446.415 481.113 444.455 483.357 444.455C485.602 444.455 486.624 446.415 486.624 448.602C486.624 450.79 485.602 452.722 483.357 452.722ZM498.174 449.54C498.174 451.585 496.612 452.523 495.362 452.523C493.97 452.523 492.975 451.5 492.975 449.909V443.091H491.299V450.023C491.299 452.807 492.776 454.142 494.822 454.142C496.47 454.142 497.549 453.261 498.061 452.153H498.174V454H499.85V443.091H498.174V449.54ZM517.153 445.534C516.627 443.986 515.448 442.949 513.289 442.949C510.988 442.949 509.283 444.256 509.283 446.102C509.283 447.608 510.178 448.616 512.181 449.085L513.999 449.511C515.1 449.767 515.618 450.293 515.618 451.045C515.618 451.983 514.624 452.75 513.062 452.75C511.691 452.75 510.832 452.161 510.533 450.989L508.942 451.386C509.333 453.24 510.86 454.227 513.09 454.227C515.626 454.227 517.351 452.842 517.351 450.96C517.351 449.44 516.4 448.482 514.454 448.006L512.834 447.608C511.542 447.288 510.959 446.855 510.959 446.017C510.959 445.08 511.954 444.398 513.289 444.398C514.752 444.398 515.356 445.207 515.647 445.96L517.153 445.534ZM524.746 454.227C527.161 454.227 528.752 452.75 529.036 450.818H527.36C527.047 452.011 526.053 452.722 524.746 452.722C522.758 452.722 521.479 451.074 521.479 448.545C521.479 446.074 522.786 444.455 524.746 444.455C526.224 444.455 527.104 445.364 527.36 446.358H529.036C528.752 444.312 527.019 442.949 524.718 442.949C521.763 442.949 519.803 445.278 519.803 448.602C519.803 451.869 521.678 454.227 524.746 454.227ZM533.603 447.438C533.603 445.534 534.817 444.455 536.472 444.455C538.049 444.455 539 445.449 539 447.182V454H540.676V447.068C540.676 444.263 539.185 442.949 536.955 442.949C535.236 442.949 534.256 443.666 533.745 444.795H533.603V439.455H531.926V454H533.603V447.438ZM548.757 454.227C550.973 454.227 552.592 453.119 553.103 451.472L551.484 451.017C551.058 452.153 550.071 452.722 548.757 452.722C546.789 452.722 545.433 451.45 545.355 449.114H553.274V448.403C553.274 444.341 550.859 442.949 548.586 442.949C545.632 442.949 543.671 445.278 543.671 448.631C543.671 451.983 545.603 454.227 548.757 454.227ZM545.355 447.665C545.468 445.967 546.669 444.455 548.586 444.455C550.404 444.455 551.569 445.818 551.569 447.665H545.355ZM560.383 454.227C562.485 454.227 563.195 452.92 563.565 452.324H563.763V454H565.383V439.455H563.707V444.824H563.565C563.195 444.256 562.542 442.949 560.411 442.949C557.655 442.949 555.752 445.136 555.752 448.574C555.752 452.04 557.655 454.227 560.383 454.227ZM560.61 452.722C558.508 452.722 557.428 450.875 557.428 448.545C557.428 446.244 558.479 444.455 560.61 444.455C562.655 444.455 563.735 446.102 563.735 448.545C563.735 451.017 562.627 452.722 560.61 452.722ZM576 449.54C576 451.585 574.438 452.523 573.188 452.523C571.796 452.523 570.801 451.5 570.801 449.909V443.091H569.125V450.023C569.125 452.807 570.603 454.142 572.648 454.142C574.296 454.142 575.375 453.261 575.887 452.153H576V454H577.676V443.091H576V449.54ZM582.863 439.455H581.186V454H582.863V439.455ZM590.946 454.227C593.162 454.227 594.782 453.119 595.293 451.472L593.674 451.017C593.247 452.153 592.26 452.722 590.946 452.722C588.979 452.722 587.622 451.45 587.544 449.114H595.463V448.403C595.463 444.341 593.049 442.949 590.776 442.949C587.821 442.949 585.861 445.278 585.861 448.631C585.861 451.983 587.793 454.227 590.946 454.227ZM587.544 447.665C587.658 445.967 588.858 444.455 590.776 444.455C592.594 444.455 593.759 445.818 593.759 447.665H587.544ZM604.518 454H606.194V447.182C606.194 445.584 607.359 444.455 608.666 444.455C609.937 444.455 610.825 445.286 610.825 446.528V454H612.529V446.898C612.529 445.491 613.41 444.455 614.944 444.455C616.137 444.455 617.16 445.087 617.16 446.699V454H618.836V446.699C618.836 444.135 617.458 442.949 615.512 442.949C613.95 442.949 612.806 443.666 612.245 444.795H612.132C611.592 443.631 610.64 442.949 609.206 442.949C607.785 442.949 606.734 443.631 606.279 444.795H606.137V443.091H604.518V454ZM626.915 454.227C629.131 454.227 630.75 453.119 631.261 451.472L629.642 451.017C629.216 452.153 628.229 452.722 626.915 452.722C624.947 452.722 623.591 451.45 623.513 449.114H631.432V448.403C631.432 444.341 629.017 442.949 626.744 442.949C623.79 442.949 621.83 445.278 621.83 448.631C621.83 451.983 623.761 454.227 626.915 454.227ZM623.513 447.665C623.626 445.967 624.827 444.455 626.744 444.455C628.563 444.455 629.727 445.818 629.727 447.665H623.513ZM638.995 454.227C641.211 454.227 642.831 453.119 643.342 451.472L641.723 451.017C641.297 452.153 640.309 452.722 638.995 452.722C637.028 452.722 635.672 451.45 635.593 449.114H643.512V448.403C643.512 444.341 641.098 442.949 638.825 442.949C635.87 442.949 633.91 445.278 633.91 448.631C633.91 451.983 635.842 454.227 638.995 454.227ZM635.593 447.665C635.707 445.967 636.907 444.455 638.825 444.455C640.643 444.455 641.808 445.818 641.808 447.665H635.593ZM651.246 443.091H648.917V440.477H647.241V443.091H645.593V444.511H647.241V451.33C647.241 453.233 648.775 454.142 650.195 454.142C650.82 454.142 651.218 454.028 651.445 453.943L651.104 452.438C650.962 452.466 650.735 452.523 650.366 452.523C649.627 452.523 648.917 452.295 648.917 450.875V444.511H651.246V443.091ZM654.208 454H655.884V443.091H654.208V454ZM655.06 441.273C655.713 441.273 656.253 440.761 656.253 440.136C656.253 439.511 655.713 439 655.06 439C654.407 439 653.867 439.511 653.867 440.136C653.867 440.761 654.407 441.273 655.06 441.273ZM661.07 447.438C661.07 445.534 662.249 444.455 663.854 444.455C665.409 444.455 666.354 445.47 666.354 447.182V454H668.03V447.068C668.03 444.284 666.546 442.949 664.337 442.949C662.689 442.949 661.667 443.688 661.155 444.795H661.013V443.091H659.394V454H661.07V447.438ZM675.936 458.318C678.55 458.318 680.652 457.125 680.652 454.312V443.091H679.033V444.824H678.863C678.493 444.256 677.811 442.949 675.681 442.949C672.925 442.949 671.022 445.136 671.022 448.489C671.022 451.898 673.01 453.83 675.652 453.83C677.783 453.83 678.465 452.58 678.834 451.983H678.976V454.199C678.976 456.017 677.698 456.841 675.936 456.841C673.955 456.841 673.259 455.797 672.811 455.193L671.476 456.131C672.158 457.274 673.5 458.318 675.936 458.318ZM675.88 452.324C673.777 452.324 672.698 450.733 672.698 448.46C672.698 446.244 673.749 444.455 675.88 444.455C677.925 444.455 679.005 446.102 679.005 448.46C679.005 450.875 677.897 452.324 675.88 452.324ZM691.888 445.534C691.362 443.986 690.183 442.949 688.024 442.949C685.723 442.949 684.019 444.256 684.019 446.102C684.019 447.608 684.913 448.616 686.916 449.085L688.734 449.511C689.835 449.767 690.354 450.293 690.354 451.045C690.354 451.983 689.359 452.75 687.797 452.75C686.426 452.75 685.567 452.161 685.269 450.989L683.678 451.386C684.068 453.24 685.595 454.227 687.825 454.227C690.361 454.227 692.087 452.842 692.087 450.96C692.087 449.44 691.135 448.482 689.189 448.006L687.57 447.608C686.277 447.288 685.695 446.855 685.695 446.017C685.695 445.08 686.689 444.398 688.024 444.398C689.487 444.398 690.091 445.207 690.382 445.96L691.888 445.534ZM339.993 486H341.641L344.027 477.619H344.198L346.584 486H348.232L351.556 475.091H349.794L347.436 483.415H347.323L345.021 475.091H343.232L340.902 483.443H340.788L338.431 475.091H336.669L339.993 486ZM354.211 486H355.888V475.091H354.211V486ZM355.064 473.273C355.717 473.273 356.257 472.761 356.257 472.136C356.257 471.511 355.717 471 355.064 471C354.41 471 353.871 471.511 353.871 472.136C353.871 472.761 354.41 473.273 355.064 473.273ZM364.142 475.091H361.812V472.477H360.136V475.091H358.488V476.511H360.136V483.33C360.136 485.233 361.67 486.142 363.091 486.142C363.716 486.142 364.113 486.028 364.341 485.943L364 484.438C363.858 484.466 363.63 484.523 363.261 484.523C362.523 484.523 361.812 484.295 361.812 482.875V476.511H364.142V475.091ZM369.014 479.438C369.014 477.534 370.228 476.455 371.883 476.455C373.46 476.455 374.411 477.449 374.411 479.182V486H376.088V479.068C376.088 476.263 374.596 474.949 372.366 474.949C370.647 474.949 369.667 475.666 369.156 476.795H369.014V471.455H367.338V486H369.014V479.438ZM384.026 486.227C386.98 486.227 388.969 483.983 388.969 480.602C388.969 477.193 386.98 474.949 384.026 474.949C381.071 474.949 379.083 477.193 379.083 480.602C379.083 483.983 381.071 486.227 384.026 486.227ZM384.026 484.722C381.781 484.722 380.759 482.79 380.759 480.602C380.759 478.415 381.781 476.455 384.026 476.455C386.27 476.455 387.293 478.415 387.293 480.602C387.293 482.79 386.27 484.722 384.026 484.722ZM398.843 481.54C398.843 483.585 397.28 484.523 396.03 484.523C394.638 484.523 393.644 483.5 393.644 481.909V475.091H391.968V482.023C391.968 484.807 393.445 486.142 395.49 486.142C397.138 486.142 398.218 485.261 398.729 484.153H398.843V486H400.519V475.091H398.843V481.54ZM408.773 475.091H406.443V472.477H404.767V475.091H403.12V476.511H404.767V483.33C404.767 485.233 406.301 486.142 407.722 486.142C408.347 486.142 408.745 486.028 408.972 485.943L408.631 484.438C408.489 484.466 408.262 484.523 407.892 484.523C407.154 484.523 406.443 484.295 406.443 482.875V476.511H408.773V475.091ZM422.544 475.091H420.214V472.477H418.538V475.091H416.89V476.511H418.538V483.33C418.538 485.233 420.072 486.142 421.492 486.142C422.117 486.142 422.515 486.028 422.742 485.943L422.402 484.438C422.259 484.466 422.032 484.523 421.663 484.523C420.924 484.523 420.214 484.295 420.214 482.875V476.511H422.544V475.091ZM427.415 479.438C427.415 477.534 428.63 476.455 430.285 476.455C431.861 476.455 432.813 477.449 432.813 479.182V486H434.489V479.068C434.489 476.263 432.998 474.949 430.768 474.949C429.049 474.949 428.069 475.666 427.557 476.795H427.415V471.455H425.739V486H427.415V479.438ZM442.57 486.227C444.785 486.227 446.405 485.119 446.916 483.472L445.297 483.017C444.871 484.153 443.883 484.722 442.57 484.722C440.602 484.722 439.246 483.45 439.168 481.114H447.087V480.403C447.087 476.341 444.672 474.949 442.399 474.949C439.445 474.949 437.484 477.278 437.484 480.631C437.484 483.983 439.416 486.227 442.57 486.227ZM439.168 479.665C439.281 477.967 440.481 476.455 442.399 476.455C444.217 476.455 445.382 477.818 445.382 479.665H439.168ZM456.369 486H457.988V484.324H458.187C458.556 484.92 459.266 486.227 461.369 486.227C464.096 486.227 465.999 484.04 465.999 480.574C465.999 477.136 464.096 474.949 461.34 474.949C459.209 474.949 458.556 476.256 458.187 476.824H458.045V471.455H456.369V486ZM458.016 480.545C458.016 478.102 459.096 476.455 461.141 476.455C463.272 476.455 464.323 478.244 464.323 480.545C464.323 482.875 463.244 484.722 461.141 484.722C459.124 484.722 458.016 483.017 458.016 480.545ZM472.213 486.256C474.117 486.256 475.111 485.233 475.452 484.523H475.537V486H477.213V478.812C477.213 475.347 474.571 474.949 473.179 474.949C471.532 474.949 469.657 475.517 468.804 477.506L470.395 478.074C470.765 477.278 471.638 476.426 473.236 476.426C474.777 476.426 475.537 477.243 475.537 478.642V478.699C475.537 479.509 474.713 479.438 472.725 479.693C470.701 479.956 468.492 480.403 468.492 482.903C468.492 485.034 470.14 486.256 472.213 486.256ZM472.469 484.75C471.134 484.75 470.168 484.153 470.168 482.989C470.168 481.71 471.333 481.312 472.64 481.142C473.35 481.057 475.253 480.858 475.537 480.517V482.051C475.537 483.415 474.458 484.75 472.469 484.75ZM485.145 486.227C487.559 486.227 489.15 484.75 489.434 482.818H487.758C487.446 484.011 486.451 484.722 485.145 484.722C483.156 484.722 481.877 483.074 481.877 480.545C481.877 478.074 483.184 476.455 485.145 476.455C486.622 476.455 487.502 477.364 487.758 478.358H489.434C489.15 476.312 487.417 474.949 485.116 474.949C482.162 474.949 480.201 477.278 480.201 480.602C480.201 483.869 482.076 486.227 485.145 486.227ZM492.325 486H494.001V481.916L495.173 480.83L499.256 486H501.387L496.437 479.75L501.046 475.091H498.972L494.2 479.949H494.001V471.455H492.325V486ZM508.975 478.983H502.612V480.545H508.975V478.983ZM515.575 486.256C517.478 486.256 518.473 485.233 518.814 484.523H518.899V486H520.575V478.812C520.575 475.347 517.933 474.949 516.541 474.949C514.893 474.949 513.018 475.517 512.166 477.506L513.757 478.074C514.126 477.278 515 476.426 516.598 476.426C518.139 476.426 518.899 477.243 518.899 478.642V478.699C518.899 479.509 518.075 479.438 516.086 479.693C514.062 479.956 511.853 480.403 511.853 482.903C511.853 485.034 513.501 486.256 515.575 486.256ZM515.831 484.75C514.495 484.75 513.529 484.153 513.529 482.989C513.529 481.71 514.694 481.312 516.001 481.142C516.711 481.057 518.615 480.858 518.899 480.517V482.051C518.899 483.415 517.819 484.75 515.831 484.75ZM525.75 479.438C525.75 477.534 526.929 476.455 528.534 476.455C530.09 476.455 531.034 477.47 531.034 479.182V486H532.711V479.068C532.711 476.284 531.226 474.949 529.017 474.949C527.37 474.949 526.347 475.688 525.836 476.795H525.694V475.091H524.074V486H525.75V479.438ZM540.333 486.227C542.435 486.227 543.145 484.92 543.515 484.324H543.713V486H545.333V471.455H543.657V476.824H543.515C543.145 476.256 542.492 474.949 540.361 474.949C537.606 474.949 535.702 477.136 535.702 480.574C535.702 484.04 537.606 486.227 540.333 486.227ZM540.56 484.722C538.458 484.722 537.378 482.875 537.378 480.545C537.378 478.244 538.429 476.455 540.56 476.455C542.606 476.455 543.685 478.102 543.685 480.545C543.685 483.017 542.577 484.722 540.56 484.722ZM555.325 478.983H548.962V480.545H555.325V478.983ZM563.573 475.091H561.129V473.983C561.129 472.903 561.584 472.335 562.692 472.335C563.175 472.335 563.459 472.449 563.629 472.506L564.112 471.057C563.857 470.943 563.345 470.773 562.521 470.773C560.959 470.773 559.453 471.71 559.453 473.585V475.091H557.692V476.511H559.453V486H561.129V476.511H563.573V475.091ZM570.344 486.227C573.299 486.227 575.287 483.983 575.287 480.602C575.287 477.193 573.299 474.949 570.344 474.949C567.39 474.949 565.401 477.193 565.401 480.602C565.401 483.983 567.39 486.227 570.344 486.227ZM570.344 484.722C568.1 484.722 567.077 482.79 567.077 480.602C567.077 478.415 568.1 476.455 570.344 476.455C572.589 476.455 573.611 478.415 573.611 480.602C573.611 482.79 572.589 484.722 570.344 484.722ZM578.286 486H579.962V479.097C579.962 477.619 581.127 476.54 582.718 476.54C583.165 476.54 583.627 476.625 583.741 476.653V474.949C583.549 474.935 583.108 474.92 582.86 474.92C581.553 474.92 580.417 475.659 580.019 476.739H579.905V475.091H578.286V486ZM591.595 475.091H589.266V472.477H587.59V475.091H585.942V476.511H587.59V483.33C587.59 485.233 589.124 486.142 590.544 486.142C591.169 486.142 591.567 486.028 591.794 485.943L591.453 484.438C591.311 484.466 591.084 484.523 590.715 484.523C589.976 484.523 589.266 484.295 589.266 482.875V476.511H591.595V475.091ZM596.467 479.438C596.467 477.534 597.682 476.455 599.336 476.455C600.913 476.455 601.865 477.449 601.865 479.182V486H603.541V479.068C603.541 476.263 602.05 474.949 599.819 474.949C598.101 474.949 597.121 475.666 596.609 476.795H596.467V471.455H594.791V486H596.467V479.438ZM617.686 486.227C619.902 486.227 621.521 485.119 622.033 483.472L620.414 483.017C619.987 484.153 619 484.722 617.686 484.722C615.719 484.722 614.362 483.45 614.284 481.114H622.203V480.403C622.203 476.341 619.789 474.949 617.516 474.949C614.561 474.949 612.601 477.278 612.601 480.631C612.601 483.983 614.533 486.227 617.686 486.227ZM614.284 479.665C614.398 477.967 615.598 476.455 617.516 476.455C619.334 476.455 620.499 477.818 620.499 479.665H614.284ZM625.193 486H626.869V479.182C626.869 477.584 628.034 476.455 629.341 476.455C630.612 476.455 631.5 477.286 631.5 478.528V486H633.204V478.898C633.204 477.491 634.085 476.455 635.619 476.455C636.812 476.455 637.835 477.087 637.835 478.699V486H639.511V478.699C639.511 476.135 638.133 474.949 636.187 474.949C634.625 474.949 633.481 475.666 632.92 476.795H632.807C632.267 475.631 631.315 474.949 629.881 474.949C628.46 474.949 627.409 475.631 626.954 476.795H626.812V475.091H625.193V486ZM646.226 486.256C648.129 486.256 649.124 485.233 649.465 484.523H649.55V486H651.226V478.812C651.226 475.347 648.584 474.949 647.192 474.949C645.544 474.949 643.669 475.517 642.817 477.506L644.408 478.074C644.777 477.278 645.651 476.426 647.249 476.426C648.79 476.426 649.55 477.243 649.55 478.642V478.699C649.55 479.509 648.726 479.438 646.737 479.693C644.713 479.956 642.504 480.403 642.504 482.903C642.504 485.034 644.152 486.256 646.226 486.256ZM646.482 484.75C645.147 484.75 644.181 484.153 644.181 482.989C644.181 481.71 645.345 481.312 646.652 481.142C647.362 481.057 649.266 480.858 649.55 480.517V482.051C649.55 483.415 648.47 484.75 646.482 484.75ZM654.725 486H656.402V475.091H654.725V486ZM655.578 473.273C656.231 473.273 656.771 472.761 656.771 472.136C656.771 471.511 656.231 471 655.578 471C654.924 471 654.384 471.511 654.384 472.136C654.384 472.761 654.924 473.273 655.578 473.273ZM661.588 471.455H659.911V486H661.588V471.455ZM672.825 477.534C672.299 475.986 671.12 474.949 668.961 474.949C666.66 474.949 664.955 476.256 664.955 478.102C664.955 479.608 665.85 480.616 667.853 481.085L669.671 481.511C670.772 481.767 671.291 482.293 671.291 483.045C671.291 483.983 670.296 484.75 668.734 484.75C667.363 484.75 666.504 484.161 666.205 482.989L664.615 483.386C665.005 485.24 666.532 486.227 668.762 486.227C671.298 486.227 673.024 484.842 673.024 482.96C673.024 481.44 672.072 480.482 670.126 480.006L668.507 479.608C667.214 479.288 666.632 478.855 666.632 478.017C666.632 477.08 667.626 476.398 668.961 476.398C670.424 476.398 671.028 477.207 671.319 477.96L672.825 477.534Z" fill="white"/>
	<mask id="mask2" mask-type="alpha" maskUnits="userSpaceOnUse" x="0" y="494" width="75" height="76">
	<path d="M65.3994 541.001C70.485 525.523 62.06 508.852 46.5816 503.767C31.1033 498.681 14.4329 507.106 9.34737 522.585C4.26181 538.063 12.6868 554.733 28.1652 559.819C43.6436 564.904 60.3139 556.479 65.3994 541.001Z" fill="white"/>
	</mask>
	<g mask="url(#mask2)">
	<path d="M34.0141 493.95L17.1107 545.397C14.3979 553.653 18.8921 562.546 27.1486 565.259L50.7973 573.029C59.0539 575.741 67.9463 571.247 70.659 562.991L87.5624 511.544C90.2752 503.287 85.7811 494.395 77.5245 491.682L53.8758 483.912C45.6193 481.199 36.7269 485.693 34.0141 493.95Z" fill="#FFD67A" stroke="#F0F0F0" stroke-width="2.86111"/>
	<path d="M75.8591 499.379L21.7065 499.277C13.8057 499.263 7.38892 505.656 7.37417 513.556L7.3277 538.449C7.31295 546.349 13.7058 552.766 21.6066 552.781L75.7592 552.882C83.6599 552.897 90.0767 546.504 90.0915 538.603L90.1379 513.711C90.1527 505.81 83.7598 499.393 75.8591 499.379Z" fill="#FCB6AC"/>
	<path d="M41.6281 497.03L3.16172 535.146C-2.45044 540.708 -2.49184 549.765 3.06924 555.377L20.5901 573.059C26.1512 578.671 35.2089 578.713 40.8211 573.152L79.2875 535.035C84.8996 529.474 84.941 520.417 79.38 514.804L61.8591 497.123C56.298 491.51 47.2403 491.469 41.6281 497.03Z" fill="#FF8A7A" fill-opacity="0.6"/>
	<path d="M51.2907 522.579C51.0645 522.343 50.818 522.127 50.554 521.935C50.5276 521.9 50.4914 521.873 50.4499 521.858C49.5944 521.26 48.5929 520.904 47.5516 520.829L45.3561 520.682L40.0602 520.326L33.5977 519.891L27.9035 519.509C26.908 519.442 25.9123 519.375 24.9162 519.308C23.7368 519.222 22.5595 519.5 21.5432 520.105C20.527 520.709 19.721 521.611 19.2342 522.689C18.6771 523.961 18.7087 525.415 18.6168 526.777L18.2025 532.942C18.1 534.462 17.9979 535.981 17.8961 537.5C17.8178 538.398 17.9436 539.302 18.2642 540.145C18.7994 541.493 19.823 542.59 21.1309 543.217C22.2121 543.728 23.3424 543.763 24.5033 543.841L29.21 544.157L35.5891 544.586L41.6265 544.992L45.4546 545.248C45.7634 545.27 46.0735 545.296 46.3832 545.293C47.814 545.268 49.1835 544.707 50.2202 543.721C51.257 542.735 51.8855 541.395 51.9812 539.968C52.0072 539.604 52.0284 539.24 52.0543 538.877L52.4365 533.196L52.8037 527.729C52.8301 527.338 52.8702 526.944 52.8735 526.551C52.8783 525.072 52.3112 523.649 51.2907 522.579ZM26.2486 519.787L30.971 520.104L37.2294 520.525L43.2068 520.927L47.0204 521.183L47.5516 521.219C48.4433 521.286 49.3037 521.577 50.0535 522.064C46.3665 525.212 42.4746 528.112 38.4035 530.745C37.2723 531.477 36.1253 532.187 34.9627 532.877C31.3834 529.802 27.9522 526.566 24.6692 523.169C23.7579 522.226 22.8599 521.27 21.975 520.301C22.3442 520.102 22.7358 519.948 23.1416 519.842C24.1678 519.658 25.2167 519.64 26.2486 519.787ZM18.4245 535.433L18.8331 529.354L19.1367 524.844C19.1749 523.987 19.4073 523.149 19.8163 522.394C20.2546 521.622 20.8771 520.971 21.6281 520.498C24.2082 523.317 26.8933 526.035 29.6833 528.651C26.5209 530.787 23.4698 533.077 20.5299 535.52C19.7758 536.147 19.0311 536.789 18.292 537.436C18.292 537.402 18.292 537.368 18.2967 537.334C18.3398 536.7 18.3824 536.066 18.4245 535.434V535.433ZM49.5911 543.753C48.5525 544.573 47.2468 544.978 45.9264 544.891C45.144 544.842 44.3621 544.786 43.5797 544.733L38.3115 544.379L31.957 543.953L26.3481 543.576L23.3254 543.372C22.5102 543.328 21.7152 543.103 20.998 542.713C20.3691 542.361 19.8173 541.887 19.3755 541.318C18.9336 540.749 18.6107 540.097 18.4259 539.401C18.3097 538.928 18.2574 538.441 18.2703 537.954C18.289 537.946 18.3064 537.936 18.3222 537.924C21.1894 535.397 24.1819 533.016 27.2884 530.79C28.1632 530.164 29.0466 529.55 29.9387 528.949C29.9504 528.939 29.961 528.929 29.9703 528.917C30.5642 529.472 31.1562 530.029 31.7614 530.574C32.7625 531.48 33.7759 532.372 34.8015 533.251C34.8228 533.27 34.8485 533.285 34.8763 533.293C34.9042 533.301 34.9336 533.303 34.9622 533.298C34.9978 533.3 35.0331 533.291 35.0636 533.272C36.8311 532.222 38.5675 531.123 40.2728 529.973L40.2761 529.977C43.4213 532.122 46.2097 534.737 49.0264 537.285C49.8843 538.061 50.7473 538.831 51.6155 539.594C51.6056 539.732 51.598 539.87 51.5877 540.007C51.5288 540.734 51.3213 541.442 50.9779 542.087C50.6345 542.731 50.1625 543.298 49.5911 543.753ZM52.47 526.885C52.3951 528.085 52.3088 529.283 52.2282 530.482L51.8111 536.691C51.757 537.493 51.703 538.295 51.6489 539.097C48.753 536.549 45.9745 533.858 42.9481 531.462C42.1908 530.862 41.4145 530.288 40.6192 529.737C42.9024 528.189 45.126 526.558 47.29 524.843C48.3354 524.014 49.3648 523.165 50.3782 522.296C51.0848 522.823 51.6469 523.52 52.0125 524.323C52.3781 525.125 52.5355 526.006 52.47 526.885Z" fill="white" stroke="white" stroke-width="2"/>
	</g>
	<mask id="mask3" mask-type="alpha" maskUnits="userSpaceOnUse" x="846" y="43" width="60" height="60">
	<path d="M875.954 102.133C892.247 102.133 905.454 88.9252 905.454 72.6328C905.454 56.3404 892.247 43.1328 875.954 43.1328C859.662 43.1328 846.454 56.3404 846.454 72.6328C846.454 88.9252 859.662 102.133 875.954 102.133Z" fill="white"/>
	</mask>
	<g mask="url(#mask3)">
	<path d="M910.857 57.629H856.704C848.013 57.629 840.968 64.6743 840.968 73.3651V98.2575C840.968 106.948 848.013 113.994 856.704 113.994H910.857C919.548 113.994 926.593 106.948 926.593 98.2575V73.3651C926.593 64.6743 919.548 57.629 910.857 57.629Z" fill="#FFD67A" stroke="#F0F0F0" stroke-width="2.86111"/>
	<path d="M918.762 99.0776L901.954 47.5991C899.502 40.0885 891.426 35.9879 883.915 38.44L860.252 46.1658C852.741 48.618 848.641 56.6944 851.093 64.205L867.9 115.683C870.352 123.194 878.429 127.295 885.939 124.843L909.602 117.117C917.113 114.665 921.214 106.588 918.762 99.0776Z" fill="#FF8A7A" fill-opacity="0.6"/>
	<path d="M910.308 65.824L862.089 41.1774C855.054 37.5815 846.436 40.3695 842.84 47.4046L831.511 69.5693C827.915 76.6043 830.703 85.2224 837.738 88.8182L885.957 113.465C892.992 117.061 901.61 114.273 905.206 107.238L916.535 85.073C920.131 78.038 917.343 69.4199 910.308 65.824Z" fill="#FF8A7A" fill-opacity="0.6"/>
	<path d="M885.354 58.1788C884.971 58.0836 884.565 58.1374 884.222 58.329C883.878 58.5205 883.623 58.8351 883.51 59.2068L874.737 82.0123C871.532 78.6441 869.037 74.6864 867.396 70.3673C867.282 69.9965 867.026 69.6831 866.683 69.4917C866.34 69.3004 865.935 69.2458 865.552 69.3392C865.171 69.4458 864.847 69.6952 864.651 70.0339C864.455 70.3725 864.403 70.7732 864.505 71.1494C866.571 76.6758 869.904 81.6614 874.247 85.7198C874.435 85.8958 874.666 86.0218 874.918 86.0858C875.17 86.1498 875.434 86.1488 875.686 86.0828C875.937 86.0178 876.167 85.8908 876.354 85.7128C876.541 85.5358 876.679 85.3138 876.753 85.0698C879.969 76.71 883.186 68.3504 886.403 59.9908C886.505 59.614 886.453 59.2129 886.256 58.874C886.06 58.535 885.736 58.2853 885.354 58.1788Z" fill="white"/>
	</g>
	</svg>
