<svg width="44" height="44" viewBox="0 0 44 44" fill="none" xmlns="http://www.w3.org/2000/svg">
<mask id="mask0" mask-type="alpha" maskUnits="userSpaceOnUse" x="0" y="0" width="44" height="44">
<path d="M22 44C34.1503 44 44 34.1503 44 22C44 9.84974 34.1503 0 22 0C9.84974 0 0 9.84974 0 22C0 34.1503 9.84974 44 22 44Z" fill="#C4C4C4"/>
</mask>
<g mask="url(#mask0)">
<path d="M256.425 -215.374H-119.719C-125.242 -215.374 -129.719 -210.897 -129.719 -205.374V33.855C-129.719 39.3778 -125.242 43.855 -119.719 43.855H256.425C261.948 43.855 266.425 39.3778 266.425 33.855V-205.374C266.425 -210.897 261.948 -215.374 256.425 -215.374Z" fill="#1817FE"/>
<path d="M299.596 -155.103L-35.3595 -327.589C-40.2696 -330.117 -46.2757 -328.174 -48.7746 -323.249L-156.281 -111.355C-158.78 -106.43 -156.825 -100.388 -151.915 -97.8592L183.041 74.6267C187.951 77.1551 193.957 75.2122 196.456 70.287L303.962 -141.607C306.461 -146.532 304.506 -152.575 299.596 -155.103Z" fill="#0600C6"/>
<path d="M247.401 -155.936L-87.5543 -328.422C-92.4644 -330.95 -98.4705 -329.007 -100.969 -324.082L-208.476 -112.188C-210.974 -107.263 -209.02 -101.221 -204.11 -98.6922L130.846 73.7937C135.756 76.3221 141.762 74.3792 144.261 69.454L251.767 -142.44C254.266 -147.365 252.311 -153.408 247.401 -155.936Z" fill="#000099"/>
<g style="mix-blend-mode:multiply">
<g style="mix-blend-mode:multiply">
<g style="mix-blend-mode:multiply">
<path d="M164.538 393.141L86.9528 22.1964C85.8221 16.7905 80.5259 13.3379 75.1235 14.4848L-155.9 63.5278C-161.303 64.6746 -164.766 69.9867 -163.635 75.3926L-86.0495 446.338C-84.9188 451.743 -79.6227 455.196 -74.2202 454.049L156.803 405.006C162.206 403.859 165.669 398.547 164.538 393.141Z" fill="#0100CD"/>
</g>
</g>
</g>
</g>
</svg>
